<svg id="レイヤー_1" data-name="レイヤー 1" xmlns="http://www.w3.org/2000/svg" viewBox="0 0 15.83 45.14"><defs><style>.cls-1{fill:#b79433;}</style></defs><title>月桂樹左</title><path class="cls-1" d="M69.08,470.37a3.61,3.61,0,0,1-.06,1.91c-0.14.33,0.15,0.11,0.15,0.11,1.84-1.91-.47-4.15-0.58-4.17a5.37,5.37,0,0,1-.4,2c-0.53,1.16.22,2.47,0.45,2.22A3.78,3.78,0,0,0,69.08,470.37ZM67,465.52a5,5,0,0,1-.72,1.76c-0.7,1-.19,2.33.07,2.14a3.43,3.43,0,0,0,.72-1.83,3.4,3.4,0,0,1-.4,1.76c-0.19.28,0.12,0.13,0.12,0.13C68.84,468,67.1,465.55,67,465.52Zm-2,1.1c2-1.37.37-3.83,0.28-3.87a4.93,4.93,0,0,1-.74,1.71c-0.7.94-.23,2.23,0,2.05a3.25,3.25,0,0,0,.74-1.73,3.33,3.33,0,0,1-.42,1.71C64.66,466.76,65,466.62,65,466.62ZM63.44,463c2.2-.89,1.12-3.57,1-3.62a4.77,4.77,0,0,1-1,1.48c-0.86.76-.69,2.09-0.41,2a3.25,3.25,0,0,0,1.07-1.52,3.23,3.23,0,0,1-.75,1.54C63.11,463,63.44,463,63.44,463Zm-1-3.36c-0.25.21,0.08,0.15,0.08,0.15,2.25-.78,1.32-3.5,1.24-3.56a4.75,4.75,0,0,1-1.12,1.42c-0.9.71-.8,2.05-0.51,2a3.26,3.26,0,0,0,1.15-1.46A3.24,3.24,0,0,1,62.41,459.6Zm-0.89-3.14c-0.25.18,0.06,0.15,0.06,0.15,2.23-.59,1.53-3.29,1.46-3.35a4.63,4.63,0,0,1-1.19,1.29c-0.92.62-.92,1.93-0.64,1.85a3.17,3.17,0,0,0,1.22-1.33A3.16,3.16,0,0,1,61.52,456.46ZM61,452.56c-0.28.14,0,.16,0,0.16,2.25-.21,2-2.94,2-3a4.53,4.53,0,0,1-1.36,1.05c-1,.45-1.21,1.72-0.92,1.69a3.11,3.11,0,0,0,1.39-1.09A3.08,3.08,0,0,1,61,452.56Zm0.13-3.18c-0.27.13,0,.16,0,0.16,2.22-.19,2-2.89,2-3a4.56,4.56,0,0,1-1.35,1c-1,.44-1.2,1.68-0.92,1.66a3.06,3.06,0,0,0,1.38-1.06A3,3,0,0,1,61.13,449.38Zm-0.32-3.28a3,3,0,0,0,1.47-.87,3,3,0,0,1-1.21,1c-0.28.1,0,.15,0,0.15,2.19,0.08,2.3-2.57,2.25-2.65a4.36,4.36,0,0,1-1.44.84C60.89,444.91,60.53,446.09,60.81,446.1Zm1-3.65c-0.29,0,0,.16,0,0.16,2.14,0.47,2.71-2.13,2.68-2.21a4.4,4.4,0,0,1-1.56.58c-1,.13-1.61,1.23-1.34,1.29a3,3,0,0,0,1.6-.6A3,3,0,0,1,61.83,442.45ZM63,439.09a2.57,2.57,0,0,0,1.37-.51,2.56,2.56,0,0,1-1.17.67c-0.25,0,0,.13,0,0.13,1.83,0.4,2.32-1.82,2.29-1.89a3.74,3.74,0,0,1-1.34.49C63.29,438.1,62.81,439,63,439.09Zm1.44-2.54c-0.27,0,0,.14,0,0.14,1.94,0.5,2.55-1.85,2.52-1.92a4,4,0,0,1-1.45.47c-1,.08-1.52,1.07-1.27,1.13a2.74,2.74,0,0,0,1.48-.49A2.74,2.74,0,0,1,64.48,436.56Zm3.69-4.74c-0.06,0-2.33-.23-2.49,1.64,0,0,0,.26.13,0a2.56,2.56,0,0,1,1-.92,2.58,2.58,0,0,0-.9,1.16c0,0.24,1,.05,1.4-0.77A3.77,3.77,0,0,1,68.17,431.81ZM65.6,470.76a5.32,5.32,0,0,1-2,.12c0,0.11,1.9,2.71,4,1.16,0,0,.26-0.26-0.09-0.17a3.6,3.6,0,0,1-1.9-.21,3.8,3.8,0,0,0,2.09-.13C68,471.33,66.83,470.4,65.6,470.76Zm-0.22-1.83s0.25-.24-0.08-0.16a3.4,3.4,0,0,1-1.79-.23,3.42,3.42,0,0,0,2-.05c0.27-.18-0.83-1.11-2-0.79a5,5,0,0,1-1.9.08C61.6,467.88,63.34,470.36,65.38,468.93Zm-1.9-3.15s0.28-.19-0.05-0.17a3.33,3.33,0,0,1-1.69-.51,3.25,3.25,0,0,0,1.87.25c0.29-.13-0.58-1.19-1.75-1.07a4.9,4.9,0,0,1-1.85-.24C60,464.15,61.28,466.83,63.49,465.79ZM62,462.14s0.3-.15,0-0.17a3.24,3.24,0,0,1-1.56-.72,3.26,3.26,0,0,0,1.79.49c0.29-.09-0.43-1.23-1.57-1.27a4.76,4.76,0,0,1-1.74-.47C58.9,460.1,59.77,462.85,62,462.14ZM61,458.77s0.31-.12,0-0.17a3.26,3.26,0,0,1-1.49-.84,3.26,3.26,0,0,0,1.74.63c0.3-.06-0.33-1.26-1.46-1.39a4.79,4.79,0,0,1-1.7-.61C58,456.48,58.65,459.29,61,458.77Zm-0.59-3.52s0.3-.11,0-0.16a3.13,3.13,0,0,1-1.41-.87,3.15,3.15,0,0,0,1.66.69c0.29,0-.27-1.23-1.36-1.4a4.6,4.6,0,0,1-1.62-.66C57.61,452.92,58.12,455.66,60.38,455.25Zm-0.3-3.62s0.31-.07,0-0.16a3.08,3.08,0,0,1-1.29-1,3.1,3.1,0,0,0,1.55.84c0.29,0-.13-1.23-1.19-1.51a4.57,4.57,0,0,1-1.52-.81C57.61,449.06,57.83,451.8,60.08,451.62Zm0-3.37s0.31,0,.06-0.15a3.05,3.05,0,0,1-.94-1.31A3.06,3.06,0,0,0,60.41,448c0.28,0.07.22-1.2-.7-1.76a4.55,4.55,0,0,1-1.21-1.2C58.45,445.14,57.88,447.79,60.06,448.26Zm0.38-3.65s0.3,0.05.07-.14a3,3,0,0,1-.76-1.39,3,3,0,0,0,1.05,1.35c0.27,0.1.36-1.14-.47-1.8a4.44,4.44,0,0,1-1-1.31C59.24,441.37,58.37,443.88,60.44,444.61Zm0.85-3.28s0.29,0.1.09-.12a3,3,0,0,1-.52-1.49,3,3,0,0,0,.82,1.5c0.25,0.14.54-1.07-.16-1.85a4.39,4.39,0,0,1-.8-1.46C60.64,437.94,59.37,440.28,61.29,441.33Zm1.38-3.22s0.25,0.08.08-.11a2.57,2.57,0,0,1-.48-1.27A2.57,2.57,0,0,0,63,438c0.21,0.11.44-.93-0.19-1.58a3.79,3.79,0,0,1-.72-1.23C62,435.23,61,437.26,62.67,438.11Zm1.53-2.92s0.24,0.14.1-.1a2.73,2.73,0,0,1-.23-1.43,2.75,2.75,0,0,0,.5,1.48c0.2,0.16.66-.87,0.15-1.69a4.06,4.06,0,0,1-.49-1.44C64.15,432,62.64,433.94,64.2,435.19ZM73,475.71a14.68,14.68,0,0,1-4.36-3.29c1.09,2.61,4.82,4.5,4.82,4.5Z" transform="translate(-57.64 -431.79)"/></svg>