<svg id="レイヤー_1" data-name="レイヤー 1" xmlns="http://www.w3.org/2000/svg" viewBox="0 0 15.83 45.14"><defs><style>.cls-1{fill:#b79433;}</style></defs><title>月桂樹右</title><path class="cls-1" d="M119.82,472.42c0.23,0.25,1-1.06.45-2.22a5.36,5.36,0,0,1-.4-2c-0.11,0-2.41,2.26-.58,4.17,0,0,.29.22,0.15-0.11a3.6,3.6,0,0,1-.06-1.91A3.77,3.77,0,0,0,119.82,472.42Zm1.85-2.95s0.31,0.15.12-.13a3.39,3.39,0,0,1-.39-1.76,3.43,3.43,0,0,0,.72,1.83c0.26,0.19.77-1.16,0.07-2.14a5.06,5.06,0,0,1-.72-1.76C121.38,465.55,119.64,468,121.68,469.47Zm2-3a3.33,3.33,0,0,1-.42-1.71,3.25,3.25,0,0,0,.74,1.73c0.26,0.18.73-1.11,0-2.05a4.92,4.92,0,0,1-.74-1.71c-0.09,0-1.74,2.5.28,3.87C123.51,466.62,123.82,466.76,123.63,466.49Zm1.5-3.68a3.23,3.23,0,0,1-.75-1.54,3.26,3.26,0,0,0,1.07,1.52c0.28,0.12.45-1.22-.41-2a4.8,4.8,0,0,1-1-1.48c-0.08.05-1.16,2.73,1,3.62C125,463,125.36,463,125.13,462.81Zm0.11-4.71a3.26,3.26,0,0,0,1.15,1.46c0.29,0.1.38-1.24-.51-2a4.76,4.76,0,0,1-1.12-1.42c-0.08.06-1,2.79,1.24,3.56,0,0,.33.06,0.08-0.15A3.24,3.24,0,0,1,125.24,458.09Zm0.81-3a3.16,3.16,0,0,0,1.22,1.33c0.29,0.08.28-1.23-.64-1.85a4.63,4.63,0,0,1-1.19-1.29c-0.07.06-.77,2.77,1.46,3.35,0,0,.32,0,0.06-0.15A3.15,3.15,0,0,1,126,455.07Zm0.33-3.71a3.11,3.11,0,0,0,1.39,1.09c0.29,0,.07-1.23-0.92-1.69a4.52,4.52,0,0,1-1.36-1.05c-0.06.07-.3,2.8,2,3,0,0,.31,0,0-0.16A3.08,3.08,0,0,1,126.38,451.36Zm-0.13-3.16a3.06,3.06,0,0,0,1.38,1.06c0.29,0,.06-1.22-0.92-1.66a4.56,4.56,0,0,1-1.35-1c-0.06.07-.27,2.77,2,3,0,0,.31,0,0-0.16A3,3,0,0,1,126.25,448.2Zm0.33-3.61a4.37,4.37,0,0,1-1.44-.84c0,0.08.06,2.73,2.25,2.65,0,0,.3-0.06,0-0.15a3,3,0,0,1-1.21-1,3,3,0,0,0,1.47.87C128,446.09,127.59,444.91,126.58,444.6Zm-1.3-2.93a3,3,0,0,0,1.6.6c0.28-.06-0.29-1.16-1.34-1.29a4.41,4.41,0,0,1-1.56-.58c0,0.08.54,2.68,2.68,2.21,0,0,.28-0.11,0-0.16A3,3,0,0,1,125.28,441.66Zm-1-3.67a3.74,3.74,0,0,1-1.34-.49c0,0.07.46,2.29,2.29,1.89,0,0,.24-0.09,0-0.13a2.56,2.56,0,0,1-1.17-.67,2.57,2.57,0,0,0,1.37.51C125.67,439,125.18,438.1,124.29,438Zm-1.57-2.1a2.75,2.75,0,0,0,1.48.49c0.25-.06-0.31-1-1.27-1.13a4,4,0,0,1-1.45-.47c0,0.08.59,2.42,2.52,1.92,0,0,.26-0.11,0-0.14A2.75,2.75,0,0,1,122.72,435.89Zm-1.55-2.94c0.37,0.83,1.42,1,1.4.77a2.57,2.57,0,0,0-.9-1.16,2.56,2.56,0,0,1,1,.92c0.11,0.23.13,0,.13,0-0.16-1.87-2.43-1.68-2.49-1.64A3.78,3.78,0,0,1,121.17,432.95Zm-0.43,38.57a3.79,3.79,0,0,0,2.09.13,3.6,3.6,0,0,1-1.9.21c-0.35-.09-0.09.17-0.09,0.17,2.15,1.55,4-1,4-1.16a5.32,5.32,0,0,1-2-.12C121.65,470.4,120.46,471.33,120.74,471.52Zm6.14-3.74a5,5,0,0,1-1.9-.08c-1.16-.32-2.25.61-2,0.79a3.42,3.42,0,0,0,2,.05,3.39,3.39,0,0,1-1.79.23c-0.33-.08-0.08.16-0.08,0.16C125.14,470.36,126.88,467.88,126.88,467.78Zm1.58-3.72a4.9,4.9,0,0,1-1.85.24c-1.17-.12-2,0.94-1.75,1.07a3.25,3.25,0,0,0,1.87-.25,3.33,3.33,0,0,1-1.69.51c-0.33,0-.05.17-0.05,0.17C127.2,466.83,128.48,464.15,128.47,464.05Zm1.08-4a4.76,4.76,0,0,1-1.74.47c-1.14,0-1.86,1.18-1.57,1.27a3.26,3.26,0,0,0,1.79-.49,3.24,3.24,0,0,1-1.56.72c-0.32,0,0,.17,0,0.17C128.71,462.85,129.58,460.1,129.55,460Zm0.89-3.62a4.8,4.8,0,0,1-1.7.61c-1.14.13-1.76,1.33-1.46,1.39a3.26,3.26,0,0,0,1.74-.63,3.25,3.25,0,0,1-1.49.84c-0.32,0,0,.17,0,0.17C129.83,459.29,130.47,456.48,130.44,456.39Zm0.4-3.56a4.6,4.6,0,0,1-1.62.66c-1.1.17-1.65,1.35-1.36,1.4a3.15,3.15,0,0,0,1.66-.69,3.13,3.13,0,0,1-1.41.88c-0.31.06,0,.16,0,0.16C130.36,455.66,130.87,452.92,130.83,452.83Zm0-3.85a4.56,4.56,0,0,1-1.52.81c-1.05.28-1.48,1.49-1.19,1.51a3.1,3.1,0,0,0,1.55-.84,3.08,3.08,0,0,1-1.29,1c-0.29.09,0,.16,0,0.16C130.65,451.8,130.87,449.06,130.82,449ZM130,445.08a4.54,4.54,0,0,1-1.21,1.2c-0.92.56-1,1.83-.7,1.76a3.06,3.06,0,0,0,1.23-1.23,3,3,0,0,1-.94,1.31c-0.25.17,0.06,0.15,0.06,0.15C130.6,447.79,130,445.14,130,445.08Zm-0.8-3.76a4.42,4.42,0,0,1-1,1.31c-0.82.66-.73,1.89-0.47,1.8a3,3,0,0,0,1.05-1.35,3,3,0,0,1-.76,1.39c-0.23.19,0.07,0.14,0.07,0.14C130.11,443.88,129.24,441.37,129.17,441.32Zm-1.41-3.42a4.43,4.43,0,0,1-.8,1.46c-0.7.78-.41,2-0.16,1.85a3,3,0,0,0,.82-1.5,3,3,0,0,1-.52,1.49c-0.19.23,0.09,0.13,0.09,0.13C129.11,440.28,127.84,437.94,127.76,437.9Zm-1.37-2.71a3.83,3.83,0,0,1-.72,1.23c-0.62.65-.4,1.69-0.19,1.58a2.57,2.57,0,0,0,.74-1.27,2.57,2.57,0,0,1-.48,1.27c-0.17.19,0.08,0.11,0.08,0.11C127.48,437.26,126.45,435.23,126.39,435.19ZM124.25,432a4.06,4.06,0,0,1-.49,1.44c-0.51.82-.05,1.86,0.15,1.69a2.75,2.75,0,0,0,.5-1.48,2.72,2.72,0,0,1-.23,1.43c-0.14.23,0.11,0.1,0.11,0.1C125.84,433.94,124.33,432,124.25,432ZM115,476.92s3.73-1.89,4.82-4.5a14.69,14.69,0,0,1-4.36,3.29Z" transform="translate(-115.01 -431.79)"/></svg>