<svg fill="none" height="37" viewBox="0 0 221 37" width="221" xmlns="http://www.w3.org/2000/svg"><g fill="#fff"><path d="m48.5686 10.3292h6.0626v25.7881h4.5133v-25.7881h5.9953v-3.98301h-16.5712z"/><path d="m70.8661 36.1173h13.4726v-4.3205h-8.9592v-9.4512h7.814v-4.0504h-7.814v-7.966h8.9592v-3.98301h-13.4726z"/><path d="m97.407 6.07574c-.9342-.08461-1.8758.02723-2.7644.3284-.8886.30116-1.7047.78499-2.3959 1.4205s-1.2423 1.40869-1.6181 2.27006c-.3758.8613-.568 1.7918-.5642 2.7319v16.472c-.0057.9526.1897 1.8957.5736 2.7672s.9475 1.6517 1.6538 2.2894c.7062.6376 1.5391 1.1183 2.444 1.4103.9048.292 1.8611.3887 2.8059.2839.9181.0553 1.8377-.0783 2.7023-.3928.864-.3144 1.656-.8029 2.325-1.4353.668-.6325 1.201-1.3955 1.565-2.2422.363-.8466.55-1.7588.548-2.6805v-1.8227h-4.513v1.4852c.039.3882-.005.7805-.132 1.1497-.1261.3692-.3307.7066-.5996.9889s-.5957.5029-.9579.6464c-.3621.1436-.751.2068-1.1399.1853-2.0209 0-2.7618-1.3501-2.7618-3.0379v-15.0543c0-2.0253.5389-3.5104 2.8292-3.5104.3896.0075.7735.0956 1.1276.2588.3541.1631.6707.3978.93.6894s.4557.6337.5774 1.0049c.121.3712.164.7635.127 1.1522v1.6877h4.513v-1.6877c.003-.9338-.187-1.8582-.559-2.7145-.372-.85639-.917-1.62615-1.6-2.26063-.684-.63448-1.492-1.11985-2.372-1.42549-.8809-.30565-1.8151-.4249-2.744-.35019"/><path d="m120.916 18.2952h-5.591v-11.94901h-4.513v29.77111h4.513v-14.0417h5.591v14.0417h4.514v-29.77111h-4.514z"/><path d="m144.898 6.07574c-.935-.08461-1.876.02723-2.765.3284-.888.30116-1.704.78499-2.396 1.4205-.691.63552-1.242 1.40869-1.618 2.27006-.376.8613-.568 1.7918-.564 2.7319v16.472c-.005.9463.189 1.883.569 2.7494s.937 1.6431 1.636 2.2797 1.523 1.1188 2.42 1.4154c.896.2966 1.845.401 2.785.3063.918.0553 1.838-.0783 2.702-.3927.865-.3145 1.656-.803 2.325-1.4354.669-.6325 1.201-1.3955 1.565-2.2421.363-.8467.55-1.7589.548-2.6806v-1.8227h-4.513v1.4852c.04.3883-.005.7805-.132 1.1497-.126.3692-.331.7066-.599.9889-.269.2823-.596.5029-.958.6465-.362.1435-.751.2068-1.14.1852-2.021 0-2.695-1.3501-2.695-3.0378v-15.0544c0-2.0253.472-3.5104 2.762-3.5104.39.0075.774.0956 1.128.2588.354.1631.671.3979.93.6894.259.2916.456.6337.577 1.0049s.164.7635.127 1.1522v1.6877h4.513v-1.6877c.003-.9277-.186-1.846-.554-2.6974-.367-.85148-.906-1.61784-1.582-2.2513-.677-.63347-1.476-1.12044-2.349-1.4305-.872-.31006-1.799-.43655-2.722-.37161"/><path d="m162.816 6.34619-7.073 29.77111h4.514l1.549-6.7508h5.726l1.549 6.7508h4.513l-6.736-29.77111h-3.772zm.27 18.76731 1.684-9.9912 2.021 9.8562z"/><path d="m188.684 22.0081-6.4-15.66191h-3.839v29.77111h4.446v-16.337l6.062 14.1092 5.457-14.1092v16.337h4.378v-29.77111h-3.839z"/><path d="m211.924 6.34619h-6.737v29.77111h4.514v-12.8941h2.223c2.233 0 4.375-.889 5.954-2.4715 1.579-1.5826 2.466-3.729 2.466-5.967s-.887-4.3844-2.466-5.9669c-1.579-1.58253-3.721-2.47161-5.954-2.47161zm0 12.82651h-2.156v-8.776h2.156c.575 0 1.144.1135 1.675.334.532.2205 1.014.5437 1.421.9512.406.4075.729.8912.949 1.4236s.333 1.103.333 1.6792c0 .5763-.113 1.1469-.333 1.6793-.22.5323-.543 1.0161-.949 1.4236-.407.4074-.889.7306-1.421.9511-.531.2206-1.1.334-1.675.334z"/><path d="m0 36.117h42.5061l-7.0732-12.084c-.0846-.1707-.2224-.3092-.3926-.3945-.1701-.0852-.3634-.1126-.5504-.078-2.964.4725-22.7687 2.7678-34.4899 12.5565z" opacity=".64"/><path d="m0 36.1169c10.3376-6.2346 21.342-11.2845 32.8058-15.0543.0823-.0225.1589-.0621.2249-.1163s.1198-.1217.1579-.1982c.0382-.0764.0598-.1601.0635-.2455.0036-.0855-.0107-.1706-.0421-.2501l-11.9233-20.2525z"/></g></svg>