<svg width="590" height="600" viewBox="0 0 590 600" fill="none" xmlns="http://www.w3.org/2000/svg">
<path d="M124.94 13.9L120.88 17.64L119.13 15.55L125.28 10.47H127.93V32.56H124.93L124.94 13.9Z" fill="#121212"/>
<path d="M136.8 27.16C137.06 28.0597 137.549 28.8765 138.22 29.53C138.968 30.1017 139.901 30.3792 140.84 30.31C141.4 30.3121 141.955 30.2139 142.48 30.02C142.971 29.8253 143.427 29.5517 143.83 29.21C144.239 28.85 144.565 28.4047 144.785 27.9055C145.004 27.4063 145.112 26.8651 145.1 26.32C145.139 25.5456 144.94 24.778 144.53 24.12C144.143 23.572 143.614 23.1398 143 22.87C142.367 22.5817 141.692 22.3993 141 22.33C140.283 22.2424 139.562 22.199 138.84 22.2V19.58C139.782 19.5961 140.723 19.5191 141.65 19.35C142.263 19.2402 142.848 19.009 143.37 18.67C143.763 18.4026 144.066 18.0226 144.24 17.58C144.413 17.1131 144.498 16.6179 144.49 16.12C144.526 15.6208 144.45 15.1199 144.266 14.6543C144.083 14.1887 143.797 13.7703 143.43 13.43C142.684 12.8206 141.743 12.5011 140.78 12.53C139.99 12.5205 139.219 12.766 138.58 13.23C137.922 13.6994 137.41 14.3438 137.1 15.09L134.04 14.09C134.54 12.7661 135.484 11.6564 136.71 10.95C137.933 10.2729 139.312 9.92807 140.71 9.94996C141.579 9.94684 142.445 10.0681 143.28 10.31C144.067 10.5354 144.803 10.9087 145.45 11.41C146.101 11.9 146.631 12.5329 147 13.26C147.38 14.0979 147.568 15.0101 147.55 15.93C147.576 17.0528 147.224 18.1518 146.55 19.05C145.866 19.9523 144.908 20.6085 143.82 20.92V21C144.47 21.1157 145.094 21.3496 145.66 21.69C146.181 22.0112 146.635 22.4286 147 22.92C147.381 23.4214 147.669 23.987 147.85 24.59C148.037 25.2231 148.131 25.8799 148.13 26.54C148.148 27.5049 147.939 28.4606 147.52 29.33C147.131 30.106 146.578 30.7883 145.9 31.33C145.2 31.8702 144.407 32.277 143.56 32.53C142.652 32.8012 141.708 32.936 140.76 32.93C139.202 32.9638 137.665 32.5658 136.32 31.78C134.996 30.9496 134.04 29.6433 133.65 28.13L136.8 27.16Z" fill="#121212"/>
<path d="M154.16 32.7501C153.89 32.7517 153.622 32.6984 153.372 32.5936C153.123 32.4888 152.898 32.3345 152.71 32.1401C152.516 31.9521 152.361 31.7268 152.256 31.4775C152.152 31.2283 152.098 30.9604 152.1 30.6901C152.095 30.4192 152.146 30.1502 152.251 29.9005C152.356 29.6507 152.513 29.4258 152.71 29.2401C152.897 29.0434 153.122 28.8868 153.371 28.7798C153.62 28.6727 153.889 28.6176 154.16 28.6176C154.431 28.6176 154.7 28.6727 154.949 28.7798C155.198 28.8868 155.423 29.0434 155.61 29.2401C155.807 29.4258 155.963 29.6507 156.069 29.9005C156.174 30.1502 156.225 30.4192 156.22 30.6901C156.222 30.9604 156.168 31.2283 156.064 31.4775C155.959 31.7268 155.804 31.9521 155.61 32.1401C155.422 32.3345 155.197 32.4888 154.947 32.5936C154.698 32.6984 154.43 32.7517 154.16 32.7501Z" fill="#121212"/>
<path d="M161.62 29.3799L170.48 20.5799C170.798 20.2803 171.098 19.9632 171.38 19.6299C171.664 19.288 171.925 18.9272 172.16 18.5499C172.389 18.1762 172.574 17.7768 172.71 17.3599C172.844 16.9361 172.911 16.4943 172.91 16.0499C172.917 15.5484 172.818 15.051 172.62 14.5899C172.432 14.1639 172.152 13.7848 171.8 13.4799C171.447 13.1683 171.036 12.9303 170.59 12.7799C170.115 12.6105 169.614 12.5259 169.11 12.5299C168.134 12.4913 167.177 12.8114 166.42 13.4299C165.692 14.0784 165.217 14.9643 165.08 15.9299L161.84 15.6499C161.954 14.7556 162.243 13.8925 162.69 13.1099C163.1 12.4107 163.644 11.799 164.29 11.3099C164.943 10.8214 165.683 10.4616 166.47 10.2499C167.34 10.0151 168.239 9.9007 169.14 9.90994C170.055 9.90474 170.965 10.0362 171.84 10.2999C172.644 10.5384 173.394 10.9288 174.05 11.4499C174.688 11.9652 175.201 12.6182 175.55 13.3599C175.928 14.1948 176.112 15.104 176.09 16.0199C176.098 16.7163 175.99 17.4092 175.77 18.0699C175.551 18.6967 175.262 19.2971 174.91 19.8599C174.55 20.4242 174.142 20.9562 173.69 21.4499C173.23 21.9499 172.76 22.4499 172.26 22.9199L164.99 29.9199H176.09V32.5399H161.62V29.3799Z" fill="#121212"/>
<path d="M182.11 21.14C182.104 20.6449 182.203 20.1541 182.4 19.7C182.584 19.2649 182.853 18.8706 183.19 18.54C183.523 18.2057 183.917 17.9376 184.35 17.75C184.804 17.5517 185.295 17.4528 185.79 17.46C186.282 17.4527 186.77 17.5516 187.22 17.75C187.656 17.9374 188.053 18.2054 188.39 18.54C188.721 18.8759 188.989 19.2689 189.18 19.7C189.373 20.1556 189.471 20.6454 189.47 21.14C189.473 21.6316 189.374 22.1183 189.18 22.57C188.991 23.0056 188.724 23.4024 188.39 23.74C188.053 24.0747 187.656 24.3427 187.22 24.53C186.768 24.7239 186.282 24.8226 185.79 24.82C185.295 24.8225 184.805 24.7238 184.35 24.53C183.917 24.3425 183.523 24.0744 183.19 23.74C182.85 23.4076 182.581 23.0095 182.4 22.57C182.202 22.1198 182.103 21.632 182.11 21.14V21.14ZM183.73 21.14C183.722 21.4128 183.769 21.6844 183.87 21.9381C183.97 22.1918 184.122 22.4222 184.315 22.6152C184.508 22.8082 184.738 22.9596 184.992 23.0602C185.246 23.1608 185.517 23.2084 185.79 23.2C186.336 23.2 186.86 22.983 187.247 22.5967C187.633 22.2104 187.85 21.6864 187.85 21.14C187.85 20.5937 187.633 20.0697 187.247 19.6834C186.86 19.2971 186.336 19.08 185.79 19.08C185.517 19.0717 185.246 19.1193 184.992 19.2199C184.738 19.3205 184.508 19.4719 184.315 19.6649C184.122 19.8579 183.97 20.0883 183.87 20.342C183.769 20.5957 183.722 20.8673 183.73 21.14V21.14ZM186.22 33.2L185 32.56L194.25 17.17L195.5 17.81L186.22 33.2ZM190.92 29.2C190.916 28.7074 191.018 28.2196 191.22 27.77C191.401 27.3306 191.67 26.9325 192.01 26.6C192.346 26.2689 192.739 26.0013 193.17 25.81C193.625 25.6163 194.115 25.5176 194.61 25.52C195.102 25.5175 195.588 25.6162 196.04 25.81C196.474 26.0019 196.87 26.2694 197.21 26.6C197.544 26.9377 197.811 27.3345 198 27.77C198.194 28.2217 198.293 28.7085 198.29 29.2C198.291 29.6947 198.193 30.1845 198 30.64C197.809 31.0712 197.541 31.4642 197.21 31.8C196.873 32.1347 196.476 32.4027 196.04 32.59C195.59 32.7885 195.102 32.8874 194.61 32.88C194.115 32.8872 193.624 32.7884 193.17 32.59C192.737 32.4025 192.343 32.1344 192.01 31.8C191.673 31.4695 191.404 31.0752 191.22 30.64C191.026 30.202 190.924 29.729 190.92 29.25V29.2ZM192.55 29.2C192.542 29.4728 192.589 29.7444 192.69 29.9981C192.79 30.2518 192.942 30.4822 193.135 30.6752C193.328 30.8682 193.558 31.0196 193.812 31.1202C194.066 31.2208 194.337 31.2684 194.61 31.26C194.883 31.2684 195.154 31.2208 195.408 31.1202C195.662 31.0196 195.892 30.8682 196.085 30.6752C196.278 30.4822 196.43 30.2518 196.53 29.9981C196.631 29.7444 196.678 29.4728 196.67 29.2C196.678 28.9273 196.631 28.6557 196.53 28.402C196.43 28.1483 196.278 27.9179 196.085 27.7249C195.892 27.5319 195.662 27.3805 195.408 27.2799C195.154 27.1793 194.883 27.1317 194.61 27.14C194.337 27.1317 194.066 27.1793 193.812 27.2799C193.558 27.3805 193.328 27.5319 193.135 27.7249C192.942 27.9179 192.79 28.1483 192.69 28.402C192.589 28.6557 192.542 28.9273 192.55 29.2V29.2Z" fill="#121212"/>
<path d="M295.28 275.52L141.28 136.88C181.71 91.9799 234.84 68.3199 295.28 68.3199V275.52Z" fill="#66BDED" stroke="white" stroke-width="6" stroke-linecap="round" stroke-linejoin="round"/>
<path d="M295.28 275.52L162.1 434.24C74.4399 360.69 62.9999 230 136.56 142.34C138.03 140.58 139.77 138.58 141.3 136.88L295.28 275.52Z" fill="#3887C1" stroke="white" stroke-width="6" stroke-linecap="round" stroke-linejoin="round"/>
<path d="M295.28 275.52V68.3199C409.71 68.3199 502.48 161.09 502.48 275.52C502.48 389.95 409.71 482.72 295.28 482.72C243.56 482.72 201.72 467.49 162.1 434.24L295.28 275.52Z" fill="#11376B" stroke="white" stroke-width="6" stroke-linecap="round" stroke-linejoin="round"/>
<path d="M295.72 411.49C371.107 411.49 432.22 350.377 432.22 274.99C432.22 199.603 371.107 138.49 295.72 138.49C220.333 138.49 159.22 199.603 159.22 274.99C159.22 350.377 220.333 411.49 295.72 411.49Z" fill="white"/>
<path d="M295.72 414.49C218.8 414.49 156.22 351.91 156.22 274.99C156.22 198.07 218.8 135.49 295.72 135.49C372.64 135.49 435.22 198.07 435.22 274.99C435.22 351.91 372.64 414.49 295.72 414.49ZM295.72 141.49C222.11 141.49 162.22 201.38 162.22 274.99C162.22 348.6 222.11 408.49 295.72 408.49C369.33 408.49 429.22 348.6 429.22 275C429.22 201.4 369.34 141.49 295.72 141.49Z" fill="white"/>
<path d="M221.53 267.4C223.146 268.298 224.65 269.386 226.01 270.64C226.13 270.76 226.19 270.84 226.19 270.88C226.158 271.018 226.096 271.148 226.01 271.26L224.61 273.26C224.523 273.4 224.443 273.47 224.37 273.47C224.29 273.47 224.2 273.41 224.08 273.29C222.743 271.975 221.26 270.817 219.66 269.84C219.49 269.74 219.41 269.67 219.41 269.61C219.451 269.473 219.527 269.349 219.63 269.25L220.9 267.56C221.04 267.39 221.16 267.3 221.25 267.3C221.349 267.314 221.444 267.348 221.53 267.4V267.4ZM219.66 285.31C220.243 284.514 220.765 283.675 221.22 282.8C222.324 280.435 223.269 278 224.05 275.51C224.581 276.085 225.163 276.611 225.79 277.08C226.23 277.4 226.45 277.67 226.45 277.88C226.416 278.114 226.363 278.345 226.29 278.57C225.482 280.932 224.554 283.252 223.51 285.52C223.318 285.92 223.167 286.339 223.06 286.77C222.99 287.06 222.86 287.21 222.68 287.21C222.44 287.196 222.206 287.124 222 287C221.177 286.498 220.395 285.933 219.66 285.31V285.31ZM222.89 259.5C224.527 260.44 226.056 261.557 227.45 262.83C227.499 262.858 227.541 262.897 227.572 262.944C227.603 262.99 227.623 263.044 227.63 263.1C227.6 263.243 227.53 263.374 227.43 263.48L226.01 265.48C225.89 265.63 225.81 265.71 225.75 265.71C225.648 265.684 225.552 265.636 225.47 265.57C224.085 264.18 222.541 262.959 220.87 261.93C220.73 261.85 220.66 261.78 220.66 261.71C220.694 261.566 220.766 261.435 220.87 261.33L222.3 259.66C222.44 259.51 222.55 259.44 222.63 259.44C222.721 259.435 222.811 259.456 222.89 259.5ZM231.64 275.6L227.31 275.67C227.205 275.682 227.099 275.657 227.01 275.6C226.985 275.512 226.985 275.418 227.01 275.33V273C227.01 272.83 227.01 272.72 227.09 272.68C227.17 272.64 227.21 272.68 227.36 272.68L231.69 272.74H234C234.2 270.963 234.306 269.178 234.32 267.39H232.89L228.89 267.45C228.73 267.45 228.63 267.45 228.6 267.39C228.577 267.301 228.577 267.208 228.6 267.12V264.75C228.585 264.643 228.606 264.534 228.66 264.44C228.748 264.417 228.841 264.417 228.93 264.44L232.93 264.5H234.42V262.71C234.429 261.5 234.355 260.29 234.2 259.09C235.85 259.18 236.98 259.27 237.59 259.35C237.95 259.41 238.12 259.53 238.12 259.71C238.086 259.943 238.008 260.166 237.89 260.37C237.707 260.975 237.635 261.609 237.68 262.24V264.5H240.51L244.58 264.44C244.753 264.44 244.853 264.46 244.88 264.5C244.905 264.595 244.905 264.695 244.88 264.79L244.82 267.52V272.78L247.25 272.72C247.41 272.72 247.5 272.72 247.54 272.79C247.564 272.885 247.564 272.985 247.54 273.08V275.39C247.551 275.486 247.533 275.583 247.49 275.67C247.406 275.722 247.307 275.743 247.21 275.73L242.91 275.66H238.21C239.837 279.567 242.967 282.483 247.6 284.41C247.034 285.115 246.576 285.9 246.24 286.74C246.03 287.23 245.84 287.48 245.67 287.48C245.411 287.413 245.162 287.312 244.93 287.18C240.59 284.66 237.647 281.503 236.1 277.71C234.705 281.775 231.855 285.18 228.1 287.27C227.865 287.431 227.599 287.544 227.32 287.6C227.18 287.6 226.97 287.37 226.7 286.89C226.304 286.15 225.767 285.494 225.12 284.96C227.334 283.914 229.314 282.431 230.94 280.6C232.115 279.151 232.964 277.466 233.43 275.66L231.64 275.6ZM237.32 272.72H241.65V267.37H237.65C237.58 269.41 237.48 271.19 237.32 272.72Z" fill="#11376B"/>
<path d="M260.24 271.05L256.05 271.11C255.936 271.125 255.821 271.104 255.72 271.05C255.678 270.959 255.661 270.859 255.67 270.76V268.48C255.67 268.32 255.67 268.22 255.75 268.19C255.849 268.166 255.951 268.166 256.05 268.19L260.24 268.25H269L273.2 268.19C273.304 268.176 273.41 268.197 273.5 268.25C273.542 268.334 273.559 268.427 273.55 268.52V270.8C273.562 270.905 273.537 271.011 273.48 271.1C273.393 271.142 273.296 271.16 273.2 271.15L269 271.09H266.36V275.22H270.16L273.73 275.16C273.91 275.16 274.02 275.16 274.05 275.22C274.101 275.3 274.122 275.396 274.11 275.49V277.77C274.11 277.91 274.11 278 274.05 278.03C273.945 278.055 273.835 278.055 273.73 278.03L270.16 277.97H266.36V283.29C268.354 283.489 270.357 283.579 272.36 283.56C273.933 283.56 275.933 283.47 278.36 283.29C278.067 284.004 277.868 284.754 277.77 285.52C277.71 286.02 277.62 286.31 277.49 286.4C277.229 286.518 276.947 286.582 276.66 286.59C275.47 286.65 274.25 286.68 272.98 286.68C267.473 286.68 263.617 286.173 261.41 285.16C259.67 284.29 258.216 282.94 257.22 281.27C256.286 283.259 254.998 285.061 253.42 286.59C253.09 286.94 252.87 287.12 252.74 287.12C252.61 287.12 252.42 286.92 252.11 286.53C251.613 285.885 250.999 285.339 250.3 284.92C251.843 283.738 253.134 282.26 254.098 280.572C255.061 278.883 255.677 277.02 255.91 275.09C256.005 274.427 256.065 273.759 256.09 273.09C256.99 273.22 257.98 273.42 259.09 273.68C259.49 273.76 259.69 273.9 259.69 274.11C259.658 274.332 259.557 274.539 259.4 274.7C259.199 275.003 259.059 275.343 258.99 275.7C258.85 276.527 258.663 277.344 258.43 278.15C258.936 279.209 259.611 280.179 260.43 281.02C261.204 281.727 262.116 282.266 263.11 282.6V271.05H260.24ZM273.24 262.21L277.34 262.15C277.57 262.15 277.69 262.25 277.69 262.45L277.63 264.08V265.41L277.69 268.83C277.69 268.99 277.69 269.09 277.61 269.12C277.53 269.15 277.49 269.12 277.34 269.12H274.8C274.63 269.12 274.54 269.12 274.51 269.06C274.469 268.976 274.451 268.883 274.46 268.79V265.02H254.78V268.79C254.78 268.95 254.78 269.05 254.7 269.08C254.602 269.104 254.499 269.104 254.4 269.08H251.87C251.71 269.08 251.62 269.08 251.58 269.02C251.557 268.931 251.557 268.838 251.58 268.75L251.64 265.33V264.27L251.58 262.37C251.58 262.17 251.69 262.07 251.91 262.07L256.06 262.13H262.71V261.85C262.746 260.845 262.672 259.839 262.49 258.85C263.49 258.85 264.64 258.85 265.81 259C266.13 259 266.28 259.15 266.28 259.32C266.251 259.525 266.19 259.724 266.1 259.91C265.983 260.526 265.943 261.154 265.98 261.78V262.09L273.24 262.21Z" fill="#11376B"/>
<path d="M306 279.19C306.687 279.642 307.454 279.957 308.26 280.12C308.484 280.156 308.701 280.231 308.9 280.34C308.947 280.397 308.982 280.462 309.002 280.533C309.023 280.603 309.029 280.677 309.02 280.75C309.028 280.863 309.028 280.977 309.02 281.09C308.92 283.31 308.417 284.873 307.51 285.78C306.992 286.307 306.332 286.672 305.61 286.83C304.545 287.05 303.457 287.148 302.37 287.12C299.84 287.12 298.25 286.81 297.59 286.19C297.09 285.72 296.84 284.71 296.84 283.19V274.64H293.08C293.108 277.398 292.34 280.106 290.87 282.44C289.59 284.44 287.373 286.063 284.22 287.31C283.99 287.401 283.752 287.471 283.51 287.52C283.33 287.52 283.12 287.27 282.85 286.77C282.396 286.029 281.841 285.356 281.2 284.77C284.38 283.96 286.65 282.66 288.02 280.85C289.242 279.021 289.867 276.859 289.81 274.66H285.81L281.89 274.72C281.71 274.72 281.6 274.72 281.57 274.66C281.546 274.565 281.546 274.465 281.57 274.37V271.9C281.57 271.76 281.57 271.67 281.63 271.64C281.724 271.597 281.827 271.58 281.93 271.59L285.85 271.65H293.51V267.22H287.57C286.896 268.223 286.155 269.179 285.35 270.08C285.03 270.43 284.82 270.61 284.7 270.61C284.58 270.61 284.37 270.43 284.01 270.08C283.469 269.541 282.849 269.089 282.17 268.74C284.141 266.909 285.705 264.685 286.76 262.21C287.131 261.432 287.383 260.603 287.51 259.75C288.49 259.978 289.452 260.276 290.39 260.64C290.73 260.79 290.89 260.95 290.89 261.11C290.88 261.205 290.849 261.297 290.799 261.378C290.749 261.46 290.681 261.529 290.6 261.58C290.356 261.837 290.172 262.144 290.06 262.48C289.99 262.62 289.9 262.83 289.78 263.1C289.54 263.65 289.36 264.04 289.24 264.29H293.51V262.57C293.536 261.416 293.463 260.261 293.29 259.12C294.71 259.19 295.81 259.28 296.6 259.37C296.94 259.37 297.11 259.52 297.11 259.72C297.067 259.932 297.004 260.14 296.92 260.34C296.749 261.009 296.688 261.701 296.74 262.39V264.29H301.65L305.92 264.23C306.08 264.23 306.17 264.23 306.2 264.3C306.23 264.37 306.25 264.44 306.25 264.59V266.93C306.25 267.103 306.23 267.203 306.19 267.23C306.102 267.255 306.008 267.255 305.92 267.23L301.65 267.17H296.74V271.6H304.79L308.71 271.54C308.87 271.54 308.97 271.54 309 271.6C309.016 271.683 309.016 271.767 309 271.85V274.28C309.012 274.383 308.995 274.487 308.95 274.58C308.867 274.624 308.773 274.642 308.68 274.63L304.76 274.57H300.1V282.1C300.033 282.619 300.128 283.146 300.37 283.61C300.63 283.9 301.37 284.05 302.62 284.05C303.546 284.159 304.479 283.912 305.23 283.36C305.72 282.9 306 281.49 306 279.19Z" fill="#11376B"/>
<path d="M325.73 279.57C325.73 279.923 325.73 280.273 325.73 280.62C325.73 280.96 325.73 281.31 325.73 281.62C325.73 281.93 325.73 282 325.73 282.12C325.743 282.225 325.733 282.331 325.701 282.431C325.668 282.532 325.613 282.624 325.54 282.7C325.331 282.834 325.106 282.941 324.87 283.02C321.783 284.22 318.523 285.307 315.09 286.28C314.743 286.379 314.407 286.517 314.09 286.69C313.947 286.808 313.774 286.884 313.59 286.91C313.43 286.91 313.3 286.76 313.2 286.47C312.91 285.395 312.689 284.303 312.54 283.2C313.16 283.13 314.09 282.98 315.34 282.74L315.99 282.62V264.52C316.001 262.937 315.931 261.355 315.78 259.78C317.13 259.78 318.26 259.89 319.17 260C319.5 260 319.67 260.15 319.67 260.34C319.648 260.565 319.588 260.785 319.49 260.99C319.281 262.134 319.214 263.299 319.29 264.46V268.62H321.72L325.38 268.56C325.61 268.56 325.73 268.66 325.73 268.86V271.35C325.745 271.457 325.724 271.566 325.67 271.66C325.575 271.684 325.475 271.684 325.38 271.66L321.72 271.6H319.29V281.7C321.476 281.114 323.626 280.403 325.73 279.57V279.57ZM337.65 264.85C338.491 265.501 339.277 266.22 340 267C340.082 267.07 340.148 267.156 340.196 267.252C340.244 267.348 340.273 267.453 340.28 267.56C340.28 267.76 340.13 267.89 339.84 267.97C339.284 268.238 338.764 268.574 338.29 268.97C336.053 270.801 333.61 272.365 331.01 273.63V281.63C330.925 282.272 331.07 282.924 331.42 283.47C332.234 283.772 333.106 283.885 333.97 283.8C334.941 283.908 335.919 283.678 336.74 283.15C337.092 282.723 337.292 282.192 337.31 281.64C337.418 280.614 337.465 279.582 337.45 278.55C338.184 278.947 338.963 279.256 339.77 279.47C340 279.51 340.218 279.598 340.41 279.73C340.507 279.863 340.55 280.027 340.53 280.19C340.53 280.27 340.53 280.38 340.53 280.54C340.513 281.813 340.325 283.077 339.97 284.3C339.784 284.902 339.417 285.433 338.92 285.82C337.987 286.487 336.287 286.82 333.82 286.82C332.65 286.848 331.48 286.785 330.32 286.63C329.765 286.548 329.234 286.351 328.76 286.05C328.395 285.807 328.112 285.458 327.95 285.05C327.775 284.463 327.697 283.852 327.72 283.24V264.85C327.745 263.137 327.665 261.423 327.48 259.72C328.603 259.734 329.724 259.804 330.84 259.93C331.25 260 331.46 260.15 331.46 260.37C331.444 260.591 331.372 260.805 331.25 260.99C331.015 262.191 330.938 263.418 331.02 264.64V270.17C332.88 269.121 334.623 267.877 336.22 266.46C336.783 266.006 337.266 265.462 337.65 264.85V264.85Z" fill="#11376B"/>
<path d="M349.31 264.32L345.31 264.38C345.15 264.38 345.06 264.38 345.02 264.32C344.996 264.228 344.996 264.132 345.02 264.04V261.89C345.006 261.78 345.027 261.668 345.08 261.57C345.163 261.526 345.257 261.508 345.35 261.52L349.35 261.58H356.86C356.89 260.654 356.813 259.728 356.63 258.82C358.09 258.86 359.2 258.92 359.96 259C360.27 259 360.43 259.14 360.43 259.34C360.398 259.536 360.334 259.725 360.24 259.9C360.133 260.453 360.093 261.017 360.12 261.58H367.84L371.79 261.52C371.97 261.52 372.08 261.52 372.11 261.6C372.134 261.695 372.134 261.795 372.11 261.89V264C372.11 264.17 372.11 264.26 372.05 264.29C371.956 264.333 371.853 264.35 371.75 264.34L367.8 264.28H358.12C358.67 264.6 359.01 264.81 359.12 264.9C359.23 264.99 359.5 265.22 359.5 265.37C359.5 265.52 359.38 265.59 359.15 265.71C358.893 265.843 358.67 266.035 358.5 266.27C357.909 267.02 357.275 267.735 356.6 268.41L358.04 269.73C358.31 269.44 358.99 268.66 360.09 267.39C360.564 266.824 360.973 266.207 361.31 265.55C362.114 265.999 362.877 266.518 363.59 267.1C363.81 267.31 363.92 267.47 363.92 267.6C363.92 267.73 363.78 267.86 363.51 267.98C363.108 268.265 362.745 268.601 362.43 268.98C360.879 270.743 359.209 272.397 357.43 273.93C358.59 273.85 360.1 273.71 361.94 273.49C361.68 273.03 361.37 272.54 361.03 272.03C360.983 271.965 360.952 271.89 360.94 271.81C360.94 271.74 361.06 271.64 361.29 271.53L362.75 270.76C362.823 270.713 362.905 270.682 362.99 270.67C363.06 270.67 363.15 270.75 363.25 270.91C364.336 272.49 365.28 274.163 366.07 275.91C366.113 275.988 366.14 276.072 366.15 276.16C366.15 276.24 366.04 276.33 365.83 276.44L364.14 277.34C364.057 277.399 363.961 277.437 363.86 277.45C363.73 277.45 363.63 277.33 363.55 277.1L362.99 275.7C360.783 276.027 358.753 276.287 356.9 276.48L359.9 276.75C360.21 276.75 360.37 276.92 360.37 277.13C360.346 277.318 360.281 277.499 360.18 277.66C360.07 278.118 360.03 278.59 360.06 279.06H368.3L372.18 279C372.35 279 372.44 279 372.47 279.06C372.488 279.149 372.488 279.241 372.47 279.33V281.61C372.47 281.77 372.47 281.87 372.47 281.9C372.47 281.93 372.35 281.9 372.19 281.9L368.31 281.84H360.07V283.92L360.13 287.22C360.144 287.324 360.123 287.43 360.07 287.52C359.975 287.546 359.875 287.546 359.78 287.52H357.11C356.95 287.52 356.85 287.52 356.82 287.46C356.796 287.365 356.796 287.265 356.82 287.17L356.88 283.87V281.79H348.98L345.09 281.85C345.046 281.855 345.001 281.85 344.959 281.835C344.918 281.82 344.88 281.796 344.849 281.764C344.818 281.732 344.795 281.693 344.781 281.651C344.767 281.609 344.764 281.564 344.77 281.52V279.24C344.779 279.181 344.806 279.127 344.847 279.084C344.888 279.041 344.942 279.012 345 279L348.89 279.06H356.79C356.807 278.206 356.74 277.351 356.59 276.51C355.257 276.637 354.337 276.717 353.83 276.75C353.441 276.808 353.062 276.915 352.7 277.07C352.558 277.136 352.406 277.176 352.25 277.19C352.09 277.19 351.97 277.04 351.87 276.75C351.684 275.994 351.55 275.225 351.47 274.45C351.01 274.76 350.35 275.17 349.47 275.69L347.64 276.81C347.286 276.973 346.966 277.204 346.7 277.49C346.54 277.71 346.39 277.81 346.25 277.81C346.158 277.813 346.068 277.789 345.99 277.741C345.912 277.693 345.849 277.623 345.81 277.54C345.41 276.75 345.01 275.82 344.59 274.76C345.293 274.53 345.978 274.249 346.64 273.92C348.345 273.133 349.99 272.22 351.56 271.19C351.696 271.772 351.883 272.341 352.12 272.89C352.216 273.136 352.29 273.391 352.34 273.65C352.34 273.79 352.19 273.96 351.9 274.17H353.16H353.49C354.09 273.67 354.95 272.89 356.07 271.81C354.759 270.527 353.366 269.332 351.9 268.23C351.75 268.14 351.68 268.05 351.68 267.98C351.695 267.87 351.752 267.769 351.84 267.7L353.11 266.36C353.27 266.18 353.4 266.09 353.49 266.09C353.581 266.104 353.665 266.146 353.73 266.21L354.57 266.83C355.2 266.08 355.66 265.51 355.95 265.11C356.121 264.854 356.275 264.587 356.41 264.31L349.31 264.32ZM347.95 265.18C349.433 266.314 350.776 267.62 351.95 269.07C352.017 269.15 352.058 269.247 352.07 269.35C352.07 269.45 351.97 269.57 351.76 269.73L350.05 271.06C349.949 271.167 349.815 271.237 349.67 271.26C349.59 271.26 349.51 271.2 349.42 271.09C348.352 269.559 347.092 268.171 345.67 266.96C345.56 266.86 345.51 266.78 345.51 266.73C345.51 266.68 345.59 266.57 345.76 266.43L347.31 265.21C347.408 265.125 347.524 265.063 347.65 265.03C347.716 265.027 347.782 265.039 347.842 265.065C347.903 265.091 347.957 265.13 348 265.18H347.95ZM368.95 264.67C369.95 265.42 370.69 266.01 371.19 266.46C371.34 266.608 371.426 266.809 371.43 267.02C371.43 267.22 371.27 267.36 370.96 267.43C370.564 267.552 370.197 267.753 369.88 268.02C368.881 268.808 367.843 269.546 366.77 270.23C366.538 270.415 366.274 270.554 365.99 270.64C365.82 270.64 365.6 270.42 365.34 269.98C364.983 269.475 364.563 269.018 364.09 268.62C365.397 267.85 366.638 266.974 367.8 266C368.26 265.615 368.664 265.167 369 264.67H368.95ZM366.86 270.97C368.793 272.084 370.618 273.376 372.31 274.83C372.382 274.914 372.434 275.013 372.46 275.12C372.446 275.243 372.393 275.359 372.31 275.45L370.72 277.2C370.675 277.266 370.615 277.322 370.546 277.364C370.477 277.405 370.4 277.431 370.32 277.44C370.182 277.415 370.057 277.34 369.97 277.23C368.53 275.632 366.874 274.242 365.05 273.1C364.91 272.99 364.84 272.9 364.84 272.84C364.84 272.78 364.91 272.68 365.07 272.51L366.3 271.09C366.42 270.94 366.52 270.87 366.6 270.87C366.707 270.887 366.807 270.932 366.89 271L366.86 270.97Z" fill="#11376B"/>
<path d="M386.25 301.24H204.25V245.94H386.25V301.24ZM206.25 299.24H384.25V247.94H206.25V299.24Z" fill="#11376B"/>
<path d="M29.6699 429C29.2856 429.582 28.9702 430.206 28.7299 430.86C28.6707 431.056 28.5867 431.245 28.4799 431.42C28.4412 431.466 28.3918 431.502 28.336 431.525C28.2803 431.547 28.2198 431.556 28.1599 431.55H27.6899C24.4617 431.138 21.3403 430.12 18.4899 428.55C15.6559 429.971 12.6206 430.949 9.48993 431.45C9.31921 431.487 9.14464 431.504 8.96993 431.5C8.77993 431.5 8.59993 431.29 8.42993 430.86C8.17588 430.235 7.83958 429.646 7.42993 429.11C10.4741 428.815 13.4552 428.056 16.2699 426.86C14.9341 425.622 13.8153 424.168 12.9599 422.56H11.3799C11.3016 422.583 11.2183 422.583 11.1399 422.56C11.1229 422.488 11.1229 422.412 11.1399 422.34V420.53C11.1399 420.41 11.1399 420.33 11.1899 420.3C11.2623 420.283 11.3376 420.283 11.4099 420.3L14.7699 420.35H22.7699C22.996 420.356 23.2217 420.329 23.4399 420.27C23.5387 420.226 23.643 420.196 23.7499 420.18C23.9499 420.18 24.3399 420.47 24.9199 421.05C25.3899 421.5 25.6299 421.84 25.6299 422.05C25.6299 422.26 25.5299 422.33 25.3299 422.45C25.014 422.678 24.7399 422.959 24.5199 423.28C23.4985 424.703 22.2757 425.969 20.8899 427.04C23.6965 428.147 26.659 428.808 29.6699 429V429ZM13.4999 413.36C14.0122 414.222 14.46 415.122 14.8399 416.05H17.5699C17.3522 415.262 17.0713 414.493 16.7299 413.75C16.7011 413.698 16.684 413.64 16.6799 413.58C16.6799 413.49 16.7799 413.4 16.9799 413.34L18.4899 412.87L18.7399 412.82C18.8299 412.82 18.9099 412.89 18.9799 413.01C19.42 413.971 19.7552 414.977 19.9799 416.01H21.6299C22.1671 415.204 22.6483 414.362 23.0699 413.49C23.2282 413.102 23.3488 412.701 23.4299 412.29C24.1584 412.497 24.876 412.741 25.5799 413.02C25.8299 413.12 25.9499 413.24 25.9499 413.4C25.9499 413.56 25.8599 413.63 25.6899 413.82C25.4668 414.042 25.2811 414.299 25.1399 414.58C24.8099 415.21 24.5499 415.68 24.3499 416.01H25.4099H28.6399C28.7799 416.01 28.8599 416.01 28.8799 416.01C28.901 416.082 28.901 416.158 28.8799 416.23L28.8299 417.47V419L28.8799 421.3C28.8982 421.376 28.8982 421.454 28.8799 421.53C28.8011 421.549 28.7188 421.549 28.6399 421.53H26.6399C26.4999 421.53 26.4199 421.53 26.3999 421.53C26.3825 421.458 26.3825 421.382 26.3999 421.31V418.44H10.3999V421.31C10.3999 421.44 10.3999 421.52 10.3499 421.54C10.2744 421.558 10.1955 421.558 10.1199 421.54H8.11993C8.03874 421.567 7.95112 421.567 7.86993 421.54C7.85393 421.468 7.85393 421.392 7.86993 421.32L7.91993 418.99V417.75L7.86993 416.34C7.85955 416.26 7.87721 416.179 7.91993 416.11C7.99567 416.093 8.07419 416.093 8.14993 416.11H11.3799H12.2699C12.0072 415.459 11.6929 414.831 11.3299 414.23C11.283 414.175 11.2488 414.11 11.2299 414.04C11.2299 413.98 11.3299 413.91 11.5199 413.85L12.9599 413.27C13.0391 413.236 13.1237 413.215 13.2099 413.21C13.3233 413.17 13.4199 413.22 13.4999 413.36ZM25.3999 409C26.0439 409.5 26.6367 410.063 27.1699 410.68C27.3217 410.815 27.4209 410.999 27.4499 411.2C27.4499 411.37 27.3199 411.45 27.0499 411.45C26.6545 411.451 26.2598 411.484 25.8699 411.55C22.9799 411.96 20.5499 412.25 18.5599 412.43C15.7599 412.69 12.9399 412.88 10.0799 412.98H9.87993C9.81204 412.989 9.74303 412.98 9.67984 412.953C9.61664 412.927 9.56149 412.884 9.51993 412.83C9.43136 412.636 9.35781 412.435 9.29993 412.23C9.09894 411.688 8.84082 411.168 8.52993 410.68C11.5299 410.68 14.5999 410.51 17.7899 410.23C20.0299 410.03 21.8699 409.8 23.3299 409.54C24.0299 409.401 24.721 409.22 25.3999 409V409ZM21.8899 422.51H15.6199C16.3802 423.718 17.3605 424.773 18.5099 425.62C19.8208 424.787 20.9667 423.719 21.8899 422.47V422.51Z" fill="#121212"/>
<path d="M35.13 413.33H38.5L41.15 413.28C41.2331 413.273 41.3165 413.29 41.39 413.33C41.4065 413.399 41.4065 413.471 41.39 413.54V415.31C41.4141 415.392 41.4141 415.478 41.39 415.56C41.3142 415.577 41.2357 415.577 41.16 415.56L38.51 415.51H35.13L32.47 415.56C32.36 415.56 32.29 415.56 32.27 415.5C32.2528 415.424 32.2528 415.346 32.27 415.27V413.5C32.27 413.33 32.35 413.24 32.51 413.24L35.13 413.33ZM40.71 430.91C40.71 431.04 40.71 431.12 40.66 431.15C40.5851 431.174 40.5048 431.174 40.43 431.15H38.64C38.5 431.15 38.42 431.15 38.4 431.1C38.3762 431.025 38.3762 430.945 38.4 430.87V430.21H35.62V431.34C35.62 431.51 35.53 431.6 35.34 431.6H33.55C33.5121 431.622 33.4684 431.631 33.4249 431.627C33.3815 431.623 33.3403 431.606 33.3073 431.577C33.2743 431.548 33.251 431.51 33.2408 431.468C33.2305 431.425 33.2337 431.381 33.25 431.34V427.62V426V423.69C33.25 423.55 33.27 423.47 33.31 423.45C33.31 423.45 33.42 423.45 33.55 423.45H35.79H38.17H40.43C40.5111 423.423 40.5988 423.423 40.68 423.45C40.6968 423.526 40.6968 423.604 40.68 423.68L40.63 425.57V427.34L40.71 430.91ZM35.86 409.91H38.24L40.46 409.86C40.6 409.86 40.69 409.86 40.71 409.91C40.7336 409.981 40.7336 410.059 40.71 410.13V411.79C40.71 411.91 40.71 411.97 40.65 412C40.5709 412.017 40.489 412.017 40.41 412H38.19H35.86H33.62C33.43 412 33.34 411.92 33.34 411.76V410.1C33.34 409.97 33.34 409.89 33.34 409.87C33.4155 409.852 33.4944 409.852 33.57 409.87L35.86 409.91ZM35.94 416.77H38H40.08C40.1646 416.744 40.2553 416.744 40.34 416.77C40.34 416.77 40.34 416.86 40.34 416.96V418.58C40.34 418.71 40.34 418.78 40.28 418.81C40.2009 418.827 40.119 418.827 40.04 418.81L38 418.86H35.94L33.84 418.91C33.71 418.91 33.63 418.91 33.61 418.86C33.59 418.81 33.61 418.76 33.61 418.65V417C33.61 416.84 33.7 416.76 33.88 416.76L35.94 416.77ZM35.94 420.08H38L40.08 420.03C40.1697 420.02 40.2605 420.037 40.34 420.08C40.3637 420.155 40.3637 420.235 40.34 420.31V421.89C40.34 422.017 40.32 422.097 40.28 422.13C40.2011 422.149 40.1188 422.149 40.04 422.13L38 422.14H35.94L33.84 422.21C33.71 422.21 33.63 422.21 33.61 422.21C33.588 422.135 33.588 422.055 33.61 421.98V420.4C33.61 420.26 33.61 420.18 33.61 420.16C33.61 420.14 33.71 420.16 33.83 420.16L35.94 420.08ZM38.36 425.47H35.62V428.18H38.36V425.47ZM54.29 417.86H54.44C54.5 417.86 54.54 417.95 54.56 418.12L54.73 419.99C54.7274 420.033 54.7274 420.077 54.73 420.12C54.73 420.24 54.65 420.3 54.5 420.32C53.59 420.41 52.5 420.53 51.27 420.69L47.81 421.16V427.53C47.7896 427.791 47.8237 428.053 47.91 428.3C47.98 428.426 48.0939 428.522 48.23 428.57C48.7065 428.691 49.199 428.739 49.69 428.71C50.2517 428.744 50.8128 428.634 51.32 428.39C51.4635 428.264 51.5807 428.111 51.6648 427.939C51.7489 427.767 51.7982 427.581 51.81 427.39C51.9001 426.634 51.9402 425.872 51.93 425.11C52.4975 425.458 53.1098 425.727 53.75 425.91C53.9433 425.946 54.125 426.029 54.28 426.15C54.3198 426.196 54.3494 426.251 54.3666 426.309C54.3839 426.368 54.3884 426.429 54.38 426.49C54.38 426.54 54.38 426.63 54.38 426.74C54.3701 427.627 54.2389 428.509 53.99 429.36C53.8398 429.774 53.5807 430.141 53.24 430.42C52.6 430.95 51.34 431.21 49.47 431.21C48.3598 431.309 47.2421 431.141 46.21 430.72C45.8432 430.465 45.5551 430.113 45.3784 429.703C45.2016 429.293 45.1433 428.842 45.21 428.4V421.53H44.94C44.03 421.64 43.23 421.74 42.53 421.85L41.75 421.96H41.64C41.53 421.96 41.47 421.87 41.46 421.7L41.28 419.7V419.58C41.28 419.48 41.36 419.42 41.53 419.4H41.98C42.76 419.34 43.68 419.25 44.74 419.13L45.21 419.08V414.3C44.67 414.43 44.05 414.56 43.35 414.7C43.1787 414.737 43.0049 414.76 42.83 414.77C42.7704 414.773 42.7113 414.758 42.6599 414.728C42.6085 414.698 42.5668 414.653 42.54 414.6C42.4586 414.443 42.3917 414.279 42.34 414.11C42.172 413.531 41.9157 412.981 41.58 412.48C44.5614 412.031 47.4743 411.208 50.25 410.03C50.7015 409.825 51.1305 409.574 51.53 409.28C52.1457 409.803 52.7146 410.378 53.23 411C53.3323 411.117 53.3922 411.265 53.4 411.42C53.4 411.6 53.26 411.71 52.98 411.73C52.7052 411.789 52.4346 411.866 52.17 411.96C50.7538 412.59 49.3012 413.134 47.82 413.59V418.73L51.07 418.31L53.5 418L54.29 417.86Z" fill="#121212"/>
<path d="M64.6701 409.65H67.1601C67.3301 409.65 67.4101 409.74 67.4101 409.93V412.29V415.2V417.55C67.4101 417.73 67.3301 417.82 67.1601 417.82H64.6701H60.6201V426L60.6701 431.33C60.6701 431.47 60.6701 431.55 60.6201 431.57C60.5478 431.587 60.4724 431.587 60.4001 431.57H58.2901C58.2131 431.58 58.1353 431.562 58.0701 431.52C58.0701 431.52 58.0701 431.42 58.0701 431.29V425.96V415.25V409.88C58.0701 409.74 58.0701 409.66 58.0701 409.64C58.0701 409.62 58.1701 409.64 58.2901 409.64H61.2201L64.6701 409.65ZM64.9401 411.48H60.6201V412.88H64.9401V411.48ZM64.9401 415.97V414.53H60.6201V416L64.9401 415.97ZM61.9401 429.63C62.6099 429.239 63.1931 428.715 63.6538 428.091C64.1146 427.467 64.4434 426.755 64.6201 426V425.56H62.5301H62.0801H62.0001C61.8734 425.56 61.7934 425.54 61.7601 425.5C61.7442 425.424 61.7442 425.346 61.7601 425.27V423.77C61.7601 423.64 61.7601 423.57 61.7601 423.54C61.8359 423.524 61.9142 423.524 61.9901 423.54H64.8001C64.8001 422.72 64.8001 421.98 64.8001 421.3H63.1401H62.6301C62.4901 421.3 62.4001 421.3 62.3801 421.25C62.3601 421.2 62.3301 421.15 62.3301 421.03V419.53C62.3301 419.39 62.3301 419.31 62.3901 419.28C62.4691 419.263 62.551 419.263 62.6301 419.28L65.7201 419.33H71.0001L74.0901 419.28C74.1734 419.27 74.2578 419.287 74.3301 419.33C74.3469 419.406 74.3469 419.484 74.3301 419.56V421.06C74.3301 421.19 74.3301 421.27 74.3301 421.29C74.255 421.312 74.1752 421.312 74.1001 421.29H73.8001H71.8001V423.53H74.6101C74.7401 423.53 74.8201 423.53 74.8501 423.53C74.8712 423.602 74.8712 423.678 74.8501 423.75V425.25C74.8692 425.329 74.8692 425.411 74.8501 425.49C74.7778 425.533 74.6934 425.55 74.6101 425.54L71.8001 425.49V427.78V430.46C71.8254 430.541 71.8254 430.629 71.8001 430.71C71.7245 430.728 71.6456 430.728 71.5701 430.71H69.8101C69.6701 430.71 69.5901 430.71 69.5701 430.66C69.5501 430.61 69.5701 430.55 69.5701 430.42V427.74V425.45H67.0001C66.9401 425.91 66.8901 426.26 66.8301 426.51C66.4861 428.098 65.6704 429.544 64.4901 430.66C64.3554 430.804 64.1962 430.922 64.0201 431.01C63.9267 431.01 63.7367 430.86 63.4501 430.56C63.0117 430.185 62.5238 429.872 62.0001 429.63H61.9401ZM67.1001 423.63H69.5401V421.39H67.1901C67.1901 422 67.1801 422.75 67.1401 423.6L67.1001 423.63ZM73.3301 428.76C73.9232 428.841 74.5213 428.882 75.1201 428.88C75.4225 428.917 75.7275 428.834 75.9701 428.65C76.1018 428.434 76.1613 428.182 76.1401 427.93V417.72H72.1401H69.4201C69.3354 417.746 69.2448 417.746 69.1601 417.72C69.1378 417.648 69.1378 417.572 69.1601 417.5V415.35V412.05V409.88C69.1601 409.74 69.1801 409.66 69.2201 409.64C69.2201 409.64 69.3301 409.64 69.4601 409.64H72.1801H75.8001H78.5401C78.6701 409.64 78.7501 409.64 78.7701 409.64C78.7938 409.715 78.7938 409.795 78.7701 409.87V413.25V423.83L78.8701 428.35C78.888 428.846 78.8307 429.341 78.7001 429.82C78.5958 430.131 78.4092 430.407 78.1601 430.62C77.8116 430.904 77.3941 431.09 76.9501 431.16C76.2681 431.259 75.5791 431.303 74.8901 431.29C74.4901 431.29 74.2501 431.29 74.1801 431.17C74.061 430.977 73.9923 430.757 73.9801 430.53C73.8675 429.903 73.6619 429.296 73.3701 428.73L73.3301 428.76ZM76.1401 411.51H71.5401V412.91H76.1401V411.51ZM76.1401 416V414.56H71.5401V416H76.1401Z" fill="#121212"/>
<path d="M101.27 426.1C101.787 426.422 102.355 426.656 102.95 426.79C103.138 426.826 103.32 426.89 103.49 426.98C103.533 427.015 103.566 427.059 103.587 427.11C103.608 427.16 103.616 427.215 103.61 427.27C103.617 427.39 103.617 427.51 103.61 427.63C103.533 428.334 103.358 429.024 103.09 429.68C102.919 430.058 102.641 430.378 102.29 430.6C101.175 431.105 99.9494 431.315 98.73 431.21C96.73 431.21 95.43 431.03 94.91 430.67C94.6134 430.487 94.3878 430.208 94.27 429.88C94.1656 429.462 94.1218 429.031 94.14 428.6V424.52H91.14C90.8642 426.171 90.0649 427.689 88.86 428.85C87.5658 429.936 86.0757 430.764 84.47 431.29C84.2945 431.36 84.114 431.417 83.93 431.46C83.79 431.46 83.61 431.25 83.38 430.84C83.0695 430.232 82.6452 429.688 82.13 429.24C83.7571 428.896 85.3022 428.241 86.68 427.31C87.5586 426.594 88.1857 425.617 88.47 424.52H86.55L83.24 424.57C83.1503 424.58 83.0595 424.563 82.98 424.52C82.98 424.52 82.98 424.42 82.98 424.3V422.52C82.98 422.39 82.98 422.31 83.04 422.29C83.1 422.27 83.15 422.29 83.28 422.29L86.59 422.34H88.82C88.82 421.62 88.82 421.01 88.82 420.53V419.69H87.6H87.21C87.1203 419.7 87.0295 419.683 86.95 419.64C86.9277 419.568 86.9277 419.492 86.95 419.42V418.48C85.8854 419.152 84.7837 419.763 83.65 420.31C83.4669 420.403 83.2717 420.47 83.07 420.51C82.94 420.51 82.76 420.29 82.55 419.87C82.2876 419.366 81.9504 418.904 81.55 418.5C83.1389 417.894 84.666 417.138 86.11 416.24C85.3456 415.371 84.5093 414.568 83.61 413.84C83.48 413.73 83.42 413.65 83.42 413.58C83.42 413.51 83.48 413.47 83.61 413.37L84.85 412.37C84.9279 412.293 85.0244 412.238 85.13 412.21C85.2117 412.227 85.2875 412.265 85.35 412.32C86.2923 413.099 87.1872 413.934 88.03 414.82C89.0824 413.966 90.0142 412.974 90.8 411.87H88L85.41 411.92C85.27 411.92 85.18 411.92 85.16 411.87C85.1364 411.802 85.1364 411.728 85.16 411.66V410C85.16 409.87 85.16 409.8 85.22 409.77C85.2991 409.753 85.381 409.753 85.46 409.77L88.05 409.82H91.47L93.71 409.77C93.8031 409.768 93.8943 409.796 93.9701 409.85C94.0458 409.904 94.1019 409.981 94.13 410.07C94.3964 410.832 94.7811 411.548 95.27 412.19C95.3785 412.356 95.4954 412.516 95.62 412.67C96.1483 412.16 96.627 411.6 97.05 411C97.3079 410.687 97.5387 410.352 97.74 410C98.397 410.335 99.0316 410.713 99.64 411.13C99.7144 411.167 99.7782 411.222 99.8254 411.29C99.8726 411.358 99.9017 411.437 99.91 411.52C99.91 411.67 99.8 411.8 99.58 411.89C99.2656 412.062 98.9845 412.289 98.75 412.56C98.14 413.2 97.57 413.75 97.05 414.2C97.65 414.72 98.05 415.1 98.4 415.33C99.1535 414.7 99.8588 414.015 100.51 413.28C100.773 412.949 101.004 412.594 101.2 412.22C101.99 412.65 102.63 413.03 103.12 413.35C103.202 413.389 103.272 413.447 103.325 413.521C103.377 413.595 103.41 413.68 103.42 413.77C103.42 413.92 103.31 414.03 103.09 414.11C102.764 414.277 102.475 414.508 102.24 414.79C101.69 415.33 101.05 415.91 100.33 416.54C101.609 417.218 102.948 417.777 104.33 418.21C103.97 418.695 103.671 419.222 103.44 419.78C103.26 420.21 103.1 420.42 102.97 420.42C102.772 420.396 102.579 420.339 102.4 420.25C101.081 419.687 99.8105 419.018 98.6 418.25V419.42C98.6 419.55 98.6 419.63 98.6 419.65C98.5245 419.668 98.4456 419.668 98.37 419.65H97.83H96.65V422.3H99.14L102.47 422.25C102.556 422.242 102.643 422.259 102.72 422.3C102.736 422.372 102.736 422.448 102.72 422.52V424.3C102.744 424.375 102.744 424.455 102.72 424.53C102.641 424.549 102.559 424.549 102.48 424.53L99.15 424.48H96.63V427.81C96.6076 427.965 96.6193 428.123 96.6642 428.274C96.7091 428.424 96.7861 428.563 96.89 428.68C97.4635 428.911 98.0853 428.997 98.7 428.93C99.3926 429.023 100.096 428.882 100.7 428.53C101.135 427.798 101.334 426.949 101.27 426.1ZM93 412.51C91.772 414.449 90.1955 416.145 88.35 417.51H97.47C95.6659 416.153 94.1469 414.454 93 412.51V412.51ZM91.35 422.3H94.11V419.65H91.39V420.49C91.39 420.93 91.38 421.54 91.35 422.3Z" fill="#121212"/>
<path d="M316.31 528.47H314.31C314.2 528.47 314.13 528.47 314.1 528.47C314.081 528.398 314.081 528.322 314.1 528.25L314.15 520.61V516.29L314.1 510.48C314.09 510.403 314.108 510.325 314.15 510.26C314.222 510.243 314.298 510.243 314.37 510.26H317.61H319.13C319.472 509.552 319.762 508.82 320 508.07C320.114 507.708 320.198 507.336 320.25 506.96C320.89 507.02 321.72 507.14 322.75 507.32C322.97 507.36 323.08 507.46 323.08 507.62C323.065 507.746 323 507.861 322.9 507.94C322.752 508.105 322.633 508.294 322.55 508.5C322.26 509.18 321.99 509.77 321.73 510.26H326.29H329.55C329.67 510.26 329.74 510.26 329.77 510.26C329.786 510.329 329.786 510.401 329.77 510.47V515.65V520.58V528.19C329.794 528.265 329.794 528.345 329.77 528.42C329.701 528.435 329.629 528.435 329.56 528.42H327.48C327.35 528.42 327.27 528.42 327.25 528.42C327.233 528.351 327.233 528.279 327.25 528.21V527.21H316.57V528.31C316.58 528.387 316.562 528.465 316.52 528.53C316.52 528.53 316.42 528.47 316.31 528.47ZM316.57 512.47V515H327.13V512.45L316.57 512.47ZM316.57 519.83H327.13V517.23H316.57V519.83ZM316.57 524.83H327.13V522.02H316.57V524.83Z" fill="#121212"/>
<path d="M334 520.08C335.448 519.172 336.746 518.045 337.85 516.74C338.771 515.661 339.532 514.455 340.11 513.16H337.46H334.98C334.905 513.184 334.825 513.184 334.75 513.16C334.733 513.091 334.733 513.019 334.75 512.95V511.22C334.75 511.09 334.75 511.02 334.81 510.99C334.87 510.96 334.9 510.99 335.01 510.99L337.49 511.05H337.94V510.05C337.963 509.093 337.899 508.136 337.75 507.19C338.59 507.19 339.4 507.27 340.19 507.35C340.44 507.35 340.57 507.46 340.57 507.59C340.552 507.763 340.505 507.932 340.43 508.09C340.283 508.698 340.233 509.326 340.28 509.95V511H341.28C341.436 511.01 341.592 510.975 341.73 510.9C341.81 510.853 341.898 510.823 341.99 510.81C342.137 510.81 342.427 511.01 342.86 511.41C343.28 511.83 343.49 512.11 343.49 512.26C343.482 512.335 343.457 512.407 343.417 512.471C343.378 512.535 343.324 512.59 343.26 512.63C343.046 512.83 342.861 513.059 342.71 513.31C342.142 514.505 341.473 515.649 340.71 516.73C341.706 517.818 342.867 518.742 344.15 519.47C343.754 519.921 343.436 520.434 343.21 520.99C343.05 521.33 342.91 521.5 342.77 521.5C342.588 521.458 342.423 521.36 342.3 521.22C341.571 520.553 340.902 519.824 340.3 519.04V525.63V528.38C340.324 528.455 340.324 528.535 340.3 528.61C340.221 528.626 340.139 528.626 340.06 528.61H338.19C338.06 528.61 337.98 528.61 337.95 528.61C337.928 528.538 337.928 528.462 337.95 528.39L338 525.64V520C337.295 520.69 336.551 521.337 335.77 521.94C335.633 522.081 335.466 522.187 335.28 522.25C335.18 522.25 335.06 522.07 334.91 521.71C334.687 521.125 334.381 520.576 334 520.08V520.08ZM345.72 527.76H342.58C342.509 527.785 342.431 527.785 342.36 527.76C342.344 527.694 342.344 527.626 342.36 527.56V525.7C342.36 525.58 342.36 525.51 342.36 525.48C342.429 525.462 342.501 525.462 342.57 525.48H345.71H347.71V516.74H346.66H343.71C343.641 516.757 343.569 516.757 343.5 516.74C343.483 516.671 343.483 516.599 343.5 516.53V514.68C343.5 514.56 343.5 514.5 343.5 514.47C343.566 514.46 343.634 514.46 343.7 514.47H346.65H347.7V510.75C347.723 509.57 347.659 508.39 347.51 507.22C348.51 507.22 349.39 507.3 350.11 507.38C350.36 507.38 350.49 507.49 350.49 507.62C350.49 507.79 350.448 507.958 350.37 508.11C350.183 508.953 350.119 509.819 350.18 510.68V514.47H351.65H354.6C354.676 514.452 354.754 514.452 354.83 514.47C354.847 514.536 354.847 514.604 354.83 514.67V516.52C354.83 516.64 354.83 516.71 354.77 516.74C354.704 516.75 354.636 516.75 354.57 516.74H351.62H350.15V525.48H352.27H355.39C355.468 525.454 355.552 525.454 355.63 525.48C355.648 525.549 355.648 525.621 355.63 525.69V527.55C355.63 527.67 355.63 527.74 355.58 527.76C355.504 527.778 355.426 527.778 355.35 527.76H352.23H345.72Z" fill="#121212"/>
<path d="M374 513.56H374.83C376.11 513.56 377.28 513.56 378.36 513.49H378.41C378.57 513.49 378.66 513.62 378.69 513.87C378.72 514.12 378.69 514.47 378.69 514.78C378.69 515.09 378.69 515.41 378.69 515.71C378.69 516.01 378.56 516.08 378.38 516.08H378.29H374.92H373.92C373.883 517.557 373.685 519.026 373.33 520.46C373.055 521.455 372.645 522.407 372.11 523.29C370.795 525.305 368.856 526.833 366.59 527.64C366.383 527.745 366.16 527.816 365.93 527.85C365.759 527.821 365.605 527.728 365.5 527.59C364.947 527.001 364.285 526.526 363.55 526.19C365.019 525.777 366.418 525.147 367.7 524.32C368.567 523.715 369.305 522.944 369.87 522.05C370.35 521.222 370.688 520.319 370.87 519.38C371.083 518.293 371.194 517.188 371.2 516.08H366.2V516.93C366.2 518.69 366.2 519.98 366.27 520.8C366.27 521 366.15 521.11 365.87 521.13C365.59 521.15 365.24 521.13 364.87 521.13C364.5 521.13 364.16 521.13 363.87 521.13C363.58 521.13 363.45 521.02 363.45 520.86V520.8C363.53 519.47 363.57 518.2 363.57 516.97V516.08H362.86C361.51 516.08 360.22 516.08 359 516.19C358.84 516.19 358.75 516.05 358.73 515.75C358.71 515.45 358.63 514.75 358.57 513.49C359.66 513.56 361.09 513.6 362.86 513.6H363.57V511.9C363.577 510.747 363.483 509.596 363.29 508.46C364.247 508.52 365.199 508.644 366.14 508.83C366.38 508.87 366.5 508.98 366.5 509.16C366.474 509.329 366.427 509.493 366.36 509.65C366.204 510.389 366.147 511.146 366.19 511.9V513.6H371.19V511.31C371.19 511.2 371.19 511.04 371.19 510.82C371.209 509.912 371.135 509.004 370.97 508.11C371.895 508.179 372.814 508.312 373.72 508.51C374 508.57 374.14 508.69 374.14 508.87C374.131 509.015 374.097 509.157 374.04 509.29C373.875 509.963 373.811 510.658 373.85 511.35L374 513.56Z" fill="#121212"/>
<path d="M382.16 516.51C383.818 516.724 385.489 516.817 387.16 516.79H394.7H397.56H400.09H400.2C400.41 516.79 400.51 516.9 400.51 517.12C400.51 517.34 400.51 517.85 400.51 518.23C400.51 518.61 400.51 518.97 400.51 519.33C400.51 519.69 400.4 519.68 400.18 519.68H400.09C397.75 519.68 396.01 519.68 394.86 519.68H386.44L383 519.96C382.933 519.963 382.866 519.952 382.803 519.929C382.74 519.906 382.683 519.87 382.633 519.825C382.584 519.779 382.544 519.725 382.516 519.664C382.488 519.603 382.472 519.537 382.47 519.47C382.299 518.492 382.195 517.503 382.16 516.51V516.51Z" fill="#121212"/>
<path d="M409.09 516.13C411.043 515.5 412.954 514.746 414.81 513.87C415.734 513.454 416.58 512.882 417.31 512.18C418.037 512.801 418.688 513.506 419.25 514.28C419.358 514.395 419.425 514.543 419.44 514.7C419.44 514.92 419.3 515.06 419.04 515.12C418.357 515.335 417.688 515.596 417.04 515.9C414.442 517.046 411.769 518.015 409.04 518.8V521.91C409.01 522.325 409.071 522.741 409.22 523.13C409.358 523.35 409.577 523.508 409.83 523.57C410.796 523.775 411.783 523.862 412.77 523.83C414.98 523.818 417.187 523.637 419.37 523.29H419.52C419.68 523.29 419.77 523.41 419.79 523.63C419.88 524.5 419.93 525.18 419.93 525.63C419.93 525.89 419.77 526.03 419.44 526.05C417.134 526.332 414.813 526.472 412.49 526.47C410.977 526.543 409.463 526.33 408.03 525.84C406.93 525.38 406.38 524.21 406.38 522.34V513.7C406.405 512.266 406.328 510.833 406.15 509.41C407.142 509.503 408.128 509.66 409.1 509.88C409.35 509.95 409.47 510.08 409.47 510.26C409.46 510.435 409.405 510.603 409.31 510.75C409.098 511.429 409.017 512.141 409.07 512.85L409.09 516.13ZM417.64 510.23L418.88 509.37C418.914 509.334 418.96 509.312 419.01 509.31C419.093 509.316 419.171 509.352 419.23 509.41C420.106 510.116 420.856 510.964 421.45 511.92C421.483 511.968 421.503 512.023 421.51 512.08C421.508 512.123 421.495 512.165 421.473 512.202C421.45 512.239 421.418 512.269 421.38 512.29L420.38 513.02C420.331 513.065 420.266 513.09 420.2 513.09C420.155 513.085 420.113 513.068 420.076 513.042C420.039 513.016 420.01 512.981 419.99 512.94C419.344 511.926 418.552 511.013 417.64 510.23ZM419.79 508.69L420.96 507.85C421.001 507.818 421.049 507.798 421.1 507.79C421.179 507.799 421.253 507.834 421.31 507.89C422.193 508.552 422.949 509.368 423.54 510.3C423.578 510.361 423.602 510.429 423.61 510.5C423.606 510.548 423.59 510.594 423.564 510.634C423.538 510.674 423.502 510.707 423.46 510.73L422.53 511.46C422.473 511.497 422.407 511.517 422.34 511.52C422.295 511.518 422.252 511.505 422.215 511.48C422.178 511.455 422.148 511.421 422.13 511.38C421.504 510.36 420.713 509.452 419.79 508.69V508.69Z" fill="#121212"/>
<path d="M437.89 518.22C440.192 519.938 442.358 521.83 444.37 523.88C444.471 523.962 444.535 524.081 444.55 524.21C444.538 524.339 444.482 524.459 444.39 524.55C443.916 525.129 443.39 525.665 442.82 526.15C442.747 526.229 442.647 526.279 442.54 526.29C442.41 526.271 442.292 526.203 442.21 526.1C440.377 523.973 438.341 522.031 436.13 520.3C433.827 522.734 431.179 524.817 428.27 526.48C428.1 526.565 427.918 526.626 427.73 526.66C427.652 526.661 427.576 526.643 427.506 526.608C427.436 526.573 427.376 526.523 427.33 526.46C426.77 525.824 426.09 525.304 425.33 524.93C427.026 524.089 428.645 523.102 430.17 521.98C431.377 521.07 432.51 520.067 433.56 518.98C435.263 517.212 436.741 515.24 437.96 513.11H431.96C430.76 513.11 429.52 513.11 428.26 513.26C428.1 513.26 428 513.14 427.95 512.86C427.79 512.06 427.72 511.245 427.74 510.43C428.58 510.49 429.913 510.52 431.74 510.52H438.17C438.716 510.565 439.266 510.49 439.78 510.3C439.855 510.242 439.946 510.211 440.04 510.21C440.185 510.24 440.322 510.301 440.44 510.39C441.02 510.868 441.531 511.423 441.96 512.04C442.025 512.128 442.066 512.231 442.08 512.34C442.068 512.435 442.033 512.527 441.979 512.607C441.926 512.686 441.854 512.753 441.77 512.8C441.438 513.091 441.148 513.428 440.91 513.8C440.002 515.338 438.993 516.815 437.89 518.22V518.22Z" fill="#121212"/>
<path d="M454.07 507.82H456.42C456.58 507.82 456.66 507.91 456.66 508.08V510.32V513V515.23C456.66 515.4 456.58 515.48 456.42 515.48H454.07H450.23V523.29V528.34C450.23 528.47 450.23 528.55 450.23 528.57C450.164 528.586 450.096 528.586 450.03 528.57H448.03C447.91 528.57 447.84 528.57 447.81 528.57C447.79 528.498 447.79 528.422 447.81 528.35L447.86 523.3V513.12L447.81 508.04C447.81 507.91 447.81 507.83 447.86 507.81C447.932 507.793 448.008 507.793 448.08 507.81H450.85L454.07 507.82ZM454.32 509.56H450.23V510.88H454.32V509.56ZM454.32 513.81V512.45H450.23V513.81H454.32ZM451.52 526.81C452.145 526.433 452.689 525.934 453.118 525.343C453.547 524.752 453.854 524.081 454.02 523.37L454.07 522.94H452.07H451.5C451.38 522.94 451.3 522.94 451.27 522.88C451.253 522.811 451.253 522.739 451.27 522.67V521.25C451.27 521.13 451.27 521.05 451.32 521.03C451.389 521.013 451.461 521.013 451.53 521.03H454.19C454.19 520.26 454.24 519.55 454.24 518.91C453.66 518.91 453.14 518.91 452.66 518.91H452.18C452.05 518.91 451.97 518.91 451.94 518.91C451.91 518.91 451.94 518.81 451.94 518.7V517.27C451.94 517.14 451.94 517.07 452 517.04C452.072 517.023 452.148 517.023 452.22 517.04L455.15 517.09H460.15L463 517C463.08 516.991 463.161 517.009 463.23 517.05C463.247 517.119 463.247 517.191 463.23 517.26V518.69C463.23 518.81 463.23 518.89 463.23 518.91C463.157 518.925 463.083 518.925 463.01 518.91H462.72C462.14 518.91 461.52 518.91 460.86 518.91V521H463.52C463.595 520.976 463.675 520.976 463.75 521C463.767 521.069 463.767 521.141 463.75 521.21V522.63C463.75 522.75 463.75 522.82 463.75 522.85C463.75 522.88 463.65 522.9 463.53 522.9L460.87 522.85V525.02L460.92 527.56C460.93 527.643 460.913 527.728 460.87 527.8C460.798 527.819 460.722 527.819 460.65 527.8H458.93C458.8 527.8 458.72 527.8 458.7 527.8C458.682 527.724 458.682 527.646 458.7 527.57L458.75 525.03V522.86H456.29C456.257 523.196 456.204 523.53 456.13 523.86C455.816 525.366 455.044 526.739 453.92 527.79C453.67 528.01 453.53 528.12 453.47 528.12C453.41 528.12 453.21 527.98 452.94 527.7C452.515 527.319 452.037 527.002 451.52 526.76V526.81ZM456.41 521.09H458.72V518.97H456.46C456.46 519.53 456.44 520.24 456.41 521V521.09ZM462.31 525.95C462.874 526.023 463.442 526.06 464.01 526.06C464.294 526.096 464.58 526.02 464.81 525.85C464.939 525.644 464.995 525.401 464.97 525.16V515.52H461.14H458.57C458.43 515.52 458.35 515.52 458.32 515.52C458.303 515.451 458.303 515.379 458.32 515.31V513.31V510.1V508.04C458.32 507.91 458.32 507.83 458.32 507.81C458.396 507.793 458.474 507.793 458.55 507.81H461.12H464.55H467.16C467.28 507.81 467.35 507.81 467.37 507.81C467.392 507.882 467.392 507.958 467.37 508.03L467.32 511.23V521.23L467.41 525.5C467.43 525.972 467.376 526.445 467.25 526.9C467.152 527.195 466.976 527.458 466.74 527.66C466.412 527.928 466.018 528.104 465.6 528.17C464.938 528.267 464.269 528.307 463.6 528.29C463.371 528.32 463.138 528.282 462.93 528.18C462.82 527.994 462.755 527.785 462.74 527.57C462.68 526.995 462.536 526.432 462.31 525.9V525.95ZM465 509.56H460.65V510.88H465V509.56ZM465 513.81V512.45H460.65V513.81H465Z" fill="#121212"/>
<path d="M489.07 523.41C489.56 523.713 490.098 523.933 490.66 524.06C490.837 524.097 491.009 524.157 491.17 524.24C491.212 524.272 491.246 524.315 491.267 524.364C491.288 524.413 491.296 524.467 491.29 524.52C491.3 524.633 491.3 524.747 491.29 524.86C491.219 525.527 491.054 526.18 490.8 526.8C490.64 527.157 490.38 527.46 490.05 527.67C488.995 528.149 487.834 528.349 486.68 528.25C484.76 528.25 483.55 528.08 483.06 527.74C482.775 527.565 482.559 527.296 482.45 526.98C482.354 526.584 482.314 526.177 482.33 525.77V521.91H479.45C479.181 523.47 478.425 524.906 477.29 526.01C476.066 527.042 474.653 527.827 473.13 528.32C472.962 528.391 472.788 528.444 472.61 528.48C472.48 528.48 472.31 528.29 472.1 527.9C471.807 527.32 471.403 526.804 470.91 526.38C472.451 526.054 473.915 525.433 475.22 524.55C476.055 523.875 476.651 522.95 476.92 521.91H475.16L472 522C471.913 522.011 471.826 521.994 471.75 521.95C471.734 521.884 471.734 521.816 471.75 521.75V520C471.75 519.88 471.75 519.81 471.8 519.79C471.875 519.766 471.955 519.766 472.03 519.79H475.16H477.27C477.27 519.1 477.27 518.53 477.27 518.07V517.27H476.12H475.75C475.61 517.27 475.53 517.27 475.5 517.22C475.483 517.154 475.483 517.086 475.5 517.02V516.13C474.488 516.768 473.439 517.345 472.36 517.86C472.191 517.952 472.009 518.016 471.82 518.05C471.69 518.05 471.53 517.85 471.32 517.44C471.075 516.964 470.758 516.529 470.38 516.15C471.886 515.575 473.333 514.855 474.7 514C473.973 513.18 473.181 512.421 472.33 511.73C472.21 511.63 472.15 511.55 472.15 511.49C472.15 511.49 472.21 511.38 472.33 511.28L473.51 510.35C473.64 510.25 473.72 510.2 473.77 510.2C473.848 510.213 473.921 510.248 473.98 510.3C474.873 511.039 475.721 511.83 476.52 512.67C477.512 511.859 478.393 510.921 479.14 509.88H476.5H474.05C473.91 509.88 473.83 509.88 473.81 509.88C473.769 509.818 473.752 509.744 473.76 509.67V508.05C473.76 507.93 473.76 507.86 473.82 507.83C473.896 507.812 473.974 507.812 474.05 507.83H476.5H479.74H481.86C481.948 507.828 482.034 507.854 482.106 507.904C482.178 507.954 482.232 508.027 482.26 508.11C482.514 508.829 482.878 509.503 483.34 510.11L483.67 510.56C484.182 510.108 484.65 509.609 485.07 509.07C485.317 508.758 485.535 508.423 485.72 508.07C486.344 508.394 486.948 508.755 487.53 509.15C487.599 509.184 487.658 509.235 487.702 509.298C487.745 509.361 487.772 509.434 487.78 509.51C487.78 509.66 487.68 509.78 487.47 509.87C487.168 510.026 486.899 510.24 486.68 510.5C486.1 511.11 485.57 511.62 485.07 512.05C485.64 512.55 486.07 512.9 486.35 513.12C487.064 512.524 487.733 511.876 488.35 511.18C488.599 510.869 488.816 510.534 489 510.18C489.75 510.59 490.36 510.95 490.82 511.25C490.898 511.287 490.966 511.343 491.017 511.413C491.067 511.483 491.099 511.564 491.11 511.65C491.11 511.79 491 511.89 490.8 511.97C490.488 512.124 490.212 512.342 489.99 512.61C489.47 513.12 488.87 513.67 488.18 514.27C489.401 514.917 490.68 515.45 492 515.86C491.652 516.313 491.366 516.811 491.15 517.34C490.98 517.74 490.83 517.95 490.71 517.95C490.522 517.928 490.339 517.874 490.17 517.79C488.922 517.256 487.718 516.624 486.57 515.9V517.01C486.58 517.087 486.562 517.165 486.52 517.23C486.451 517.247 486.379 517.247 486.31 517.23H485.79H484.67V519.75H487H490.15C490.225 519.726 490.305 519.726 490.38 519.75C490.396 519.816 490.396 519.884 490.38 519.95V521.65C490.38 521.76 490.38 521.83 490.38 521.86C490.308 521.88 490.232 521.88 490.16 521.86L487.01 521.81H484.64V524.96C484.617 525.108 484.627 525.26 484.67 525.404C484.714 525.547 484.789 525.679 484.89 525.79C485.435 526.01 486.026 526.092 486.61 526.03C487.251 526.106 487.9 525.973 488.46 525.65C488.885 524.982 489.097 524.201 489.07 523.41V523.41ZM481.23 510.53C480.066 512.358 478.574 513.955 476.83 515.24H485.47C483.761 513.964 482.32 512.363 481.23 510.53ZM479.67 519.81H482.29V517.29H479.71V518.09C479.71 518.51 479.7 519.08 479.67 519.81Z" fill="#121212"/>
<path d="M70.76 17.12C70.3952 16.6101 69.887 16.2202 69.3 16C68.6906 15.7515 68.0381 15.6258 67.38 15.63C66.9891 15.6303 66.5997 15.6773 66.22 15.77C65.8635 15.8522 65.5248 15.9979 65.22 16.2C64.9229 16.4039 64.6737 16.67 64.49 16.98C64.3026 17.3302 64.2096 17.723 64.22 18.12C64.2049 18.4062 64.2589 18.6918 64.3772 18.9528C64.4955 19.2139 64.6748 19.4427 64.9 19.62C65.4232 19.9956 65.9951 20.2984 66.6 20.52C67.27 20.77 68.01 21.02 68.81 21.25C69.5884 21.4821 70.3318 21.8185 71.02 22.25C71.698 22.673 72.2749 23.2396 72.71 23.91C73.2038 24.7428 73.4404 25.7031 73.39 26.67C73.4111 27.6084 73.216 28.539 72.82 29.39C72.4557 30.1365 71.9296 30.7924 71.28 31.31C70.595 31.8153 69.8218 32.1884 69 32.41C68.1193 32.6649 67.2068 32.7928 66.29 32.79C65.1105 32.7934 63.9395 32.5903 62.83 32.19C61.712 31.7914 60.721 31.1008 59.96 30.19L62.55 27.68C62.9668 28.3104 63.5383 28.8234 64.21 29.17C64.8798 29.5196 65.6244 29.7015 66.38 29.7C66.7858 29.6975 67.1894 29.6403 67.58 29.53C67.9786 29.4208 68.3545 29.2413 68.69 29C69.0138 28.7879 69.2842 28.5039 69.48 28.17C69.6839 27.8179 69.7877 27.4168 69.78 27.01C69.8005 26.7027 69.7499 26.3949 69.6319 26.1104C69.514 25.8259 69.3319 25.5725 69.1 25.37C68.5919 24.951 68.0217 24.6137 67.41 24.37C66.73 24.11 66 23.86 65.19 23.62C64.4122 23.3862 63.669 23.0499 62.98 22.62C62.3026 22.2046 61.7255 21.6445 61.29 20.98C60.7943 20.1552 60.5575 19.2008 60.61 18.24C60.5848 17.3383 60.795 16.4456 61.22 15.65C61.618 14.9335 62.1674 14.3125 62.83 13.83C63.5212 13.3399 64.2928 12.9744 65.11 12.75C65.9641 12.5188 66.8451 12.4011 67.73 12.4C68.748 12.3933 69.7607 12.5485 70.73 12.86C71.6904 13.1776 72.5706 13.6996 73.31 14.39L70.76 17.12Z" fill="#121212"/>
<path d="M77.1799 13H89.9999V16.11H80.6199V20.86H89.4899V24H80.6199V29.24H90.4699V32.3H77.1799V13Z" fill="#121212"/>
<path d="M103.82 17.12C103.455 16.6101 102.947 16.2202 102.36 16C101.751 15.7515 101.098 15.6257 100.44 15.63C100.049 15.6303 99.6598 15.6773 99.28 15.77C98.9236 15.8522 98.5849 15.9978 98.28 16.2C97.9829 16.4038 97.7338 16.67 97.55 16.98C97.3627 17.3301 97.2697 17.723 97.28 18.12C97.265 18.4062 97.319 18.6918 97.4373 18.9528C97.5556 19.2138 97.7349 19.4426 97.96 19.62C98.4833 19.9956 99.0552 20.2984 99.66 20.52C100.33 20.77 101.07 21.02 101.87 21.25C102.648 21.482 103.392 21.8184 104.08 22.25C104.758 22.673 105.335 23.2396 105.77 23.91C106.264 24.7428 106.5 25.703 106.45 26.67C106.471 27.6083 106.276 28.539 105.88 29.39C105.516 30.1364 104.99 30.7923 104.34 31.31C103.668 31.8297 102.905 32.2197 102.09 32.46C101.209 32.7149 100.297 32.8428 99.38 32.84C98.2005 32.8433 97.0295 32.6403 95.92 32.24C94.802 31.8414 93.8111 31.1508 93.05 30.24L95.64 27.73C96.0569 28.3604 96.6284 28.8734 97.3 29.22C97.9699 29.5696 98.7145 29.7514 99.47 29.75C99.8759 29.7474 100.279 29.6902 100.67 29.58C101.059 29.4809 101.428 29.3151 101.76 29.09C102.084 28.8779 102.354 28.5938 102.55 28.26C102.754 27.9079 102.858 27.5068 102.85 27.1C102.871 26.7927 102.82 26.4848 102.702 26.2004C102.584 25.9159 102.402 25.6625 102.17 25.46C101.66 25.0389 101.086 24.7014 100.47 24.46C99.8 24.2 99.06 23.95 98.26 23.71C97.4823 23.4762 96.7391 23.1399 96.05 22.71C95.3706 22.2972 94.793 21.7367 94.36 21.07C93.8644 20.2452 93.6275 19.2908 93.68 18.33C93.6549 17.4283 93.8651 16.5356 94.29 15.74C94.6881 15.0235 95.2375 14.4024 95.9 13.92C96.5913 13.4298 97.3629 13.0643 98.18 12.84C99.0342 12.6088 99.9151 12.4911 100.8 12.49C101.818 12.4814 102.831 12.6367 103.8 12.95C104.763 13.2619 105.644 13.7845 106.38 14.48L103.82 17.12Z" fill="#121212"/>
<path d="M35.25 461.78L44.11 452.98C44.429 452.664 44.7295 452.33 45.01 451.98C45.3006 451.643 45.5615 451.282 45.79 450.9C46.0233 450.528 46.2081 450.128 46.34 449.71C46.479 449.288 46.5466 448.845 46.54 448.4C46.5464 447.898 46.4476 447.401 46.25 446.94C46.0622 446.517 45.786 446.138 45.44 445.83C45.0823 445.52 44.668 445.283 44.22 445.13C43.7451 444.961 43.2442 444.876 42.74 444.88C41.7635 444.841 40.8066 445.161 40.05 445.78C39.3249 446.431 38.8508 447.316 38.71 448.28L35.47 448C35.5823 447.104 35.8748 446.24 36.33 445.46C36.7333 444.759 37.2741 444.147 37.92 443.66C38.5728 443.171 39.3126 442.812 40.1 442.6C40.9703 442.365 41.8686 442.251 42.77 442.26C43.6844 442.255 44.5944 442.386 45.47 442.65C46.2735 442.888 47.0237 443.279 47.68 443.8C48.3206 444.313 48.834 444.966 49.18 445.71C49.5609 446.544 49.7489 447.453 49.73 448.37C49.7351 449.067 49.6235 449.76 49.4 450.42C49.1807 451.047 48.8923 451.647 48.54 452.21C48.1833 452.777 47.7749 453.309 47.32 453.8C46.87 454.3 46.39 454.8 45.89 455.27L38.62 462.27H49.73V465H35.25V461.78Z" fill="#121212"/>
<path d="M66.9999 445.68H57.9999V451.2C58.206 451.124 58.4164 451.061 58.6299 451.01C58.8999 450.95 59.1699 450.9 59.4499 450.86C59.7299 450.82 60.0099 450.78 60.2799 450.76H60.9699C61.9358 450.748 62.8945 450.928 63.7899 451.29C64.6097 451.634 65.3488 452.144 65.9599 452.79C66.575 453.458 67.0479 454.244 67.3499 455.1C67.6844 456.064 67.8469 457.08 67.8299 458.1C67.8465 459.132 67.6384 460.156 67.2199 461.1C66.8276 461.976 66.2591 462.763 65.5499 463.41C64.8347 464.06 63.9989 464.562 63.0899 464.89C62.1269 465.232 61.1119 465.405 60.0899 465.4C58.6357 465.408 57.212 464.983 55.9999 464.18C54.7848 463.404 53.8711 462.236 53.4099 460.87L56.4099 459.87C56.715 460.723 57.2689 461.465 57.9999 462C58.7467 462.47 59.6181 462.704 60.4999 462.67C61.0745 462.674 61.6447 462.569 62.1799 462.36C62.6965 462.162 63.1664 461.859 63.5599 461.47C63.9576 461.062 64.2703 460.58 64.4799 460.05C64.719 459.445 64.8379 458.8 64.8299 458.15C64.8802 457.469 64.7717 456.786 64.5132 456.155C64.2546 455.523 63.853 454.96 63.3399 454.51C62.237 453.671 60.8742 453.246 59.4899 453.31C58.7678 453.332 58.0502 453.432 57.3499 453.61C56.5144 453.797 55.7049 454.086 54.9399 454.47L55.1799 442.83H66.9999V445.68Z" fill="#121212"/>
<path d="M74.7499 465.15C74.4796 465.152 74.2117 465.098 73.9625 464.994C73.7132 464.889 73.4879 464.734 73.2999 464.54C73.01 464.253 72.8119 463.886 72.7309 463.486C72.6499 463.085 72.6896 462.67 72.845 462.293C73.0003 461.915 73.2643 461.592 73.6035 461.365C73.9427 461.138 74.3417 461.017 74.7499 461.017C75.1582 461.017 75.5572 461.138 75.8964 461.365C76.2355 461.592 76.4996 461.915 76.6549 462.293C76.8103 462.67 76.85 463.085 76.769 463.486C76.688 463.886 76.4899 464.253 76.1999 464.54C76.012 464.734 75.7867 464.889 75.5374 464.994C75.2882 465.098 75.0203 465.152 74.7499 465.15Z" fill="#121212"/>
<path d="M92.9999 445.68H83.9999V451.2C84.206 451.124 84.4164 451.061 84.6299 451.01C84.8999 450.95 85.1699 450.9 85.4499 450.86C85.7299 450.82 86.0099 450.78 86.2799 450.76H86.9699C87.9358 450.748 88.8945 450.928 89.7899 451.29C90.6097 451.634 91.3488 452.144 91.9599 452.79C92.575 453.458 93.0479 454.244 93.3499 455.1C93.6844 456.064 93.8469 457.08 93.8299 458.1C93.8465 459.132 93.6384 460.156 93.2199 461.1C92.8276 461.976 92.2591 462.763 91.5499 463.41C90.8021 464.045 89.9352 464.524 88.9999 464.82C88.0369 465.162 87.0219 465.335 85.9999 465.33C84.5835 465.341 83.1941 464.942 81.9999 464.18C80.7848 463.404 79.8711 462.236 79.4099 460.87L82.4099 459.87C82.715 460.723 83.2688 461.465 83.9999 462C84.7467 462.47 85.6181 462.704 86.4999 462.67C87.0745 462.674 87.6447 462.569 88.1799 462.36C88.6965 462.162 89.1664 461.859 89.5599 461.47C89.9576 461.062 90.2703 460.58 90.4799 460.05C90.719 459.445 90.8379 458.8 90.8299 458.15C90.8802 457.469 90.7717 456.786 90.5132 456.155C90.2546 455.523 89.853 454.96 89.3399 454.51C88.237 453.671 86.8742 453.246 85.4899 453.31C84.7678 453.332 84.0502 453.432 83.3499 453.61C82.5143 453.797 81.7049 454.086 80.9399 454.47L81.1799 442.83H92.9999V445.68Z" fill="#121212"/>
<path d="M98.92 453.54C98.9187 453.045 99.0173 452.556 99.2101 452.1C99.3976 451.667 99.6657 451.273 100 450.94C100.335 450.603 100.732 450.335 101.17 450.15C101.622 449.956 102.109 449.858 102.6 449.86C103.095 449.859 103.585 449.957 104.04 450.15C104.923 450.542 105.621 451.258 105.99 452.15C106.183 452.606 106.281 453.095 106.28 453.59C106.283 454.074 106.188 454.554 106 455C105.815 455.438 105.547 455.835 105.21 456.17C104.877 456.504 104.483 456.772 104.05 456.96C103.595 457.153 103.105 457.251 102.61 457.25C102.119 457.253 101.632 457.154 101.18 456.96C100.275 456.584 99.5565 455.865 99.1801 454.96C98.9979 454.509 98.9094 454.026 98.92 453.54V453.54ZM100.54 453.54C100.552 454 100.722 454.442 101.021 454.791C101.321 455.141 101.732 455.376 102.185 455.457C102.638 455.539 103.105 455.462 103.508 455.239C103.911 455.016 104.224 454.661 104.395 454.234C104.567 453.807 104.586 453.334 104.449 452.894C104.312 452.455 104.028 452.076 103.644 451.822C103.261 451.568 102.801 451.454 102.343 451.499C101.885 451.544 101.457 451.746 101.13 452.07C100.937 452.262 100.785 452.491 100.683 452.744C100.582 452.997 100.533 453.268 100.54 453.54ZM103 465.6L101.75 464.96L111.01 449.57L112.25 450.21L103 465.6ZM107.7 461.6C107.693 461.108 107.792 460.62 107.99 460.17C108.175 459.733 108.443 459.335 108.78 459C109.116 458.669 109.509 458.401 109.94 458.21C110.396 458.019 110.886 457.92 111.38 457.92C111.875 457.92 112.364 458.019 112.82 458.21C113.251 458.401 113.644 458.669 113.98 459C114.317 459.335 114.585 459.733 114.77 460.17C114.964 460.622 115.063 461.109 115.06 461.6C115.063 462.095 114.964 462.585 114.77 463.04C114.389 463.942 113.672 464.659 112.77 465.04C112.314 465.231 111.825 465.33 111.33 465.33C110.836 465.33 110.346 465.231 109.89 465.04C108.988 464.659 108.271 463.942 107.89 463.04C107.746 462.592 107.695 462.119 107.74 461.65L107.7 461.6ZM109.32 461.6C109.32 462.146 109.537 462.67 109.923 463.057C110.31 463.443 110.834 463.66 111.38 463.66C111.926 463.66 112.45 463.443 112.837 463.057C113.223 462.67 113.44 462.146 113.44 461.6C113.44 461.054 113.223 460.53 112.837 460.143C112.45 459.757 111.926 459.54 111.38 459.54C110.834 459.54 110.31 459.757 109.923 460.143C109.537 460.53 109.32 461.054 109.32 461.6Z" fill="#121212"/>
<path d="M504.9 515.32H505C505.765 514.972 506.599 514.801 507.44 514.82C508.256 514.828 509.066 514.963 509.84 515.22C510.678 515.502 511.449 515.954 512.105 516.548C512.76 517.141 513.286 517.864 513.65 518.67C514.083 519.659 514.294 520.731 514.27 521.81C514.295 522.918 514.087 524.018 513.66 525.04C513.287 525.923 512.728 526.714 512.02 527.36C511.327 527.993 510.51 528.473 509.62 528.77C508.675 529.083 507.685 529.238 506.69 529.23C505.691 529.241 504.699 529.071 503.76 528.73C502.871 528.416 502.052 527.93 501.35 527.3C500.658 526.667 500.1 525.902 499.71 525.05C499.299 524.129 499.095 523.129 499.11 522.12C499.105 521.493 499.155 520.868 499.26 520.25C499.366 519.702 499.517 519.164 499.71 518.64C499.914 518.125 500.151 517.624 500.42 517.14C500.69 516.66 500.99 516.14 501.32 515.6L506.91 506.77H510.43L504.9 515.32ZM502.12 522C502.113 522.629 502.225 523.253 502.45 523.84C502.659 524.381 502.975 524.874 503.38 525.29C503.799 525.7 504.295 526.023 504.84 526.24C506.045 526.694 507.375 526.694 508.58 526.24C509.12 526.02 509.613 525.698 510.03 525.29C510.441 524.878 510.761 524.384 510.97 523.84C511.397 522.65 511.397 521.35 510.97 520.16C510.766 519.614 510.445 519.119 510.03 518.71C509.619 518.282 509.126 517.942 508.58 517.71C507.375 517.256 506.045 517.256 504.84 517.71C504.289 517.939 503.792 518.279 503.38 518.71C502.971 519.122 502.654 519.616 502.45 520.16C502.225 520.747 502.113 521.371 502.12 522Z" fill="#121212"/>
<path d="M521.05 510.2L517 514L515.25 511.91L521.4 506.82H524.05V528.91H521.05V510.2Z" fill="#121212"/>
<path d="M532.47 529.05C532.062 529.052 531.663 528.933 531.324 528.707C530.984 528.481 530.72 528.159 530.564 527.783C530.409 527.406 530.369 526.991 530.45 526.592C530.531 526.192 530.73 525.826 531.02 525.54C531.208 525.346 531.433 525.191 531.682 525.086C531.932 524.982 532.2 524.928 532.47 524.93C533.015 524.935 533.536 525.154 533.921 525.539C534.306 525.924 534.525 526.445 534.53 526.99C534.525 527.535 534.306 528.056 533.921 528.441C533.536 528.826 533.015 529.045 532.47 529.05V529.05Z" fill="#121212"/>
<path d="M541.17 523.46C541.426 524.361 541.916 525.179 542.59 525.83C543.339 526.402 544.271 526.679 545.21 526.61C545.766 526.613 546.319 526.515 546.84 526.32C547.335 526.128 547.795 525.854 548.2 525.51C548.61 525.15 548.935 524.705 549.155 524.206C549.374 523.706 549.482 523.165 549.47 522.62C549.511 521.844 549.308 521.075 548.89 520.42C548.521 519.876 548.009 519.443 547.41 519.17C546.777 518.882 546.102 518.699 545.41 518.63C544.693 518.542 543.972 518.499 543.25 518.5V515.88C544.192 515.896 545.133 515.819 546.06 515.65C546.671 515.539 547.255 515.311 547.78 514.98C548.172 514.707 548.474 514.324 548.65 513.88C548.824 513.413 548.908 512.918 548.9 512.42C548.936 511.921 548.86 511.42 548.676 510.954C548.493 510.489 548.207 510.07 547.84 509.73C547.094 509.121 546.153 508.801 545.19 508.83C544.4 508.821 543.629 509.066 542.99 509.53C542.332 509.999 541.82 510.644 541.51 511.39L538.45 510.39C538.95 509.069 539.889 507.96 541.11 507.25C542.335 506.577 543.713 506.233 545.11 506.25C545.983 506.246 546.852 506.367 547.69 506.61C548.477 506.835 549.213 507.209 549.86 507.71C550.491 508.219 550.997 508.866 551.34 509.6C551.72 510.438 551.908 511.35 551.89 512.27C551.917 513.393 551.564 514.492 550.89 515.39C550.209 516.295 549.25 516.952 548.16 517.26V517.32C548.81 517.433 549.433 517.663 550 518C550.533 518.324 550.999 518.749 551.37 519.25C551.751 519.751 552.039 520.317 552.22 520.92C552.411 521.569 552.506 522.243 552.5 522.92C552.518 523.885 552.309 524.841 551.89 525.71C551.501 526.486 550.948 527.168 550.27 527.71C549.57 528.25 548.777 528.657 547.93 528.91C547.022 529.181 546.078 529.316 545.13 529.31C543.572 529.344 542.035 528.946 540.69 528.16C539.366 527.33 538.41 526.023 538.02 524.51L541.17 523.46Z" fill="#121212"/>
<path d="M558.42 517.44C558.414 516.945 558.513 516.454 558.71 516C559.079 515.108 559.777 514.392 560.66 514C561.115 513.806 561.605 513.708 562.1 513.71C562.591 513.707 563.078 513.806 563.53 514C563.968 514.185 564.365 514.453 564.7 514.79C565.031 515.126 565.299 515.519 565.49 515.95C565.681 516.406 565.78 516.896 565.78 517.39C565.78 517.885 565.681 518.374 565.49 518.83C565.299 519.261 565.031 519.654 564.7 519.99C564.365 520.327 563.968 520.595 563.53 520.78C563.08 520.978 562.592 521.077 562.1 521.07C561.605 521.077 561.114 520.978 560.66 520.78C559.777 520.388 559.079 519.672 558.71 518.78C558.526 518.357 558.427 517.901 558.42 517.44V517.44ZM560.04 517.44C560.032 517.713 560.079 517.984 560.18 518.238C560.28 518.492 560.432 518.722 560.625 518.915C560.818 519.108 561.048 519.26 561.302 519.36C561.556 519.461 561.827 519.508 562.1 519.5C562.646 519.5 563.17 519.283 563.557 518.897C563.943 518.51 564.16 517.986 564.16 517.44C564.16 516.894 563.943 516.37 563.557 515.983C563.17 515.597 562.646 515.38 562.1 515.38C561.827 515.372 561.556 515.419 561.302 515.52C561.048 515.62 560.818 515.772 560.625 515.965C560.432 516.158 560.28 516.388 560.18 516.642C560.079 516.896 560.032 517.167 560.04 517.44V517.44ZM562.53 529.5L561.29 528.86L570.54 513.47L571.79 514.11L562.53 529.5ZM567.24 525.5C567.233 525.008 567.332 524.52 567.53 524.07C567.714 523.632 567.982 523.234 568.32 522.9C568.656 522.569 569.049 522.301 569.48 522.11C569.935 521.916 570.425 521.818 570.92 521.82C571.411 521.817 571.898 521.916 572.35 522.11C573.255 522.486 573.974 523.205 574.35 524.11C574.544 524.562 574.643 525.048 574.64 525.54C574.642 526.035 574.544 526.525 574.35 526.98C574.159 527.411 573.891 527.804 573.56 528.14C573.226 528.478 572.828 528.746 572.39 528.93C571.94 529.128 571.452 529.227 570.96 529.22C570.465 529.227 569.974 529.128 569.52 528.93C568.618 528.549 567.901 527.832 567.52 526.93C567.333 526.494 567.238 526.024 567.24 525.55V525.5ZM568.86 525.5C568.852 525.773 568.899 526.044 569 526.298C569.1 526.552 569.252 526.782 569.445 526.975C569.638 527.168 569.868 527.32 570.122 527.42C570.376 527.521 570.647 527.568 570.92 527.56C571.193 527.568 571.464 527.521 571.718 527.42C571.972 527.32 572.202 527.168 572.395 526.975C572.588 526.782 572.74 526.552 572.84 526.298C572.941 526.044 572.988 525.773 572.98 525.5C572.988 525.227 572.941 524.956 572.84 524.702C572.74 524.448 572.588 524.218 572.395 524.025C572.202 523.832 571.972 523.68 571.718 523.58C571.464 523.479 571.193 523.432 570.92 523.44C570.647 523.432 570.376 523.479 570.122 523.58C569.868 523.68 569.638 523.832 569.445 524.025C569.252 524.218 569.1 524.448 569 524.702C568.899 524.956 568.852 525.227 568.86 525.5Z" fill="#121212"/>
<path d="M234.87 90.5L209.54 46.29H54.8999V44.29H210.71L236.6 89.51L234.87 90.5Z" fill="#333333"/>
<path d="M580.9 543.07H292.31L268.05 469.56L269.95 468.93L293.75 541.07H580.9V543.07Z" fill="#333333"/>
<path d="M126.84 479.92H2.1001V477.92H125.2L140.92 397.85L142.88 398.24L126.84 479.92Z" fill="#333333"/>
<path d="M345.51 582.93L351.32 588.72L350.86 589.18L345 583.39L339.23 589.18L338.77 588.72L344.55 582.93L338.8 577.18L339.27 576.72L345 582.46L350.75 576.72L351.22 577.18L345.51 582.93ZM340.89 581.7C341.063 581.695 341.236 581.728 341.395 581.797C341.554 581.866 341.695 581.97 341.81 582.1C342.017 582.327 342.132 582.623 342.13 582.93C342.132 583.102 342.096 583.273 342.025 583.43C341.954 583.587 341.85 583.727 341.72 583.84C341.491 584.042 341.195 584.152 340.89 584.15C340.719 584.152 340.549 584.118 340.392 584.049C340.235 583.98 340.094 583.878 339.98 583.75C339.773 583.502 339.667 583.185 339.683 582.862C339.7 582.54 339.838 582.235 340.07 582.01C340.293 581.805 340.587 581.694 340.89 581.7V581.7ZM345.05 577.55C345.379 577.55 345.694 577.681 345.927 577.913C346.159 578.146 346.29 578.461 346.29 578.79C346.292 578.961 346.257 579.13 346.186 579.286C346.115 579.441 346.01 579.579 345.88 579.69C345.653 579.895 345.356 580.005 345.05 580C344.878 580.004 344.708 579.971 344.55 579.901C344.393 579.832 344.253 579.729 344.14 579.6C343.926 579.357 343.816 579.04 343.833 578.717C343.85 578.393 343.992 578.09 344.23 577.87C344.452 577.662 344.746 577.548 345.05 577.55V577.55ZM345.05 585.87C345.223 585.866 345.395 585.899 345.554 585.968C345.713 586.037 345.855 586.14 345.97 586.27C346.177 586.497 346.291 586.793 346.29 587.1C346.292 587.272 346.257 587.443 346.186 587.6C346.115 587.758 346.011 587.897 345.88 588.01C345.653 588.215 345.356 588.325 345.05 588.32C344.878 588.324 344.708 588.291 344.55 588.221C344.393 588.152 344.253 588.049 344.14 587.92C343.938 587.695 343.827 587.402 343.83 587.1C343.829 586.927 343.864 586.756 343.933 586.598C344.002 586.439 344.103 586.297 344.23 586.18C344.453 585.975 344.747 585.864 345.05 585.87V585.87ZM349.2 581.7C349.372 581.696 349.542 581.729 349.7 581.799C349.857 581.868 349.997 581.971 350.11 582.1C350.317 582.327 350.432 582.623 350.43 582.93C350.432 583.102 350.396 583.273 350.325 583.43C350.254 583.587 350.15 583.727 350.02 583.84C349.794 584.041 349.502 584.151 349.2 584.15C348.952 584.149 348.711 584.072 348.507 583.931C348.304 583.79 348.148 583.591 348.059 583.36C347.97 583.129 347.954 582.876 348.011 582.635C348.068 582.395 348.197 582.177 348.38 582.01C348.602 581.803 348.897 581.692 349.2 581.7Z" fill="#999999"/>
<path d="M357.87 587L362.81 582.1C362.99 581.933 363.16 581.756 363.32 581.57C363.479 581.382 363.623 581.181 363.75 580.97C363.879 580.76 363.983 580.535 364.06 580.3C364.133 580.064 364.17 579.817 364.17 579.57C364.176 579.292 364.122 579.015 364.01 578.76C363.907 578.52 363.749 578.308 363.55 578.14C363.355 577.966 363.127 577.834 362.88 577.75C362.614 577.654 362.333 577.606 362.05 577.61C361.506 577.592 360.974 577.77 360.55 578.11C360.147 578.472 359.881 578.964 359.8 579.5L357.99 579.35C358.063 578.852 358.226 578.37 358.47 577.93C358.701 577.544 359.003 577.204 359.36 576.93C359.723 576.653 360.138 576.452 360.58 576.34C361.066 576.208 361.567 576.144 362.07 576.15C362.578 576.147 363.083 576.218 363.57 576.36C364.021 576.497 364.441 576.718 364.81 577.01C365.164 577.296 365.447 577.658 365.64 578.07C365.853 578.537 365.959 579.046 365.95 579.56C365.954 579.948 365.889 580.334 365.76 580.7C365.638 581.049 365.481 581.384 365.29 581.7C365.089 582.012 364.862 582.307 364.61 582.58C364.35 582.86 364.08 583.13 363.81 583.4L359.75 587.32H366V588.78H357.92L357.87 587Z" fill="#999999"/>
<path d="M369 582.62C369 582.17 369 581.7 369.07 581.21C369.116 580.724 369.203 580.242 369.33 579.77C369.446 579.309 369.607 578.86 369.81 578.43C370.009 578.012 370.276 577.63 370.6 577.3C370.924 576.976 371.308 576.718 371.73 576.54C372.695 576.164 373.765 576.164 374.73 576.54C375.152 576.718 375.536 576.976 375.86 577.3C376.184 577.63 376.451 578.012 376.65 578.43C376.853 578.86 377.014 579.309 377.13 579.77C377.252 580.243 377.339 580.724 377.39 581.21C377.39 581.7 377.46 582.21 377.46 582.62C377.455 583.32 377.395 584.019 377.28 584.71C377.173 585.429 376.958 586.127 376.64 586.78C376.335 587.4 375.89 587.941 375.34 588.36C374.706 588.771 373.966 588.989 373.21 588.989C372.454 588.989 371.715 588.771 371.08 588.36C370.527 587.944 370.082 587.403 369.78 586.78C369.463 586.127 369.247 585.429 369.14 584.71C369.038 584.018 368.991 583.319 369 582.62ZM370.67 582.62C370.67 583.02 370.67 583.51 370.75 584.06C370.801 584.608 370.915 585.148 371.09 585.67C371.249 586.162 371.515 586.613 371.87 586.99C372.242 587.345 372.736 587.542 373.25 587.542C373.764 587.542 374.258 587.345 374.63 586.99C374.982 586.611 375.248 586.161 375.41 585.67C375.581 585.147 375.695 584.607 375.75 584.06C375.75 583.51 375.82 583.06 375.82 582.62C375.82 582.18 375.82 582.02 375.82 581.62C375.799 581.258 375.759 580.898 375.7 580.54C375.631 580.182 375.541 579.828 375.43 579.48C375.319 579.154 375.165 578.844 374.97 578.56C374.782 578.296 374.54 578.074 374.26 577.91C373.953 577.743 373.609 577.655 373.26 577.655C372.911 577.655 372.567 577.743 372.26 577.91C371.978 578.072 371.736 578.294 371.55 578.56C371.355 578.844 371.201 579.154 371.09 579.48C370.979 579.828 370.889 580.182 370.82 580.54C370.761 580.898 370.721 581.258 370.7 581.62C370.72 582 370.71 582.34 370.71 582.62H370.67Z" fill="#999999"/>
<path d="M382.7 578.37L380.44 580.46L379.44 579.29L382.86 576.46H384.34V588.78H382.7V578.37Z" fill="#999999"/>
<path d="M393.53 584H393.46C393.034 584.196 392.569 584.292 392.1 584.28C391.644 584.276 391.191 584.198 390.76 584.05C390.308 583.9 389.89 583.662 389.53 583.35C389.154 583.008 388.851 582.593 388.64 582.13C388.393 581.58 388.273 580.982 388.29 580.38C388.276 579.769 388.392 579.163 388.63 578.6C388.836 578.106 389.147 577.663 389.54 577.3C389.928 576.948 390.384 576.679 390.88 576.51C391.407 576.327 391.962 576.236 392.52 576.24C393.076 576.235 393.628 576.329 394.15 576.52C394.644 576.694 395.099 576.965 395.487 577.317C395.875 577.669 396.189 578.095 396.41 578.57C396.64 579.086 396.756 579.645 396.75 580.21C396.751 580.545 396.72 580.88 396.66 581.21C396.604 581.517 396.52 581.818 396.41 582.11C396.293 582.397 396.16 582.678 396.01 582.95C395.86 583.23 395.7 583.51 395.51 583.8L392.4 588.73H390.4L393.53 584ZM395.07 580.26C395.069 579.919 395.008 579.58 394.89 579.26C394.776 578.956 394.599 578.68 394.37 578.45C394.135 578.225 393.86 578.045 393.56 577.92C393.241 577.798 392.902 577.733 392.56 577.73C392.218 577.734 391.88 577.799 391.56 577.92C391.26 578.045 390.985 578.225 390.75 578.45C390.525 578.683 390.348 578.958 390.23 579.26C389.987 579.925 389.987 580.655 390.23 581.32C390.348 581.622 390.525 581.897 390.75 582.13C390.985 582.355 391.26 582.535 391.56 582.66C391.88 582.781 392.218 582.845 392.56 582.85C392.902 582.847 393.241 582.782 393.56 582.66C393.86 582.535 394.135 582.355 394.37 582.13C394.599 581.9 394.776 581.624 394.89 581.32C395.014 580.984 395.075 580.628 395.07 580.27V580.26Z" fill="#999999"/>
<path d="M402.09 586.42H400.09C400 586.42 399.95 586.42 399.93 586.42C399.921 586.37 399.921 586.32 399.93 586.27V585C399.93 584.89 399.99 584.84 400.11 584.84H402.11H402.51V582.54V581.07C402.51 580.98 402.51 580.93 402.51 580.92C402.51 580.91 402.58 580.92 402.67 580.92H404.92H407V578.74H403.64C403.085 579.586 402.441 580.37 401.72 581.08C401.56 581.26 401.45 581.35 401.37 581.35C401.29 581.35 401.21 581.24 401.05 581.04C400.8 580.689 400.489 580.388 400.13 580.15C401.402 579.045 402.425 577.681 403.13 576.15C403.323 575.77 403.464 575.367 403.55 574.95C404.25 575.09 404.77 575.21 405.13 575.31C405.33 575.38 405.43 575.47 405.43 575.59C405.404 575.715 405.333 575.825 405.23 575.9C405.051 576.07 404.909 576.274 404.81 576.5L404.48 577.2H411.26H413.51C413.559 577.184 413.611 577.184 413.66 577.2C413.669 577.25 413.669 577.3 413.66 577.35V578.56C413.66 578.647 413.66 578.697 413.66 578.71C413.615 578.725 413.565 578.725 413.52 578.71H411.27H408.74V580.89H410.5H412.74C412.85 580.89 412.91 580.95 412.91 581.07V582.3C412.91 582.42 412.85 582.48 412.74 582.48H410.5H408.74V584.88H412.22H414.27C414.39 584.88 414.44 584.93 414.44 585.04V586.34C414.44 586.42 414.44 586.47 414.44 586.49C414.391 586.506 414.339 586.506 414.29 586.49H412.24H408.76V587.29V589.96C408.76 590.05 408.76 590.1 408.76 590.12C408.76 590.14 408.7 590.12 408.62 590.12H407.16C407.07 590.12 407.01 590.12 407 590.12C406.984 590.071 406.984 590.019 407 589.97V587.3V586.5L402.09 586.42ZM404.22 584.84H407V582.44H404.23L404.22 584.84Z" fill="#999999"/>
<path d="M426.32 578H421.32L421.27 581.07L421.62 580.97L422.08 580.88H422.54H422.92C423.462 580.872 423.999 580.974 424.5 581.18C424.953 581.37 425.362 581.653 425.7 582.01C426.047 582.381 426.312 582.821 426.48 583.3C426.666 583.833 426.757 584.395 426.75 584.96C426.758 585.535 426.642 586.104 426.41 586.63C426.186 587.119 425.867 587.558 425.47 587.92C425.073 588.283 424.607 588.562 424.1 588.74C423.561 588.935 422.993 589.033 422.42 589.03C421.619 589.039 420.833 588.813 420.16 588.38C419.481 587.95 418.969 587.301 418.71 586.54L420.38 585.96C420.544 586.451 420.854 586.881 421.27 587.19C421.617 587.399 422.008 587.526 422.412 587.561C422.816 587.596 423.222 587.537 423.6 587.39C423.889 587.285 424.152 587.117 424.37 586.9C424.596 586.672 424.773 586.399 424.89 586.1C425.019 585.762 425.083 585.402 425.08 585.04C425.105 584.665 425.043 584.29 424.899 583.943C424.755 583.596 424.533 583.287 424.25 583.04C423.635 582.569 422.873 582.332 422.1 582.37C421.699 582.38 421.3 582.434 420.91 582.53C420.442 582.636 419.989 582.797 419.56 583.01L419.7 576.52H426.31L426.32 578Z" fill="#999999"/>
<path d="M437.17 588C437.75 588.05 438.37 588.08 439.03 588.08C439.109 588.092 439.189 588.085 439.265 588.06C439.341 588.035 439.41 587.993 439.466 587.936C439.523 587.88 439.565 587.811 439.59 587.735C439.615 587.659 439.622 587.579 439.61 587.5V584.64H433.75C433.633 585.682 433.338 586.697 432.88 587.64C432.474 588.397 431.973 589.099 431.39 589.73C431.22 589.92 431.11 590.01 431.05 590.01C430.99 590.01 430.84 589.93 430.67 589.75C430.333 589.416 429.931 589.154 429.49 588.98C430.136 588.396 430.696 587.723 431.15 586.98C431.579 586.213 431.857 585.371 431.97 584.5C432.145 583.194 432.222 581.877 432.2 580.56V578.2V575.97C432.2 575.88 432.2 575.82 432.2 575.8C432.2 575.78 432.26 575.8 432.34 575.8H434.53H439.08H441.24C441.33 575.8 441.39 575.8 441.4 575.8C441.416 575.852 441.416 575.908 441.4 575.96V578.19V584.64V587.91C441.425 588.187 441.391 588.466 441.301 588.73C441.212 588.993 441.068 589.235 440.88 589.44C440.609 589.661 440.278 589.797 439.93 589.83C439.343 589.899 438.751 589.926 438.16 589.91C437.88 589.91 437.72 589.91 437.67 589.84C437.598 589.707 437.557 589.56 437.55 589.41C437.514 588.92 437.385 588.441 437.17 588ZM433.92 583H439.61V581H434C433.967 581.947 433.94 582.64 433.92 583.08V583ZM439.61 577.35H434V579.35H439.63L439.61 577.35Z" fill="#999999"/>
<path d="M447.81 585.77C447.954 586.271 448.226 586.726 448.6 587.09C449.02 587.411 449.543 587.567 450.07 587.53C450.381 587.53 450.69 587.472 450.98 587.36C451.254 587.254 451.507 587.102 451.73 586.91C451.95 586.715 452.127 586.477 452.25 586.21C452.381 585.925 452.446 585.614 452.44 585.3C452.459 584.867 452.348 584.439 452.12 584.07C451.915 583.765 451.627 583.526 451.29 583.38C450.94 583.216 450.565 583.111 450.18 583.07C449.788 583.023 449.394 583 449 583V581.54C449.523 581.552 450.046 581.508 450.56 581.41C450.915 581.354 451.254 581.228 451.56 581.04C451.78 580.889 451.95 580.677 452.05 580.43C452.144 580.167 452.192 579.889 452.19 579.61C452.208 579.332 452.165 579.053 452.063 578.794C451.961 578.535 451.803 578.301 451.6 578.11C451.182 577.772 450.657 577.595 450.12 577.61C449.679 577.607 449.249 577.744 448.89 578C448.532 578.256 448.246 578.601 448.06 579L446.36 578.43C446.639 577.692 447.166 577.073 447.85 576.68C448.531 576.299 449.3 576.106 450.08 576.12C450.567 576.115 451.053 576.182 451.52 576.32C451.959 576.444 452.37 576.651 452.73 576.93C453.083 577.214 453.364 577.577 453.55 577.99C453.767 578.453 453.873 578.959 453.86 579.47C453.864 580.098 453.66 580.71 453.28 581.21C452.886 581.694 452.352 582.044 451.75 582.21V582.21C452.105 582.275 452.445 582.407 452.75 582.6C453.049 582.778 453.311 583.012 453.52 583.29C453.724 583.574 453.882 583.888 453.99 584.22C454.092 584.574 454.142 584.941 454.14 585.31C454.153 585.85 454.036 586.385 453.8 586.87C453.586 587.302 453.279 587.682 452.9 587.98C452.51 588.285 452.066 588.513 451.59 588.65C451.081 588.848 450.545 588.966 450 589C449.129 589.017 448.27 588.792 447.52 588.35C446.786 587.898 446.253 587.183 446.03 586.35L447.81 585.77Z" fill="#999999"/>
<path d="M459.11 578.37L456.84 580.46L455.84 579.29L459.27 576.46H460.75V588.78H459.08L459.11 578.37Z" fill="#999999"/>
<path d="M467.91 589.81H466.44C466.415 589.819 466.388 589.821 466.361 589.816C466.335 589.81 466.311 589.797 466.292 589.778C466.273 589.759 466.26 589.735 466.254 589.709C466.249 589.682 466.251 589.655 466.26 589.63V583.8V580.63V576.34C466.26 576.25 466.26 576.2 466.26 576.17C466.31 576.16 466.36 576.16 466.41 576.17H468.67H474.29H476.56C476.65 576.17 476.7 576.17 476.71 576.17C476.726 576.219 476.726 576.271 476.71 576.32V580.12V583.76V589.53C476.71 589.62 476.71 589.67 476.71 589.69C476.66 589.699 476.61 589.699 476.56 589.69H475.1C475.01 589.69 474.96 589.69 474.94 589.69C474.931 589.64 474.931 589.589 474.94 589.54V588.74H468.06V589.62C468.06 589.71 468.06 589.76 468.06 589.78L467.91 589.81ZM468.08 577.81V581.55H475V577.81H468.08ZM468.08 587.12H475V583.12H468.12L468.08 587.12Z" fill="#999999"/>
<path d="M486.27 588.11C486.279 588.135 486.281 588.162 486.276 588.189C486.27 588.215 486.257 588.239 486.238 588.258C486.219 588.277 486.195 588.29 486.169 588.296C486.142 588.301 486.115 588.299 486.09 588.29H484.91C484.8 588.29 484.75 588.23 484.75 588.11V587.38H483.23V588.68C483.23 588.8 483.18 588.86 483.07 588.86H481.85C481.801 588.876 481.749 588.876 481.7 588.86C481.691 588.81 481.691 588.76 481.7 588.71V583.71V580.14V576.2C481.7 576.107 481.7 576.057 481.7 576.05C481.749 576.034 481.801 576.034 481.85 576.05H483.25H484.67H486.08C486.173 576.05 486.223 576.05 486.23 576.05C486.245 576.099 486.245 576.151 486.23 576.2V579.51V583.27L486.27 588.11ZM484.75 577.46H483.23V580.86H484.75V577.46ZM483.23 585.9H484.75V582.35H483.23V585.9ZM489.11 581.53H486.91C486.81 581.53 486.75 581.53 486.74 581.53C486.724 581.481 486.724 581.429 486.74 581.38V580.24C486.722 580.192 486.722 580.139 486.74 580.09C486.793 580.08 486.847 580.08 486.9 580.09H489.1H490.28V578.4H489.51H487.44C487.385 578.417 487.325 578.417 487.27 578.4C487.254 578.351 487.254 578.299 487.27 578.25V577.1C487.27 577.01 487.27 576.96 487.27 576.93H487.43H489.5H490.27C490.263 576.308 490.223 575.688 490.15 575.07C490.7 575.07 491.27 575.13 491.84 575.2C492.02 575.2 492.11 575.26 492.11 575.36C492.087 575.477 492.05 575.592 492 575.7C491.924 576.105 491.897 576.518 491.92 576.93H493H495.08C495.17 576.93 495.23 576.93 495.24 576.93C495.256 576.982 495.256 577.038 495.24 577.09V578.24C495.24 578.33 495.24 578.38 495.24 578.4H495.08H493H491.9V580.09H493.64H495.84C495.895 580.073 495.955 580.073 496.01 580.09C496.025 580.136 496.025 580.185 496.01 580.23V581.37C496.01 581.46 496.01 581.52 496.01 581.54C496.01 581.56 495.94 581.54 495.85 581.54H493.65L489.11 581.53ZM489.17 584.61H486.99C486.89 584.61 486.83 584.61 486.82 584.61C486.805 584.565 486.805 584.515 486.82 584.47V583.32C486.82 583.23 486.82 583.18 486.82 583.17C486.82 583.16 486.89 583.17 486.98 583.17H489.16H492.39C492.39 582.71 492.39 582.23 492.28 581.73C492.947 581.77 493.497 581.82 493.93 581.88C494.11 581.88 494.21 581.97 494.21 582.06C494.202 582.158 494.175 582.253 494.13 582.34C494.053 582.61 494.026 582.891 494.05 583.17H495.69C495.745 583.153 495.805 583.153 495.86 583.17C495.869 583.22 495.869 583.271 495.86 583.32V584.47C495.876 584.519 495.876 584.571 495.86 584.62C495.86 584.62 495.79 584.62 495.7 584.62H495.48H494.06V588.27C494.086 588.531 494.048 588.794 493.948 589.036C493.849 589.278 493.692 589.493 493.49 589.66C492.823 589.961 492.089 590.086 491.36 590.02C491.197 590.04 491.031 590.015 490.88 589.95C490.808 589.816 490.757 589.67 490.73 589.52C490.639 589.097 490.473 588.694 490.24 588.33C490.75 588.33 491.24 588.4 491.85 588.4C491.922 588.411 491.995 588.406 492.064 588.384C492.134 588.362 492.197 588.325 492.249 588.274C492.302 588.224 492.342 588.162 492.366 588.094C492.39 588.025 492.399 587.952 492.39 587.88V584.62L489.17 584.61ZM489.24 585.09C489.796 585.673 490.298 586.306 490.74 586.98C490.777 587.015 490.802 587.06 490.81 587.11C490.81 587.11 490.76 587.22 490.66 587.29L489.66 587.98C489.604 588.024 489.539 588.054 489.47 588.07C489.47 588.07 489.38 588.07 489.33 587.96C488.908 587.253 488.426 586.584 487.89 585.96C487.84 585.9 487.81 585.86 487.81 585.83C487.81 585.8 487.87 585.73 487.97 585.67L488.89 585.09C488.946 585.05 489.011 585.025 489.08 585.02C489.139 585.026 489.195 585.051 489.24 585.09V585.09Z" fill="#999999"/>
<path d="M499.67 586.22C499.67 586.13 499.74 586.08 499.8 586.08C499.872 586.09 499.943 586.11 500.01 586.14L500.96 586.5C501.1 586.5 501.17 586.61 501.17 586.66C501.175 586.693 501.175 586.727 501.17 586.76C500.775 587.877 500.194 588.918 499.45 589.84C499.403 589.92 499.353 589.96 499.3 589.96C499.224 589.952 499.152 589.925 499.09 589.88L498.09 589.31C497.96 589.23 497.9 589.17 497.9 589.12C497.908 589.07 497.933 589.024 497.97 588.99C498.7 588.177 499.276 587.239 499.67 586.22V586.22ZM503.87 575.03C504.476 575.04 505.08 575.086 505.68 575.17C505.85 575.17 505.93 575.23 505.93 575.33C505.928 575.439 505.907 575.547 505.87 575.65C505.761 576.027 505.721 576.419 505.75 576.81V576.93H509.46H511.59C511.68 576.93 511.73 576.93 511.75 576.93C511.758 576.983 511.758 577.037 511.75 577.09V578.4C511.75 578.51 511.69 578.56 511.57 578.56H509.44H505.73V580H507.91H510.19C510.31 580 510.37 580 510.37 580.16V581.64V583.92V585.37C510.37 585.46 510.37 585.51 510.37 585.53C510.37 585.55 510.3 585.53 510.22 585.53H507.94H502.5H500.22C500.13 585.53 500.08 585.53 500.06 585.53C500.051 585.477 500.051 585.423 500.06 585.37V583.92V581.64V580.16C500.06 580.05 500.12 580 500.24 580H502.52H504V577.15C504 576.431 503.957 575.713 503.87 575V575.03ZM501.8 581.56V583.93H508.62V581.56H501.8ZM503.73 586.4H503.83C503.93 586.4 503.99 586.46 504.01 586.59C504.244 587.559 504.394 588.546 504.46 589.54V589.6C504.46 589.72 504.38 589.78 504.23 589.79L503.01 589.85H502.9C502.877 589.853 502.853 589.851 502.831 589.844C502.809 589.837 502.789 589.824 502.772 589.808C502.756 589.791 502.743 589.771 502.736 589.749C502.729 589.727 502.727 589.703 502.73 589.68C502.711 588.674 502.611 587.67 502.43 586.68C502.43 586.68 502.43 586.62 502.43 586.6C502.43 586.58 502.51 586.47 502.68 586.45L503.73 586.4ZM507.18 586.4C507.613 587.336 507.948 588.315 508.18 589.32C508.182 589.357 508.182 589.393 508.18 589.43C508.18 589.503 508.11 589.553 507.97 589.58L506.8 589.83H506.63C506.56 589.83 506.51 589.78 506.49 589.68C506.326 588.652 506.047 587.646 505.66 586.68C505.65 586.644 505.65 586.606 505.66 586.57C505.66 586.57 505.74 586.48 505.9 586.45L506.9 586.21H507.04C507.08 586.23 507.13 586.29 507.18 586.4ZM510.54 586.07C511.226 587.001 511.803 588.008 512.26 589.07C512.265 589.113 512.265 589.157 512.26 589.2C512.26 589.25 512.2 589.31 512.07 589.37L510.98 589.82C510.916 589.847 510.849 589.864 510.78 589.87C510.78 589.87 510.71 589.87 510.68 589.76C510.268 588.676 509.735 587.643 509.09 586.68C509.074 586.666 509.062 586.649 509.053 586.63C509.045 586.611 509.04 586.591 509.04 586.57C509.04 586.57 509.11 586.47 509.24 586.41L510.14 586.05L510.34 585.99C510.43 586 510.48 586 510.54 586.07V586.07Z" fill="#999999"/>
<path d="M523.53 578.73C523.312 581.188 522.633 583.583 521.53 585.79C521.289 586.335 520.899 586.801 520.406 587.135C519.913 587.469 519.335 587.658 518.74 587.68C518.312 587.669 517.895 587.548 517.527 587.329C517.159 587.11 516.854 586.801 516.64 586.43C516.07 585.537 515.79 584.489 515.84 583.43C515.841 582.63 516.005 581.838 516.323 581.104C516.641 580.369 517.106 579.708 517.69 579.16C518.388 578.464 519.221 577.919 520.138 577.558C521.054 577.197 522.035 577.027 523.02 577.06C523.904 577.008 524.789 577.144 525.617 577.459C526.444 577.775 527.195 578.262 527.82 578.89C528.304 579.407 528.681 580.013 528.93 580.676C529.178 581.338 529.294 582.043 529.27 582.75C529.27 585.723 527.583 587.723 524.21 588.75C524.131 588.763 524.05 588.763 523.97 588.75C523.81 588.75 523.66 588.64 523.51 588.42C523.205 588.006 522.813 587.664 522.36 587.42C523.715 587.183 524.986 586.601 526.05 585.73C526.475 585.315 526.808 584.814 527.025 584.26C527.242 583.707 527.339 583.114 527.31 582.52C527.321 582.005 527.225 581.493 527.029 581.016C526.832 580.54 526.54 580.109 526.17 579.75C525.838 579.421 525.442 579.163 525.007 578.991C524.573 578.819 524.107 578.737 523.64 578.75L523.53 578.73ZM521.62 578.82C520.553 579.01 519.573 579.531 518.82 580.31C518.039 581.119 517.583 582.187 517.54 583.31C517.513 583.942 517.655 584.57 517.95 585.13C518.16 585.48 518.4 585.66 518.65 585.66C519.1 585.66 519.51 585.32 519.89 584.66C520.353 583.765 520.718 582.823 520.98 581.85C521.273 580.858 521.487 579.845 521.62 578.82V578.82Z" fill="#999999"/>
<path d="M540.9 582.16C540.867 582.981 540.76 583.798 540.58 584.6C540.441 585.206 540.222 585.791 539.93 586.34C539.565 587.04 539.096 587.68 538.54 588.24C538.097 588.699 537.596 589.099 537.05 589.43C536.908 589.54 536.738 589.609 536.56 589.63C536.494 589.63 536.428 589.615 536.368 589.588C536.308 589.56 536.254 589.52 536.21 589.47C535.794 589.075 535.295 588.778 534.75 588.6C535.499 588.219 536.198 587.745 536.83 587.19C537.302 586.753 537.7 586.243 538.01 585.68C538.313 585.154 538.532 584.584 538.66 583.99C538.768 583.386 538.832 582.774 538.85 582.16H535.73C535.21 582.16 534.39 582.19 533.27 582.25C533.15 582.25 533.08 582.16 533.06 581.94C532.969 581.422 532.926 580.896 532.93 580.37C533.54 580.37 534.47 580.45 535.72 580.45H543.08C544.25 580.45 545.32 580.45 546.28 580.35C546.4 580.35 546.46 580.46 546.46 580.68C546.46 580.79 546.46 581 546.46 581.31C546.46 581.62 546.46 581.83 546.46 581.94C546.46 582.05 546.38 582.22 546.21 582.22C545.08 582.22 544.04 582.16 543.1 582.16H540.9ZM534.9 576.56C535.9 576.61 536.76 576.64 537.62 576.64H540.62C541.75 576.64 542.67 576.64 543.39 576.57C543.52 576.57 543.59 576.68 543.59 576.89C543.59 577.1 543.59 577.28 543.59 577.48C543.59 577.68 543.59 577.88 543.59 578.08C543.59 578.28 543.51 578.39 543.37 578.39C542.5 578.39 541.58 578.39 540.62 578.39H537.62L535.29 578.46C535.12 578.46 535.03 578.36 535.01 578.18C534.99 578 535.01 577.77 535.01 577.41C535.01 577.05 534.94 576.72 534.93 576.56H534.9ZM543.74 576.02L544.67 575.49H544.76C544.788 575.492 544.815 575.501 544.839 575.514C544.863 575.528 544.884 575.547 544.9 575.57C545.471 576.12 545.944 576.762 546.3 577.47C546.309 577.503 546.309 577.537 546.3 577.57C546.296 577.604 546.284 577.636 546.265 577.664C546.245 577.691 546.22 577.714 546.19 577.73L545.45 578.17H545.34C545.307 578.17 545.274 578.159 545.247 578.139C545.22 578.119 545.2 578.092 545.19 578.06C544.828 577.303 544.348 576.608 543.77 576L543.74 576.02ZM545.34 575.08L546.23 574.57H546.33C546.385 574.584 546.434 574.616 546.47 574.66C547.036 575.184 547.507 575.804 547.86 576.49C547.869 576.53 547.869 576.571 547.86 576.61C547.858 576.647 547.847 576.683 547.828 576.714C547.809 576.746 547.782 576.772 547.75 576.79L547.06 577.23C547.017 577.242 546.972 577.242 546.93 577.23C546.87 577.23 546.82 577.19 546.78 577.11C546.417 576.365 545.942 575.68 545.37 575.08H545.34Z" fill="#999999"/>
<path d="M549.82 581.58C550.994 581.732 552.177 581.798 553.36 581.78H558.64H560.64H562.41H562.49C562.63 581.78 562.7 581.86 562.7 582.02C562.7 582.27 562.7 582.53 562.7 582.79C562.7 583.05 562.7 583.31 562.7 583.56C562.7 583.81 562.63 583.81 562.47 583.81H562.41H558.75H552.85L550.44 584.01C550.344 584.013 550.25 583.978 550.179 583.912C550.108 583.847 550.065 583.756 550.06 583.66C549.931 582.973 549.851 582.278 549.82 581.58V581.58Z" fill="#999999"/>
<path d="M575 583.85C575.635 584.35 576.227 584.902 576.77 585.5C576.799 585.53 576.823 585.566 576.838 585.606C576.853 585.645 576.861 585.688 576.86 585.73C576.857 585.809 576.825 585.883 576.77 585.94C576.465 586.301 576.131 586.635 575.77 586.94C575.713 586.986 575.643 587.014 575.57 587.02C575.501 587.007 575.438 586.972 575.39 586.92C574.898 586.353 574.367 585.822 573.8 585.33C572.289 586.97 570.523 588.355 568.57 589.43C568.445 589.506 568.305 589.554 568.16 589.57C568.044 589.559 567.935 589.509 567.85 589.43C567.386 589.057 566.857 588.772 566.29 588.59C567.504 587.985 568.664 587.279 569.76 586.48C570.678 585.774 571.537 584.994 572.33 584.15C571.595 583.558 570.805 583.039 569.97 582.6C570.62 581.89 570.97 581.5 571.05 581.44C571.074 581.406 571.106 581.378 571.142 581.357C571.178 581.336 571.218 581.324 571.26 581.32C571.318 581.332 571.372 581.356 571.42 581.39C572.158 581.774 572.867 582.212 573.54 582.7C574.303 581.698 574.947 580.611 575.46 579.46L571.39 579.54C570.373 580.907 569.194 582.146 567.88 583.23C567.786 583.309 567.671 583.357 567.55 583.37C567.501 583.371 567.453 583.362 567.408 583.343C567.363 583.324 567.323 583.296 567.29 583.26C566.863 582.954 566.399 582.702 565.91 582.51C566.965 581.688 567.94 580.767 568.82 579.76C569.464 579.009 570.046 578.206 570.56 577.36C570.953 576.742 571.249 576.067 571.44 575.36C572.102 575.571 572.744 575.838 573.36 576.16C573.413 576.182 573.459 576.219 573.491 576.267C573.523 576.316 573.54 576.372 573.54 576.43C573.535 576.496 573.515 576.559 573.48 576.615C573.445 576.671 573.397 576.717 573.34 576.75C573.203 576.841 573.087 576.96 573 577.1C572.87 577.32 572.7 577.6 572.49 577.92L575.38 577.85C575.697 577.851 576.009 577.764 576.28 577.6C576.362 577.538 576.458 577.5 576.56 577.49C576.667 577.503 576.768 577.549 576.85 577.62C577.273 577.894 577.65 578.231 577.97 578.62C578.011 578.658 578.044 578.705 578.066 578.756C578.089 578.808 578.1 578.864 578.1 578.92C578.093 578.981 578.074 579.041 578.043 579.094C578.012 579.148 577.97 579.194 577.92 579.23C577.721 579.405 577.555 579.615 577.43 579.85C576.737 581.251 575.924 582.589 575 583.85V583.85Z" fill="#999999"/>
</svg>
