<svg width="590" height="600" viewBox="0 0 590 600" fill="none" xmlns="http://www.w3.org/2000/svg">
<path d="M294.68 279.79L210.41 90.4999C236.859 78.4602 265.62 72.3476 294.68 72.5899V279.79Z" fill="#3887C1" stroke="white" stroke-width="6" stroke-linecap="round" stroke-linejoin="round"/>
<path d="M294.68 279.79V72.59C409.11 72.59 501.88 165.35 501.88 279.79C501.88 394.23 409.11 487 294.68 487C180.25 487 87.49 394.22 87.49 279.79C87.49 195.56 133.49 124.79 210.41 90.5L294.68 279.79Z" fill="#11376B" stroke="white" stroke-width="6" stroke-linecap="round" stroke-linejoin="round"/>
<path d="M295.12 415.75C370.507 415.75 431.62 354.637 431.62 279.25C431.62 203.863 370.507 142.75 295.12 142.75C219.733 142.75 158.62 203.863 158.62 279.25C158.62 354.637 219.733 415.75 295.12 415.75Z" fill="white"/>
<path d="M295.12 418.75C218.2 418.75 155.62 356.17 155.62 279.25C155.62 202.33 218.2 139.75 295.12 139.75C372.04 139.75 434.62 202.33 434.62 279.25C434.62 356.17 372 418.75 295.12 418.75ZM295.12 145.75C221.51 145.75 161.62 205.64 161.62 279.25C161.62 352.86 221.51 412.75 295.12 412.75C368.73 412.75 428.62 352.87 428.62 279.25C428.62 205.63 368.74 145.75 295.12 145.75Z" fill="white"/>
<path d="M224.25 269.32L220.14 269.38C220.033 269.395 219.924 269.374 219.83 269.32C219.807 269.231 219.807 269.138 219.83 269.05V266.49C219.83 266.32 219.83 266.22 219.9 266.18C219.992 266.155 220.088 266.155 220.18 266.18L224.29 266.24H241.23L245.36 266.18C245.52 266.18 245.62 266.18 245.65 266.24C245.676 266.335 245.676 266.435 245.65 266.53V269.09C245.65 269.25 245.65 269.34 245.58 269.37C245.51 269.4 245.45 269.42 245.31 269.42L241.18 269.36H235.13V276.73H239.48L243.28 276.67C243.49 276.67 243.59 276.78 243.59 277.01V279.55C243.59 279.78 243.49 279.89 243.28 279.89L239.48 279.83H235.13V288.17H242.43L246.33 288.11C246.54 288.11 246.65 288.23 246.65 288.46V291C246.65 291.23 246.54 291.35 246.33 291.35L242.43 291.29H222.93L219.06 291.35C218.86 291.35 218.76 291.23 218.76 291V288.42C218.76 288.19 218.86 288.07 219.06 288.07L222.93 288.13H223.4V279.13C223.426 277.543 223.346 275.956 223.16 274.38C224.61 274.38 225.8 274.49 226.74 274.61C227.09 274.61 227.27 274.76 227.27 274.97C227.25 275.215 227.171 275.452 227.04 275.66C226.837 276.784 226.766 277.929 226.83 279.07V288.16H231.67V269.32H224.25Z" fill="#11376B"/>
<path d="M248.92 281.67C250.855 280.461 252.59 278.956 254.06 277.21C255.287 275.775 256.298 274.168 257.06 272.44H253.53L250.22 272.5C250.116 272.514 250.01 272.493 249.92 272.44C249.878 272.356 249.861 272.263 249.87 272.17V269.85C249.87 269.69 249.87 269.59 249.95 269.55C250.033 269.506 250.127 269.488 250.22 269.5L253.53 269.58H254.12V268.3C254.147 267.025 254.067 265.751 253.88 264.49C255 264.49 256.08 264.56 257.12 264.7C257.46 264.7 257.63 264.84 257.63 265.02C257.608 265.249 257.547 265.472 257.45 265.68C257.251 266.491 257.184 267.328 257.25 268.16V269.58H258.56C258.766 269.59 258.97 269.542 259.15 269.44C259.257 269.377 259.376 269.336 259.5 269.32C259.7 269.32 260.09 269.59 260.66 270.13C261.23 270.67 261.5 271.06 261.5 271.25C261.493 271.354 261.461 271.454 261.407 271.543C261.353 271.631 261.279 271.706 261.19 271.76C260.902 272.021 260.656 272.324 260.46 272.66C259.708 274.249 258.821 275.772 257.81 277.21C259.136 278.666 260.685 279.902 262.4 280.87C261.875 281.462 261.452 282.138 261.15 282.87C260.93 283.33 260.74 283.56 260.55 283.56C260.31 283.498 260.094 283.366 259.93 283.18C258.951 282.296 258.055 281.325 257.25 280.28V289.06L257.31 292.73C257.322 292.837 257.301 292.945 257.25 293.04C257.144 293.063 257.035 293.063 256.93 293.04H254.43C254.32 293.054 254.208 293.033 254.11 292.98C254.068 292.889 254.051 292.789 254.06 292.69L254.12 289.02V281.55C253.18 282.481 252.178 283.346 251.12 284.14C250.94 284.33 250.717 284.474 250.47 284.56C250.34 284.56 250.17 284.32 249.98 283.84C249.733 283.069 249.376 282.338 248.92 281.67V281.67ZM264.55 291.91L260.36 291.97C260.2 291.97 260.11 291.97 260.08 291.91C260.05 291.85 260.03 291.78 260.03 291.64V289.17C260.02 289.067 260.037 288.964 260.08 288.87C260.167 288.828 260.264 288.81 260.36 288.82L264.55 288.88H267.17V277.23H265.77H261.84C261.795 277.251 261.745 277.258 261.696 277.25C261.647 277.242 261.602 277.218 261.567 277.183C261.532 277.148 261.508 277.103 261.5 277.054C261.492 277.005 261.499 276.955 261.52 276.91V274.44C261.52 274.287 261.54 274.197 261.58 274.17C261.58 274.17 261.7 274.17 261.84 274.17H265.77H267.17V269.17C267.196 267.596 267.116 266.023 266.93 264.46C268.27 264.46 269.42 264.57 270.39 264.67C270.72 264.67 270.89 264.82 270.89 264.99C270.89 265.218 270.839 265.444 270.74 265.65C270.488 266.775 270.4 267.93 270.48 269.08V274.14H272.48H276.41C276.58 274.14 276.68 274.14 276.71 274.14C276.753 274.219 276.77 274.31 276.76 274.4V276.87C276.76 277.03 276.76 277.13 276.68 277.16C276.591 277.178 276.499 277.178 276.41 277.16H272.48H270.48V288.81H273.31L277.47 288.75C277.65 288.75 277.75 288.75 277.79 288.81C277.815 288.905 277.815 289.005 277.79 289.1V291.57C277.79 291.73 277.79 291.83 277.73 291.86C277.628 291.884 277.522 291.884 277.42 291.86L273.26 291.8L264.55 291.91Z" fill="#11376B"/>
<path d="M291.86 288.88C292.14 289.07 292.27 289.24 292.27 289.38C292.27 289.52 292.11 289.75 291.77 289.83C291.344 289.972 290.935 290.16 290.55 290.39C288.371 291.644 286.009 292.549 283.55 293.07L282.89 293.19C282.813 293.191 282.736 293.172 282.668 293.135C282.6 293.098 282.542 293.045 282.5 292.98C282.369 292.778 282.252 292.568 282.15 292.35C281.779 291.614 281.297 290.939 280.72 290.35C283.145 290.097 285.511 289.441 287.72 288.41C288.289 288.165 288.812 287.827 289.27 287.41H288.53L284.18 287.47C284.07 287.484 283.958 287.463 283.86 287.41C283.836 287.315 283.836 287.215 283.86 287.12L283.92 283.86V277.37L283.86 274.06C283.86 273.893 283.88 273.793 283.92 273.76C284.014 273.717 284.117 273.7 284.22 273.71L288.57 273.77H300.62L304.94 273.71C305.047 273.697 305.156 273.718 305.25 273.77C305.273 273.865 305.273 273.965 305.25 274.06L305.19 277.37V283.86L305.25 287.12C305.25 287.28 305.25 287.38 305.2 287.42C305.106 287.463 305.003 287.48 304.9 287.47L300.58 287.41H289.46C290.303 287.825 291.107 288.317 291.86 288.88V288.88ZM299 265.51L303.17 265.45C303.277 265.437 303.386 265.458 303.48 265.51C303.504 265.605 303.504 265.705 303.48 265.8L303.42 267.89V269.89L303.48 271.95C303.48 272.12 303.48 272.23 303.42 272.26C303.325 272.284 303.225 272.284 303.13 272.26L298.96 272.2H290.06L285.87 272.26C285.71 272.26 285.61 272.26 285.58 272.2C285.538 272.109 285.521 272.009 285.53 271.91L285.6 269.85V267.85L285.53 265.76C285.53 265.59 285.53 265.49 285.6 265.46C285.684 265.418 285.777 265.401 285.87 265.41L290.06 265.47L299 265.51ZM287.08 276.22V277.75H302V276.22H287.08ZM287.08 281.37H302V279.8H287.09L287.08 281.37ZM301.97 285.07V283.46H287.09V285.07H301.97ZM300.22 269.91V267.91H288.89V269.91H300.22ZM308.35 290.39C307.762 290.954 307.251 291.593 306.83 292.29C306.483 292.83 306.213 293.1 306.02 293.1L305.37 292.98C302.418 292.349 299.61 291.172 297.09 289.51C296.97 289.41 296.91 289.33 296.91 289.26C296.91 289.19 297.01 289.06 297.21 288.94L299.12 287.74C299.23 287.628 299.374 287.557 299.53 287.54C299.615 287.555 299.696 287.586 299.77 287.63C302.42 289.115 305.341 290.054 308.36 290.39H308.35Z" fill="#11376B"/>
<path d="M325.17 285.12C325.17 285.473 325.17 285.823 325.17 286.17C325.17 286.51 325.17 286.86 325.17 287.17C325.17 287.48 325.17 287.55 325.17 287.67C325.183 287.775 325.173 287.881 325.14 287.981C325.108 288.082 325.053 288.174 324.98 288.25C324.767 288.378 324.543 288.485 324.31 288.57C321.21 289.777 317.937 290.867 314.49 291.84C314.141 291.934 313.804 292.071 313.49 292.25C313.347 292.368 313.174 292.444 312.99 292.47C312.82 292.47 312.69 292.32 312.59 292.03C312.3 290.952 312.083 289.857 311.94 288.75C312.55 288.68 313.49 288.53 314.74 288.29L315.39 288.17V270.05C315.401 268.464 315.331 266.879 315.18 265.3C316.53 265.3 317.66 265.42 318.58 265.53C318.91 265.53 319.08 265.67 319.08 265.86C319.058 266.089 318.997 266.312 318.9 266.52C318.696 267.665 318.629 268.829 318.7 269.99V274.17H321.14L324.81 274.1C325.04 274.1 325.16 274.21 325.16 274.41V276.91C325.16 277.077 325.14 277.177 325.1 277.21C325.009 277.252 324.909 277.269 324.81 277.26L321.14 277.2H318.7V287.33C320.897 286.718 323.057 285.98 325.17 285.12V285.12ZM337.17 270.36C338.019 270.994 338.812 271.7 339.54 272.47C339.705 272.615 339.806 272.82 339.82 273.04C339.82 273.23 339.67 273.37 339.38 273.45C338.82 273.717 338.296 274.053 337.82 274.45C335.582 276.29 333.135 277.861 330.53 279.13V287.18C330.53 288.18 330.66 288.77 330.94 289.03C331.757 289.334 332.633 289.447 333.5 289.36C334.471 289.468 335.449 289.238 336.27 288.71C336.624 288.284 336.828 287.753 336.85 287.2C336.93 286.59 336.97 285.55 336.99 284.09C337.723 284.499 338.506 284.812 339.32 285.02C339.548 285.064 339.766 285.153 339.96 285.28C340.057 285.413 340.099 285.577 340.08 285.74C340.08 285.82 340.08 285.94 340.08 286.09C340.062 287.369 339.874 288.64 339.52 289.87C339.344 290.464 338.996 290.994 338.52 291.39C337.58 292.08 335.88 292.39 333.4 292.39C332.23 292.417 331.059 292.35 329.9 292.19C329.342 292.11 328.807 291.912 328.33 291.61C327.965 291.366 327.683 291.017 327.52 290.61C327.344 290.023 327.266 289.412 327.29 288.8V270.36C327.315 268.64 327.235 266.92 327.05 265.21C328.173 265.224 329.294 265.294 330.41 265.42C330.83 265.49 331.04 265.64 331.04 265.86C331.025 266.086 330.949 266.304 330.82 266.49C330.591 267.692 330.517 268.919 330.6 270.14V275.69C332.422 274.638 334.131 273.402 335.7 272C336.264 271.536 336.748 270.982 337.13 270.36H337.17Z" fill="#11376B"/>
<path d="M348.26 269.82L344.26 269.88C344.1 269.88 344 269.88 343.97 269.82C343.929 269.736 343.911 269.643 343.92 269.55V267.39C343.92 267.21 343.92 267.11 343.98 267.07C344.067 267.028 344.164 267.01 344.26 267.02L348.26 267.08H355.79C355.82 266.151 355.743 265.221 355.56 264.31C357.02 264.35 358.13 264.41 358.89 264.49C359.21 264.49 359.37 264.63 359.37 264.83C359.334 265.025 359.27 265.214 359.18 265.39C359.074 265.947 359.033 266.514 359.06 267.08H366.8L370.8 267.02C370.98 267.02 371.09 267.02 371.12 267.1C371.163 267.19 371.181 267.291 371.17 267.39V269.55C371.17 269.71 371.17 269.81 371.11 269.84C371.008 269.864 370.902 269.864 370.8 269.84L366.8 269.78H357.1L358.1 270.41C358.35 270.57 358.48 270.73 358.48 270.88C358.48 271.03 358.36 271.1 358.13 271.21C357.871 271.349 357.645 271.544 357.47 271.78C356.879 272.533 356.245 273.251 355.57 273.93L357.02 275.25L359.02 272.91C359.494 272.341 359.903 271.72 360.24 271.06C361.05 271.509 361.816 272.031 362.53 272.62C362.75 272.82 362.86 272.99 362.86 273.12C362.86 273.25 362.72 273.38 362.45 273.5C362.046 273.782 361.682 274.118 361.37 274.5C359.823 276.282 358.152 277.953 356.37 279.5C357.54 279.41 359.05 279.27 360.9 279.05C360.63 278.59 360.33 278.1 359.98 277.59C359.932 277.522 359.901 277.443 359.89 277.36C359.89 277.29 360.01 277.2 360.24 277.09L361.7 276.31C361.776 276.263 361.861 276.232 361.95 276.22C362.02 276.22 362.1 276.3 362.21 276.46C363.295 278.043 364.241 279.716 365.04 281.46C365.081 281.535 365.108 281.616 365.12 281.7C365.12 281.79 365.01 281.88 364.79 281.99L363.1 282.89C363.014 282.951 362.915 282.989 362.81 283C362.69 283 362.59 282.88 362.51 282.65L361.95 281.25C359.73 281.58 357.7 281.84 355.84 282.03L358.84 282.3C359.16 282.3 359.32 282.47 359.32 282.68C359.292 282.867 359.227 283.047 359.13 283.21C359.021 283.668 358.98 284.14 359.01 284.61H367.27L371.17 284.55C371.33 284.55 371.43 284.55 371.46 284.61C371.477 284.703 371.477 284.798 371.46 284.89V287.17C371.46 287.34 371.46 287.43 371.41 287.46C371.328 287.504 371.233 287.522 371.14 287.51L367.24 287.45H359V289.54L359.06 292.84C359.073 292.947 359.052 293.056 359 293.15C358.905 293.174 358.805 293.174 358.71 293.15H356.03C355.87 293.15 355.77 293.15 355.74 293.09C355.715 292.995 355.715 292.895 355.74 292.8L355.81 289.5V287.41H347.88L343.98 287.47C343.77 287.47 343.66 287.36 343.66 287.13V284.85C343.654 284.806 343.658 284.761 343.672 284.718C343.685 284.675 343.708 284.636 343.739 284.604C343.77 284.571 343.807 284.546 343.849 284.529C343.891 284.513 343.935 284.507 343.98 284.51L347.88 284.57H355.81C355.827 283.716 355.76 282.862 355.61 282.02C354.28 282.15 353.35 282.23 352.84 282.26C352.451 282.317 352.071 282.424 351.71 282.58C351.564 282.645 351.409 282.685 351.25 282.7C351.1 282.7 350.97 282.55 350.87 282.26C350.689 281.503 350.555 280.734 350.47 279.96C350.01 280.26 349.343 280.67 348.47 281.19L346.65 282.32C346.289 282.481 345.965 282.716 345.7 283.01C345.54 283.22 345.39 283.33 345.24 283.33C345.148 283.33 345.058 283.303 344.98 283.253C344.902 283.204 344.84 283.133 344.8 283.05C344.41 282.26 344 281.33 343.58 280.26C344.284 280.029 344.973 279.752 345.64 279.43C347.351 278.635 349.002 277.715 350.58 276.68C350.709 277.267 350.897 277.84 351.14 278.39C351.23 278.637 351.301 278.891 351.35 279.15C351.35 279.29 351.21 279.47 350.91 279.67L352.18 279.72H352.51C353.11 279.22 353.97 278.43 355.1 277.36C353.783 276.071 352.383 274.868 350.91 273.76C350.77 273.673 350.7 273.593 350.7 273.52C350.715 273.409 350.768 273.306 350.85 273.23L352.13 271.89C352.29 271.71 352.42 271.62 352.51 271.62C352.601 271.634 352.685 271.676 352.75 271.74L353.59 272.36C354.22 271.61 354.68 271.04 354.98 270.64C355.149 270.379 355.303 270.109 355.44 269.83L348.26 269.82ZM346.89 270.69C348.392 271.822 349.752 273.131 350.94 274.59C351.008 274.669 351.05 274.767 351.06 274.87C351.06 274.97 350.96 275.09 350.76 275.25L349 276.59C348.898 276.695 348.765 276.765 348.62 276.79C348.568 276.783 348.519 276.764 348.475 276.734C348.432 276.705 348.396 276.666 348.37 276.62C347.301 275.08 346.038 273.685 344.61 272.47C344.5 272.37 344.44 272.3 344.44 272.25C344.44 272.2 344.53 272.08 344.7 271.94L346.25 270.72C346.348 270.635 346.464 270.573 346.59 270.54C346.648 270.543 346.704 270.558 346.756 270.584C346.807 270.61 346.853 270.646 346.89 270.69ZM367.99 270.17C368.99 270.92 369.73 271.52 370.23 271.97C370.38 272.118 370.466 272.319 370.47 272.53C370.47 272.74 370.31 272.88 370 272.95C369.602 273.066 369.233 273.267 368.92 273.54C367.92 274.3 366.92 275.04 365.79 275.75C365.563 275.936 365.301 276.075 365.02 276.16C364.84 276.16 364.63 275.94 364.36 275.5C364.001 274.994 363.582 274.533 363.11 274.13C364.411 273.35 365.645 272.463 366.8 271.48C367.258 271.1 367.662 270.66 368 270.17H367.99ZM365.89 276.5C367.834 277.61 369.666 278.906 371.36 280.37C371.431 280.45 371.483 280.546 371.51 280.65C371.499 280.777 371.446 280.896 371.36 280.99L369.76 282.74C369.715 282.807 369.656 282.864 369.587 282.908C369.518 282.951 369.441 282.979 369.36 282.99C369.221 282.96 369.098 282.882 369.01 282.77C367.562 281.169 365.9 279.775 364.07 278.63C363.93 278.52 363.86 278.43 363.86 278.37C363.86 278.31 363.94 278.21 364.09 278.03L365.32 276.62C365.44 276.46 365.55 276.39 365.63 276.39C365.724 276.405 365.814 276.443 365.89 276.5V276.5Z" fill="#11376B"/>
<path d="M387 306.81H205V251.51H387V306.81ZM207 304.81H385V253.51H207V304.81Z" fill="#11376B"/>
<path d="M316.29 507.86L313.2 507.91C313.123 507.92 313.045 507.902 312.98 507.86C312.958 507.795 312.958 507.725 312.98 507.66V505.74C312.98 505.62 312.98 505.54 313.04 505.51C313.105 505.49 313.175 505.49 313.24 505.51H316.33H329H332.1C332.22 505.51 332.3 505.51 332.32 505.51C332.337 505.582 332.337 505.658 332.32 505.73V507.65C332.32 507.77 332.32 507.84 332.32 507.86C332.32 507.88 332.22 507.86 332.11 507.86L329.01 507.81H324.48V513.34H327.73H330.59C330.74 513.34 330.82 513.42 330.82 513.59V515.5C330.82 515.66 330.74 515.75 330.59 515.75H327.73H324.48V522H329.95H332.88C333.04 522 333.12 522.09 333.12 522.26V524.19C333.12 524.37 333.04 524.45 332.88 524.45H329.95H315.31H312.4C312.25 524.45 312.18 524.37 312.18 524.19V522.26C312.18 522.09 312.25 522 312.4 522H315.31H315.66V515.2C315.679 514.007 315.619 512.815 315.48 511.63C316.57 511.63 317.48 511.72 318.16 511.8C318.43 511.8 318.56 511.92 318.56 512.08C318.542 512.261 318.484 512.435 318.39 512.59C318.234 513.434 318.18 514.293 318.23 515.15V522H321.86V507.86H316.29Z" fill="#121212"/>
<path d="M335.26 517.13C336.71 516.221 338.009 515.09 339.11 513.78C340.034 512.705 340.798 511.503 341.38 510.21H338.72H336.25C336.12 510.21 336.05 510.21 336.02 510.21C335.998 510.142 335.998 510.068 336.02 510V508.26C336.02 508.14 336.02 508.06 336.08 508.03C336.149 508.011 336.221 508.011 336.29 508.03L338.76 508.09H339.21V507.09C339.23 506.133 339.17 505.177 339.03 504.23C339.87 504.23 340.68 504.31 341.46 504.39C341.71 504.39 341.84 504.49 341.84 504.63C341.822 504.8 341.774 504.966 341.7 505.12C341.554 505.729 341.504 506.356 341.55 506.98V508.05H342.55C342.704 508.057 342.857 508.019 342.99 507.94C343.07 507.893 343.158 507.863 343.25 507.85C343.41 507.85 343.69 508.05 344.12 508.46C344.55 508.87 344.75 509.16 344.75 509.3C344.743 509.377 344.718 509.451 344.679 509.516C344.639 509.582 344.585 509.638 344.52 509.68C344.307 509.877 344.122 510.103 343.97 510.35C343.402 511.545 342.733 512.689 341.97 513.77C342.963 514.861 344.125 515.786 345.41 516.51C345.022 516.965 344.708 517.478 344.48 518.03C344.32 518.38 344.17 518.55 344.03 518.55C343.89 518.55 343.78 518.45 343.56 518.26C342.831 517.597 342.162 516.871 341.56 516.09V522.67L341.61 525.43C341.62 525.507 341.602 525.585 341.56 525.65C341.481 525.672 341.399 525.672 341.32 525.65H339.4C339.317 525.66 339.232 525.643 339.16 525.6C339.142 525.531 339.142 525.459 339.16 525.39L339.21 522.63V517.03C338.507 517.725 337.763 518.376 336.98 518.98C336.843 519.118 336.675 519.22 336.49 519.28C336.39 519.28 336.27 519.11 336.12 518.75C335.914 518.171 335.624 517.625 335.26 517.13V517.13ZM347 524.81H343.85C343.73 524.81 343.66 524.81 343.64 524.81C343.62 524.81 343.64 524.71 343.64 524.6V522.75C343.62 522.678 343.62 522.602 343.64 522.53C343.64 522.53 343.74 522.53 343.85 522.53H347H349V513.79H347.9H344.95C344.885 513.81 344.815 513.81 344.75 513.79C344.75 513.79 344.75 513.7 344.75 513.59V511.73C344.75 511.62 344.75 511.55 344.8 511.53C344.85 511.51 344.88 511.53 344.99 511.53H347.94H349V507.8C349.019 506.621 348.959 505.441 348.82 504.27C349.82 504.27 350.69 504.36 351.41 504.43C351.66 504.43 351.79 504.54 351.79 504.67C351.79 504.841 351.748 505.009 351.67 505.16C351.483 506.006 351.419 506.875 351.48 507.74V511.53H352.95H355.95C356.025 511.511 356.105 511.511 356.18 511.53C356.197 511.592 356.197 511.658 356.18 511.72V513.58C356.18 513.7 356.18 513.77 356.13 513.79C356.061 513.807 355.989 513.807 355.92 513.79H352.92H351.45V522.53H353.57H356.69C356.82 522.53 356.9 522.53 356.93 522.53C356.952 522.602 356.952 522.678 356.93 522.75V524.6C356.94 524.677 356.922 524.755 356.88 524.82C356.804 524.838 356.726 524.838 356.65 524.82H353.53L347 524.81Z" fill="#121212"/>
<path d="M368 522.53C368.21 522.68 368.31 522.8 368.31 522.91C368.31 523.02 368.18 523.19 367.93 523.24C367.614 523.35 367.309 523.491 367.02 523.66C365.394 524.6 363.628 525.275 361.79 525.66L361.3 525.76C361.242 525.759 361.185 525.744 361.135 525.716C361.084 525.689 361.041 525.648 361.01 525.6C360.908 525.45 360.818 525.293 360.74 525.13C360.462 524.584 360.101 524.085 359.67 523.65C361.479 523.461 363.243 522.971 364.89 522.2C365.318 522.024 365.714 521.777 366.06 521.47H365.5H362.24C362.162 521.496 362.078 521.496 362 521.47C361.983 521.398 361.983 521.322 362 521.25V518.81V514V511.52C362 511.39 362 511.32 362 511.29C362.076 511.273 362.154 511.273 362.23 511.29L365.49 511.34H374.49L377.73 511.29C377.81 511.281 377.891 511.299 377.96 511.34C377.976 511.409 377.976 511.481 377.96 511.55V514.03V518.9V521.34C377.96 521.47 377.96 521.54 377.96 521.57C377.888 521.59 377.812 521.59 377.74 521.57H374.5H366.15C366.792 521.838 367.411 522.16 368 522.53V522.53ZM373.32 505L376.45 504.95C376.53 504.941 376.611 504.959 376.68 505C376.696 505.069 376.696 505.141 376.68 505.21V506.78V508.3V509.84C376.68 509.97 376.68 510.05 376.68 510.07C376.607 510.085 376.532 510.085 376.46 510.07H373.33H366.66H363.51C363.39 510.07 363.32 510.07 363.3 510.07C363.278 509.998 363.278 509.922 363.3 509.85L363.35 508.31V506.79L363.3 505.22C363.29 505.14 363.307 505.059 363.35 504.99C363.416 504.974 363.484 504.974 363.55 504.99L366.7 505.04L373.32 505ZM364.38 513V514.14H375.55V513H364.38ZM364.38 516.86H375.55V515.68H364.38V516.86ZM375.55 519.64V518.43H364.38V519.64H375.55ZM374.23 508.27V506.79H365.73V508.27H374.23ZM380.33 523.62C379.894 524.049 379.511 524.529 379.19 525.05C378.93 525.46 378.73 525.66 378.58 525.66L378.09 525.57C375.878 525.097 373.774 524.212 371.89 522.96C371.8 522.89 371.75 522.83 371.75 522.78C371.75 522.73 371.83 522.63 371.98 522.54L373.41 521.64C373.492 521.554 373.602 521.501 373.72 521.49C373.784 521.5 373.846 521.524 373.9 521.56C375.879 522.689 378.066 523.403 380.33 523.66V523.62Z" fill="#121212"/>
<path d="M82.93 30.68H79.85C79.73 30.68 79.66 30.68 79.64 30.68C79.62 30.68 79.64 30.58 79.64 30.47V28.83C79.64 28.7 79.64 28.63 79.69 28.61C79.7556 28.5931 79.8245 28.5931 79.89 28.61L82.97 28.66H87.97C88.0442 28.2679 88.0777 27.8691 88.07 27.47C88.07 27.22 88.07 26.95 88.07 26.67C88.95 26.72 89.71 26.79 90.37 26.88C90.66 26.93 90.81 27.03 90.81 27.16C90.8056 27.2399 90.7852 27.3181 90.75 27.39L90.65 27.63C90.5181 27.9487 90.4371 28.2862 90.41 28.63H96.19L99.19 28.58C99.33 28.58 99.41 28.58 99.43 28.63C99.4537 28.698 99.4537 28.772 99.43 28.84V30.48C99.43 30.59 99.43 30.67 99.43 30.69C99.43 30.71 99.32 30.69 99.19 30.69H96.19H91.49C92.5431 31.8773 93.8872 32.7699 95.39 33.28C96.9846 33.8325 98.6461 34.1689 100.33 34.28C99.9834 34.7782 99.7106 35.3238 99.52 35.9C99.4525 36.0853 99.3724 36.2658 99.28 36.44C99.246 36.4799 99.2026 36.5108 99.1538 36.53C99.105 36.5492 99.0522 36.5561 99 36.55C98.837 36.5645 98.6731 36.5645 98.51 36.55C94.3434 35.8834 91.3434 34.26 89.51 31.68C88.0767 34.16 85.16 35.7767 80.76 36.53C80.5919 36.5632 80.4213 36.5833 80.25 36.59C80.1 36.59 79.92 36.38 79.73 35.97C79.5101 35.4195 79.1954 34.9118 78.8 34.47C80.6716 34.2449 82.5006 33.7498 84.23 33C85.4023 32.5163 86.4095 31.7036 87.13 30.66L82.93 30.68ZM86.1 19.35H85.59V20.8H85.69H88.07C88.23 20.8 88.31 20.88 88.31 21.05V22.46C88.31 22.61 88.23 22.68 88.07 22.68H85.69V24.23C86.79 24.03 87.88 23.8 88.96 23.52C88.8308 23.942 88.7568 24.379 88.74 24.82C89.8632 24.2525 90.7899 23.3606 91.4 22.26C91.9355 21.1082 92.2315 19.8597 92.27 18.59H90.53H90.02C89.89 18.59 89.82 18.59 89.8 18.59C89.783 18.5109 89.783 18.4291 89.8 18.35V16.7C89.8 16.58 89.8 16.51 89.8 16.49C89.8 16.47 89.9 16.49 90.01 16.49L92.68 16.54H96.42L99.07 16.49C99.29 16.49 99.4 16.58 99.4 16.75V16.81C99.3518 17.2383 99.3284 17.669 99.33 18.1C99.4053 20.3593 99.1834 22.6186 98.67 24.82C98.5471 25.4122 98.2094 25.938 97.722 26.2962C97.2346 26.6544 96.6319 26.8196 96.03 26.76C95.49 26.76 95.03 26.76 94.76 26.76C94.49 26.76 94.25 26.68 94.2 26.6C94.1092 26.3979 94.055 26.1812 94.04 25.96C93.9591 25.4458 93.8006 24.9468 93.57 24.48C94.1701 24.5972 94.7789 24.6641 95.39 24.68C95.99 24.68 96.39 24.46 96.5 24.03C96.9207 22.2485 97.1089 20.4199 97.06 18.59H94.58C94.5338 20.2783 94.1317 21.9378 93.4 23.46C92.7763 24.629 91.8509 25.6096 90.72 26.3C90.556 26.4239 90.3739 26.5217 90.18 26.59C90.07 26.59 89.88 26.41 89.63 26.05C89.3638 25.721 89.062 25.4226 88.73 25.16C88.7233 25.2267 88.703 25.2912 88.6703 25.3497C88.6376 25.4082 88.5933 25.4594 88.54 25.5C88.383 25.5778 88.214 25.6285 88.04 25.65C85.74 26.19 83.4567 26.6434 81.19 27.01C80.9067 27.0611 80.6311 27.1485 80.37 27.27C80.2631 27.3341 80.1438 27.375 80.02 27.39C79.92 27.39 79.83 27.28 79.74 27.08C79.561 26.3952 79.4208 25.7007 79.32 25C80.1159 24.9947 80.9107 24.9413 81.7 24.84L83.51 24.6L83.46 22.68H82.9H80.52C80.34 22.68 80.25 22.61 80.25 22.46V21C80.2249 20.9289 80.2249 20.8512 80.25 20.78C80.3224 20.763 80.3977 20.763 80.47 20.78H82.85H83.34V19.33H82.56L80 19.4C79.87 19.4 79.79 19.4 79.77 19.4C79.75 19.4 79.77 19.3 79.77 19.19V17.69C79.7441 17.6121 79.7441 17.5279 79.77 17.45C79.77 17.45 79.87 17.45 79.99 17.45L82.6 17.5H83.32C83.309 16.758 83.2321 16.0184 83.09 15.29C83.92 15.29 84.68 15.38 85.38 15.46C85.63 15.46 85.76 15.57 85.76 15.71C85.7552 15.8609 85.714 16.0084 85.64 16.14C85.549 16.4136 85.515 16.7028 85.54 16.99C85.54 17.11 85.54 17.28 85.54 17.5H86.12L88.73 17.45C88.85 17.45 88.92 17.45 88.94 17.5C88.962 17.5751 88.962 17.6549 88.94 17.73V19.18C88.966 19.2545 88.966 19.3356 88.94 19.41C88.8743 19.4258 88.8058 19.4258 88.74 19.41L86.1 19.35Z" fill="#121212"/>
<path d="M111.09 22.78C111.82 24.12 112.403 25.5349 112.83 27C112.83 27.08 112.83 27.13 112.83 27.17C112.83 27.21 112.73 27.41 112.52 27.47L111.29 27.87H111.08C110.98 27.87 110.92 27.81 110.89 27.68L110.6 26.62C110.25 26.62 109.71 26.73 108.99 26.79V33.22V36.28C109.014 36.3547 109.014 36.4353 108.99 36.51C108.924 36.5257 108.856 36.5257 108.79 36.51H107C106.87 36.51 106.79 36.51 106.77 36.51C106.75 36.51 106.77 36.41 106.77 36.29V33.23V27L104.56 27.14C104.267 27.1468 103.978 27.2114 103.71 27.33C103.603 27.4024 103.479 27.4439 103.35 27.45C103.21 27.45 103.12 27.31 103.07 27.05C102.95 26.48 102.84 25.83 102.75 25.05C103.317 25.09 103.797 25.11 104.19 25.11H104.69L105.99 23.34C105.034 22.1542 103.995 21.0381 102.88 20C102.79 19.9 102.74 19.83 102.74 19.78C102.774 19.6737 102.828 19.5751 102.9 19.49L103.77 18.33C103.86 18.19 103.94 18.12 104 18.12C104.082 18.1446 104.156 18.1934 104.21 18.26L104.8 18.87C105.259 18.1064 105.676 17.3186 106.05 16.51C106.287 16.0277 106.471 15.5215 106.6 15C107.282 15.2501 107.949 15.5372 108.6 15.86C108.8 15.97 108.9 16.1 108.9 16.24C108.9 16.38 108.84 16.43 108.7 16.55C108.509 16.6994 108.355 16.8911 108.25 17.11C107.5 18.39 106.81 19.47 106.19 20.33L107.19 21.5C107.65 20.79 108.19 19.92 108.77 18.91C109.046 18.3867 109.286 17.8455 109.49 17.29C110.38 17.71 111.04 18.04 111.49 18.29C111.68 18.4 111.77 18.52 111.77 18.65C111.764 18.7269 111.736 18.8005 111.69 18.8624C111.644 18.9243 111.582 18.972 111.51 19C111.191 19.2802 110.929 19.6198 110.74 20C109.642 21.7508 108.454 23.4431 107.18 25.07C108.49 25.01 109.42 24.95 109.97 24.92C109.72 24.31 109.5 23.82 109.3 23.44C109.287 23.3807 109.287 23.3193 109.3 23.26C109.3 23.19 109.4 23.12 109.59 23.04L110.67 22.66C110.746 22.6495 110.824 22.6495 110.9 22.66C110.967 22.62 111.03 22.66 111.09 22.78ZM102.81 34.18C103.335 32.7327 103.671 31.2235 103.81 29.69C103.828 29.3836 103.828 29.0764 103.81 28.77C103.81 28.66 103.81 28.53 103.81 28.38L105.62 28.63C105.89 28.68 106.02 28.77 106.02 28.92C105.988 29.0421 105.941 29.1596 105.88 29.27C105.796 29.5084 105.745 29.7575 105.73 30.01C105.579 31.5319 105.281 33.0356 104.84 34.5C104.75 34.85 104.64 35.02 104.52 35.02C104.319 34.9742 104.133 34.8778 103.98 34.74C103.62 34.4959 103.226 34.3071 102.81 34.18V34.18ZM111.25 28.31C111.32 28.2991 111.39 28.2991 111.46 28.31C111.54 28.31 111.61 28.39 111.68 28.56C112.17 30.0057 112.565 31.4823 112.86 32.98C112.866 33.0332 112.866 33.0868 112.86 33.14C112.86 33.25 112.76 33.34 112.56 33.4L111.33 33.82C111.247 33.8528 111.159 33.873 111.07 33.88C110.99 33.88 110.93 33.8 110.9 33.64C110.663 32.1149 110.309 30.6104 109.84 29.14C109.816 29.0787 109.8 29.015 109.79 28.95C109.79 28.87 109.88 28.8 110.06 28.75L111.25 28.31ZM111.25 22.64C112.77 21.0341 113.908 19.1064 114.58 17C114.79 16.3489 114.937 15.6792 115.02 15C115.8 15.15 116.56 15.31 117.3 15.49C117.62 15.59 117.79 15.72 117.79 15.87C117.775 16.05 117.693 16.2177 117.56 16.34C117.243 16.6746 117.016 17.084 116.9 17.53C116.65 18.22 116.47 18.7 116.36 18.95H120.78H123.14C123.33 18.95 123.42 19.04 123.42 19.22C123.42 19.66 123.42 20.31 123.42 21.16C123.469 25.0811 123.242 29.0008 122.74 32.89C122.656 33.9194 122.23 34.8911 121.53 35.65C120.876 36.1965 120.041 36.4783 119.19 36.44H118.35C118 36.44 117.69 36.44 117.43 36.44C117.17 36.44 116.85 36.37 116.78 36.29C116.668 36.092 116.593 35.875 116.56 35.65C116.438 35.0263 116.219 34.4256 115.91 33.87C116.782 33.9918 117.66 34.0619 118.54 34.08H118.88C119.63 34.08 120.12 33.41 120.38 32.08C120.848 28.4732 121.042 24.8361 120.96 21.2H115.37C114.864 22.1413 114.249 23.0205 113.54 23.82C113.28 24.1 113.11 24.24 113.03 24.24C112.94 24.24 112.77 24.1 112.54 23.82C112.187 23.3427 111.741 22.9414 111.23 22.64H111.25ZM115.8 24.36C116.861 25.7391 117.754 27.2397 118.46 28.83C118.495 28.884 118.516 28.9459 118.52 29.01C118.52 29.09 118.43 29.18 118.25 29.27L116.78 30.16C116.709 30.2099 116.626 30.2409 116.54 30.25C116.46 30.25 116.39 30.17 116.33 30.01C115.672 28.4258 114.851 26.9143 113.88 25.5C113.82 25.4355 113.779 25.3561 113.76 25.27C113.76 25.2 113.85 25.12 114.02 25.03L115.33 24.29C115.401 24.2401 115.484 24.2091 115.57 24.2C115.61 24.2 115.69 24.25 115.78 24.36H115.8Z" fill="#121212"/>
<path d="M126.07 28.05C127.516 27.1354 128.814 26.0058 129.92 24.7C130.843 23.6227 131.604 22.4167 132.18 21.12H129.53L127.05 21.17C126.93 21.17 126.85 21.17 126.82 21.12C126.803 21.0544 126.803 20.9856 126.82 20.92V19.18C126.82 19.06 126.82 18.98 126.82 18.95C126.889 18.9327 126.961 18.9327 127.03 18.95L129.51 19.01H130V18C130.02 17.0433 129.96 16.0866 129.82 15.14C130.66 15.14 131.47 15.22 132.25 15.3C132.51 15.3 132.63 15.4 132.63 15.54C132.617 15.7111 132.569 15.8777 132.49 16.03C132.356 16.6403 132.309 17.2665 132.35 17.89V19H133.35C133.504 19.0084 133.658 18.97 133.79 18.89C133.873 18.8428 133.965 18.8123 134.06 18.8C134.21 18.8 134.5 19 134.93 19.41C135.36 19.82 135.55 20.11 135.55 20.25C135.545 20.3259 135.522 20.3996 135.484 20.4655C135.446 20.5313 135.393 20.5876 135.33 20.63C135.114 20.8244 134.929 21.0503 134.78 21.3C134.209 22.4932 133.54 23.6371 132.78 24.72C133.771 25.813 134.933 26.7383 136.22 27.46C135.825 27.9115 135.508 28.4251 135.28 28.98C135.12 29.33 134.97 29.5 134.83 29.5C134.653 29.4477 134.494 29.3473 134.37 29.21C133.641 28.5469 132.972 27.8207 132.37 27.04V33.6V36.36C132.37 36.48 132.37 36.55 132.37 36.58C132.292 36.6017 132.209 36.6017 132.13 36.58H130.2C130.122 36.6059 130.038 36.6059 129.96 36.58C129.944 36.511 129.944 36.439 129.96 36.37V33.61V28C129.265 28.7115 128.527 29.3795 127.75 30C127.608 30.1366 127.437 30.2392 127.25 30.3C127.16 30.3 127.03 30.13 126.89 29.77C126.701 29.1601 126.425 28.5808 126.07 28.05V28.05ZM137.79 35.73H134.65C134.53 35.73 134.45 35.73 134.43 35.73C134.413 35.661 134.413 35.589 134.43 35.52V33.67C134.43 33.55 134.43 33.47 134.43 33.45C134.43 33.43 134.52 33.45 134.64 33.45H137.78H139.78V24.71H138.7H135.75C135.685 24.7301 135.615 24.7301 135.55 24.71C135.532 24.6445 135.532 24.5755 135.55 24.51V22.64C135.55 22.53 135.55 22.46 135.55 22.44C135.55 22.42 135.64 22.44 135.74 22.44H138.69H139.74V18.71C139.76 17.5306 139.699 16.3513 139.56 15.18C140.56 15.18 141.43 15.27 142.16 15.34C142.41 15.34 142.53 15.45 142.53 15.58C142.528 15.7492 142.491 15.9162 142.42 16.07C142.227 16.9156 142.16 17.7849 142.22 18.65V22.44H143.7H146.65C146.78 22.44 146.85 22.44 146.87 22.44C146.89 22.44 146.87 22.53 146.87 22.63V24.5C146.87 24.62 146.85 24.69 146.81 24.71C146.745 24.7279 146.676 24.7279 146.61 24.71H143.66H142.18V33.45H144.31H147.43C147.56 33.45 147.64 33.45 147.67 33.45C147.686 33.5225 147.686 33.5976 147.67 33.67V35.52C147.67 35.64 147.67 35.71 147.67 35.74C147.594 35.7569 147.516 35.7569 147.44 35.74H144.32L137.79 35.73Z" fill="#121212"/>
<path d="M157.87 33.45C158.08 33.6 158.18 33.72 158.18 33.83C158.18 33.94 158.06 34.11 157.81 34.16C157.49 34.2695 157.182 34.4102 156.89 34.58C155.268 35.5214 153.506 36.1967 151.67 36.58L151.18 36.68C151.121 36.6785 151.063 36.6632 151.011 36.6354C150.959 36.6077 150.914 36.5681 150.88 36.52C150.88 36.46 150.75 36.3 150.62 36.05C150.339 35.5037 149.975 35.0044 149.54 34.57C151.352 34.3822 153.12 33.892 154.77 33.12C155.195 32.9443 155.588 32.6975 155.93 32.39H155.37L152.12 32.44C152.037 32.4503 151.952 32.4327 151.88 32.39C151.88 32.39 151.88 32.29 151.88 32.17V29.73V24.87V22.39C151.854 22.3155 151.854 22.2345 151.88 22.16C151.956 22.1421 152.034 22.1421 152.11 22.16L155.36 22.21H164.36L167.6 22.16C167.68 22.1496 167.761 22.1673 167.83 22.21C167.83 22.21 167.83 22.31 167.83 22.42V24.9V29.77V32.21C167.85 32.2478 167.857 32.2909 167.851 32.333C167.844 32.3752 167.824 32.4141 167.794 32.4443C167.764 32.4744 167.725 32.4942 167.683 32.5006C167.641 32.507 167.598 32.4998 167.56 32.48L164.32 32.43H155.98C156.638 32.7155 157.27 33.0567 157.87 33.45V33.45ZM163.23 15.93H166.36C166.435 15.9041 166.516 15.9041 166.59 15.93C166.59 15.93 166.59 16.03 166.59 16.14V17.71V19.23V20.77C166.59 20.9 166.59 20.98 166.59 21C166.518 21.017 166.442 21.017 166.37 21H163.24H156.57H153.43C153.31 21 153.23 21 153.21 21C153.194 20.9275 153.194 20.8525 153.21 20.78V19.24V17.71V16.14C153.21 16.01 153.21 15.94 153.21 15.91C153.279 15.8934 153.351 15.8934 153.42 15.91H156.56L163.23 15.93ZM154.3 23.93V25.1H165.46V24L154.3 23.93ZM154.3 27.79H165.46V26.64H154.3V27.79ZM165.46 30.57V29.39H154.3V30.6L165.46 30.57ZM164.15 19.2V17.75H155.65V19.23L164.15 19.2ZM170.25 34.55C169.807 34.98 169.423 35.4677 169.11 36C168.85 36.41 168.64 36.61 168.5 36.61L168.01 36.52C165.796 36.0444 163.689 35.1593 161.8 33.91C161.71 33.84 161.67 33.78 161.67 33.73C161.67 33.68 161.74 33.58 161.9 33.49L163.32 32.59C163.403 32.5062 163.513 32.4533 163.63 32.44C163.697 32.4514 163.762 32.4751 163.82 32.51C165.801 33.6282 167.989 34.3325 170.25 34.58V34.55Z" fill="#121212"/>
<path d="M396.35 517.88H396.23C395.465 518.228 394.631 518.399 393.79 518.38C392.973 518.374 392.163 518.235 391.39 517.97C390.581 517.699 389.833 517.271 389.19 516.71C388.51 516.097 387.962 515.352 387.58 514.52C387.147 513.534 386.936 512.466 386.96 511.39C386.936 510.292 387.144 509.202 387.57 508.19C387.943 507.304 388.502 506.51 389.21 505.86C389.907 505.23 390.723 504.748 391.61 504.44C392.552 504.115 393.543 503.952 394.54 503.96C395.538 503.954 396.53 504.124 397.47 504.46C398.361 504.774 399.181 505.264 399.88 505.9C400.569 506.529 401.123 507.291 401.51 508.14C401.927 509.06 402.136 510.06 402.12 511.07C402.137 511.716 402.097 512.361 402 513C401.895 513.546 401.741 514.082 401.54 514.6C401.342 515.122 401.108 515.63 400.84 516.12C400.57 516.62 400.27 517.12 399.94 517.64L394.35 526.47H390.8L396.35 517.88ZM399.13 511.17C399.137 510.541 399.025 509.917 398.8 509.33C398.594 508.785 398.273 508.291 397.86 507.88C397.453 507.447 396.959 507.107 396.41 506.88C395.204 506.426 393.875 506.426 392.67 506.88C392.122 507.109 391.628 507.449 391.22 507.88C390.807 508.291 390.486 508.785 390.28 509.33C389.853 510.52 389.853 511.82 390.28 513.01C390.489 513.554 390.809 514.048 391.22 514.46C391.633 514.873 392.126 515.196 392.67 515.41C393.875 515.864 395.204 515.864 396.41 515.41C396.953 515.198 397.447 514.876 397.858 514.462C398.27 514.049 398.59 513.554 398.8 513.01C399.025 512.423 399.137 511.799 399.13 511.17V511.17Z" fill="#121212"/>
<path d="M408.58 521C408.831 521.912 409.321 522.741 410 523.4C410.748 523.972 411.681 524.249 412.62 524.18C413.177 524.185 413.731 524.083 414.25 523.88C414.745 523.688 415.205 523.414 415.61 523.07C416.019 522.71 416.345 522.265 416.565 521.766C416.784 521.266 416.892 520.725 416.88 520.18C416.92 519.407 416.717 518.642 416.3 517.99C415.933 517.443 415.42 517.01 414.82 516.74C414.188 516.448 413.512 516.263 412.82 516.19C412.103 516.111 411.382 516.071 410.66 516.07V513.45C411.602 513.469 412.544 513.388 413.47 513.21C414.082 513.103 414.667 512.875 415.19 512.54C415.583 512.273 415.886 511.893 416.06 511.45C416.235 510.98 416.319 510.481 416.31 509.98C416.346 509.482 416.269 508.983 416.086 508.519C415.902 508.055 415.617 507.638 415.25 507.3C414.505 506.687 413.564 506.364 412.6 506.39C411.809 506.384 411.038 506.633 410.4 507.1C409.74 507.563 409.227 508.205 408.92 508.95L405.86 507.95C406.361 506.629 407.304 505.523 408.53 504.82C409.752 504.14 411.132 503.795 412.53 503.82C413.403 503.816 414.271 503.937 415.11 504.18C415.899 504.405 416.636 504.782 417.28 505.29C417.911 505.799 418.417 506.446 418.76 507.18C419.139 508.015 419.327 508.923 419.31 509.84C419.324 510.972 418.954 512.076 418.26 512.97C417.576 513.872 416.618 514.529 415.53 514.84V514.9C416.183 515.006 416.808 515.241 417.37 515.59C417.901 515.913 418.365 516.334 418.74 516.83C419.119 517.333 419.406 517.898 419.59 518.5C419.775 519.134 419.869 519.79 419.87 520.45C419.888 521.418 419.679 522.377 419.26 523.25C418.871 524.026 418.318 524.708 417.64 525.25C416.94 525.79 416.147 526.197 415.3 526.45C414.392 526.724 413.448 526.863 412.5 526.86C410.941 526.895 409.403 526.493 408.06 525.7C406.725 524.86 405.77 523.533 405.4 522L408.58 521Z" fill="#121212"/>
<path d="M426.09 526.61C425.545 526.607 425.022 526.389 424.636 526.004C424.251 525.618 424.033 525.096 424.03 524.55C424.028 524.21 424.11 523.875 424.268 523.575C424.427 523.274 424.657 523.018 424.939 522.828C425.221 522.638 425.545 522.521 425.883 522.487C426.221 522.453 426.563 522.503 426.877 522.633C427.191 522.763 427.468 522.968 427.683 523.231C427.898 523.493 428.045 523.805 428.111 524.139C428.177 524.472 428.159 524.816 428.059 525.141C427.96 525.466 427.781 525.761 427.54 526C427.352 526.194 427.127 526.349 426.878 526.454C426.628 526.558 426.36 526.612 426.09 526.61V526.61Z" fill="#121212"/>
<path d="M442.37 521.56H433V518.5L441.8 504.33H445.42V518.94H448.54V521.56H445.42V526.42H442.42L442.37 521.56ZM442.37 507.89H442.31L435.57 518.94H442.37V507.89Z" fill="#121212"/>
<path d="M457.51 510.33C458.018 510.302 458.525 510.395 458.989 510.602C459.453 510.809 459.862 511.124 460.18 511.52C460.786 512.44 461.088 513.527 461.045 514.628C461.002 515.73 460.616 516.79 459.94 517.66C459.622 517.976 459.242 518.222 458.823 518.384C458.405 518.546 457.958 518.619 457.51 518.6C457.003 518.625 456.497 518.526 456.036 518.314C455.575 518.102 455.171 517.781 454.86 517.38C454.262 516.52 453.967 515.486 454.02 514.44C453.977 513.86 454.053 513.277 454.242 512.727C454.431 512.177 454.73 511.671 455.12 511.24C455.434 510.932 455.809 510.692 456.22 510.536C456.631 510.379 457.071 510.309 457.51 510.33V510.33ZM456 527L455.15 526.34L468.21 510L469.04 510.69L456 527ZM457.53 511.76C456.53 511.76 456.04 512.65 456.04 514.44C456.04 516.23 456.54 517.19 457.53 517.19C458.52 517.19 459.05 516.28 459.05 514.44C459.05 512.6 458.52 511.76 457.51 511.76H457.53ZM466.74 518.48C467.243 518.455 467.744 518.55 468.203 518.757C468.662 518.964 469.066 519.277 469.38 519.67C469.991 520.513 470.294 521.54 470.24 522.58C470.315 523.763 469.92 524.928 469.14 525.82C468.792 526.143 468.382 526.393 467.935 526.553C467.488 526.714 467.013 526.783 466.538 526.756C466.064 526.729 465.6 526.607 465.174 526.396C464.748 526.185 464.369 525.891 464.06 525.53C463.455 524.67 463.155 523.631 463.21 522.58C463.169 522.003 463.245 521.424 463.434 520.877C463.624 520.331 463.921 519.828 464.31 519.4C464.629 519.092 465.007 518.852 465.421 518.694C465.835 518.536 466.277 518.463 466.72 518.48H466.74ZM466.74 519.89C465.74 519.89 465.23 520.79 465.23 522.6C465.23 524.41 465.73 525.35 466.74 525.35C467.75 525.35 468.24 524.43 468.24 522.6C468.24 520.77 467.72 519.89 466.72 519.89H466.74Z" fill="#121212"/>
<path d="M183.89 24.28H184C184.762 23.9331 185.593 23.7622 186.43 23.78C187.25 23.7869 188.064 23.9253 188.84 24.19C189.647 24.4585 190.392 24.8871 191.03 25.45C191.716 26.0575 192.265 26.8041 192.64 27.64C193.081 28.6232 193.296 29.6927 193.27 30.77C193.291 31.8771 193.083 32.9766 192.66 34C192.299 34.8715 191.755 35.6554 191.065 36.2988C190.375 36.9423 189.555 37.4303 188.66 37.73C187.712 38.0461 186.719 38.2049 185.72 38.2C184.722 38.2048 183.73 38.0356 182.79 37.7C181.901 37.3864 181.085 36.8967 180.39 36.26C179.666 35.6078 179.091 34.8078 178.703 33.9142C178.315 33.0206 178.123 32.0541 178.14 31.08C178.133 30.453 178.187 29.8268 178.3 29.21C178.397 28.6631 178.548 28.1271 178.75 27.61C178.951 27.0953 179.184 26.5943 179.45 26.11C179.72 25.62 180.02 25.11 180.36 24.56L185.94 15.73H189.47L183.89 24.28ZM181.12 31C181.113 31.6286 181.225 32.2528 181.45 32.84C181.653 33.3843 181.97 33.8787 182.38 34.29C182.792 34.704 183.286 35.0276 183.83 35.24C184.424 35.4777 185.06 35.5966 185.7 35.59C186.343 35.5954 186.982 35.4765 187.58 35.24C188.123 35.0299 188.616 34.7075 189.026 34.2939C189.436 33.8804 189.754 33.3849 189.96 32.84C190.4 31.6528 190.4 30.3471 189.96 29.16C189.743 28.6127 189.417 28.1158 189 27.7C188.585 27.2892 188.092 26.9662 187.55 26.75C186.951 26.5169 186.313 26.4014 185.67 26.41C185.03 26.4002 184.395 26.5157 183.8 26.75C183.258 26.9662 182.765 27.2892 182.35 27.7C181.942 28.1129 181.625 28.6069 181.42 29.15C181.204 29.7422 181.102 30.3699 181.12 31V31Z" fill="#121212"/>
<path d="M199.15 38.0001C198.742 38.0022 198.343 37.8828 198.004 37.6571C197.665 37.4314 197.4 37.1096 197.244 36.7328C197.089 36.356 197.049 35.9414 197.13 35.5419C197.211 35.1424 197.41 34.7762 197.7 34.4901C197.887 34.2934 198.112 34.1368 198.361 34.0298C198.61 33.9227 198.879 33.8676 199.15 33.8676C199.421 33.8676 199.69 33.9227 199.939 34.0298C200.188 34.1368 200.413 34.2934 200.6 34.4901C200.886 34.7781 201.08 35.144 201.158 35.5418C201.236 35.9397 201.196 36.3518 201.041 36.7266C200.886 37.1014 200.624 37.4222 200.288 37.6487C199.951 37.8752 199.556 37.9975 199.15 38.0001Z" fill="#121212"/>
<path d="M211.44 24.28H211.57C212.332 23.9321 213.163 23.7612 214 23.78C214.82 23.7869 215.634 23.9253 216.41 24.19C217.217 24.4585 217.962 24.8871 218.6 25.45C219.283 26.0604 219.831 26.8062 220.21 27.64C220.647 28.6241 220.859 29.6935 220.83 30.77C220.854 31.8764 220.65 32.9759 220.23 34C219.869 34.8715 219.325 35.6554 218.635 36.2988C217.945 36.9423 217.125 37.4303 216.23 37.73C215.282 38.0461 214.289 38.2049 213.29 38.2C212.292 38.2048 211.3 38.0356 210.36 37.7C209.471 37.3864 208.655 36.8967 207.96 36.26C207.236 35.6078 206.661 34.8078 206.273 33.9142C205.885 33.0206 205.693 32.0541 205.71 31.08C205.703 30.453 205.757 29.8268 205.87 29.21C205.967 28.6631 206.118 28.1271 206.32 27.61C206.521 27.0953 206.754 26.5943 207.02 26.11C207.29 25.62 207.59 25.11 207.93 24.56L213.51 15.73H217L211.44 24.28ZM208.67 31C208.663 31.6286 208.775 32.2528 209 32.84C209.203 33.3843 209.52 33.8787 209.93 34.29C210.342 34.704 210.836 35.0276 211.38 35.24C211.975 35.4777 212.61 35.5966 213.25 35.59C213.893 35.5954 214.532 35.4765 215.13 35.24C215.673 35.0299 216.166 34.7075 216.576 34.2939C216.986 33.8804 217.304 33.3849 217.51 32.84C217.95 31.6528 217.95 30.3471 217.51 29.16C217.301 28.6189 216.985 28.1256 216.58 27.71C216.165 27.2992 215.672 26.9762 215.13 26.76C214.531 26.5269 213.893 26.4114 213.25 26.42C212.611 26.4102 211.975 26.5257 211.38 26.76C210.838 26.9762 210.345 27.2992 209.93 27.71C209.522 28.1229 209.205 28.6169 209 29.16C208.775 29.7471 208.663 30.3714 208.67 31V31Z" fill="#121212"/>
<path d="M225.82 26.4101C225.812 25.9147 225.911 25.4235 226.11 24.9701C226.477 24.0766 227.176 23.3599 228.06 22.9701C228.516 22.7773 229.005 22.6787 229.5 22.6801C229.992 22.6775 230.478 22.7762 230.93 22.9701C231.366 23.1586 231.762 23.4265 232.1 23.7601C232.433 24.0986 232.7 24.4951 232.89 24.9301C233.081 25.3843 233.18 25.8722 233.18 26.3651C233.18 26.8579 233.081 27.3458 232.89 27.8001C232.707 28.2475 232.439 28.655 232.1 29.0001C231.765 29.3398 231.368 29.6115 230.93 29.8001C230.478 29.9939 229.992 30.0926 229.5 30.0901C229.005 30.0914 228.516 29.9928 228.06 29.8001C227.181 29.4026 226.485 28.6884 226.11 27.8001C225.917 27.3621 225.818 26.8886 225.82 26.4101V26.4101ZM227.44 26.4101C227.452 26.8701 227.622 27.3121 227.922 27.6614C228.221 28.0107 228.632 28.2459 229.085 28.3275C229.538 28.409 230.005 28.3318 230.408 28.109C230.811 27.8861 231.124 27.5312 231.295 27.1041C231.467 26.677 231.486 26.2038 231.349 25.7644C231.212 25.325 230.928 24.9462 230.544 24.692C230.161 24.4377 229.701 24.3236 229.243 24.3688C228.785 24.414 228.357 24.6157 228.03 24.9401C227.837 25.132 227.685 25.3614 227.583 25.6142C227.482 25.8669 227.433 26.1378 227.44 26.4101ZM229.94 38.4701L228.69 37.8201L237.94 22.4301L239.19 23.0801L229.94 38.4701ZM234.64 34.5201C234.633 34.0249 234.732 33.5339 234.93 33.0801C235.118 32.6469 235.386 32.2532 235.72 31.9201C236.051 31.5826 236.445 31.314 236.88 31.1301C237.333 30.9283 237.824 30.826 238.32 30.8301C238.813 30.8262 239.3 30.9285 239.75 31.1301C240.19 31.3114 240.588 31.5802 240.92 31.9201C241.251 32.2559 241.519 32.6489 241.71 33.0801C241.904 33.5353 242.003 34.0253 242 34.5201C242.003 35.0116 241.904 35.4984 241.71 35.9501C241.518 36.3838 241.251 36.78 240.92 37.1201C240.582 37.4536 240.186 37.7215 239.75 37.9101C239.298 38.1039 238.812 38.2026 238.32 38.2001C237.825 38.2025 237.335 38.1038 236.88 37.9101C236.449 37.7188 236.056 37.4512 235.72 37.1201C235.385 36.7833 235.117 36.3863 234.93 35.9501C234.732 35.4998 234.633 35.012 234.64 34.5201V34.5201ZM236.26 34.5201C236.252 34.7928 236.299 35.0644 236.4 35.3181C236.501 35.5718 236.652 35.8022 236.845 35.9952C237.038 36.1882 237.268 36.3396 237.522 36.4402C237.776 36.5408 238.047 36.5884 238.32 36.5801C238.593 36.5884 238.864 36.5408 239.118 36.4402C239.372 36.3396 239.602 36.1882 239.795 35.9952C239.988 35.8022 240.14 35.5718 240.24 35.3181C240.341 35.0644 240.388 34.7928 240.38 34.5201C240.388 34.2473 240.341 33.9757 240.24 33.722C240.14 33.4683 239.988 33.2379 239.795 33.0449C239.602 32.8519 239.372 32.7005 239.118 32.5999C238.864 32.4993 238.593 32.4517 238.32 32.4601C238.047 32.4517 237.776 32.4993 237.522 32.5999C237.268 32.7005 237.038 32.8519 236.845 33.0449C236.652 33.2379 236.501 33.4683 236.4 33.722C236.299 33.9757 236.252 34.2473 236.26 34.5201V34.5201Z" fill="#121212"/>
<path d="M267.05 87.7301L254.31 50.5601H75V48.5601H255.74L268.95 87.0801L267.05 87.7301Z" fill="#333333"/>
<path d="M475 538.86L293.16 538.71L274.84 472.48L276.76 471.94L294.68 536.71L475 536.86V538.86Z" fill="#333333"/>
<path d="M345.51 579.43L351.32 585.22L350.86 585.68L345 579.89L339.23 585.68L338.77 585.22L344.55 579.43L338.8 573.68L339.27 573.22L345 579L350.75 573.26L351.22 573.72L345.51 579.43ZM340.89 578.2C341.063 578.195 341.236 578.228 341.395 578.297C341.554 578.366 341.695 578.47 341.81 578.6C342.017 578.827 342.132 579.123 342.13 579.43C342.132 579.602 342.096 579.773 342.025 579.93C341.954 580.087 341.85 580.227 341.72 580.34C341.491 580.542 341.195 580.652 340.89 580.65C340.719 580.652 340.549 580.618 340.392 580.549C340.235 580.48 340.094 580.378 339.98 580.25C339.773 580.002 339.667 579.685 339.683 579.362C339.7 579.04 339.838 578.735 340.07 578.51C340.293 578.305 340.587 578.194 340.89 578.2V578.2ZM345.05 574.05C345.379 574.05 345.694 574.181 345.927 574.413C346.159 574.646 346.29 574.961 346.29 575.29C346.292 575.461 346.257 575.63 346.186 575.786C346.115 575.941 346.01 576.079 345.88 576.19C345.653 576.395 345.356 576.505 345.05 576.5C344.878 576.504 344.708 576.471 344.55 576.401C344.393 576.332 344.253 576.229 344.14 576.1C343.926 575.857 343.816 575.54 343.833 575.217C343.85 574.893 343.992 574.59 344.23 574.37C344.452 574.162 344.746 574.048 345.05 574.05V574.05ZM345.05 582.37C345.223 582.366 345.395 582.399 345.554 582.468C345.713 582.537 345.855 582.64 345.97 582.77C346.177 582.997 346.291 583.293 346.29 583.6C346.292 583.772 346.257 583.943 346.186 584.1C346.115 584.258 346.011 584.397 345.88 584.51C345.653 584.715 345.356 584.825 345.05 584.82C344.878 584.824 344.708 584.791 344.55 584.721C344.393 584.652 344.253 584.549 344.14 584.42C343.938 584.195 343.827 583.902 343.83 583.6C343.829 583.427 343.864 583.256 343.933 583.098C344.002 582.939 344.103 582.797 344.23 582.68C344.453 582.475 344.747 582.364 345.05 582.37V582.37ZM349.2 578.2C349.372 578.196 349.542 578.229 349.7 578.299C349.857 578.368 349.997 578.471 350.11 578.6C350.317 578.827 350.432 579.123 350.43 579.43C350.432 579.602 350.396 579.773 350.325 579.93C350.254 580.087 350.15 580.227 350.02 580.34C349.794 580.541 349.502 580.651 349.2 580.65C348.952 580.649 348.711 580.572 348.507 580.431C348.304 580.29 348.148 580.091 348.059 579.86C347.97 579.629 347.954 579.376 348.011 579.135C348.068 578.895 348.197 578.677 348.38 578.51C348.602 578.303 348.897 578.192 349.2 578.2Z" fill="#999999"/>
<path d="M357.87 583.5L362.81 578.6C362.99 578.433 363.16 578.256 363.32 578.07C363.479 577.882 363.623 577.681 363.75 577.47C363.879 577.26 363.983 577.035 364.06 576.8C364.133 576.564 364.17 576.317 364.17 576.07C364.176 575.792 364.122 575.515 364.01 575.26C363.907 575.02 363.749 574.808 363.55 574.64C363.355 574.466 363.127 574.334 362.88 574.25C362.614 574.154 362.333 574.106 362.05 574.11C361.506 574.092 360.974 574.27 360.55 574.61C360.147 574.972 359.881 575.464 359.8 576L357.99 575.85C358.063 575.352 358.226 574.87 358.47 574.43C358.701 574.044 359.003 573.704 359.36 573.43C359.723 573.153 360.138 572.952 360.58 572.84C361.066 572.708 361.567 572.644 362.07 572.65C362.578 572.647 363.083 572.718 363.57 572.86C364.021 572.997 364.441 573.218 364.81 573.51C365.164 573.796 365.447 574.158 365.64 574.57C365.853 575.037 365.959 575.546 365.95 576.06C365.954 576.448 365.889 576.834 365.76 577.2C365.638 577.549 365.481 577.884 365.29 578.2C365.089 578.512 364.862 578.807 364.61 579.08C364.35 579.36 364.08 579.63 363.81 579.9L359.75 583.82H366V585.28H357.92L357.87 583.5Z" fill="#999999"/>
<path d="M369 579.12C369 578.67 369 578.2 369.07 577.71C369.116 577.224 369.203 576.742 369.33 576.27C369.446 575.809 369.607 575.36 369.81 574.93C370.009 574.512 370.276 574.13 370.6 573.8C370.924 573.476 371.308 573.218 371.73 573.04C372.695 572.664 373.765 572.664 374.73 573.04C375.152 573.218 375.536 573.476 375.86 573.8C376.184 574.13 376.451 574.512 376.65 574.93C376.853 575.36 377.014 575.809 377.13 576.27C377.252 576.743 377.339 577.224 377.39 577.71C377.39 578.2 377.46 578.71 377.46 579.12C377.455 579.82 377.395 580.519 377.28 581.21C377.173 581.929 376.958 582.627 376.64 583.28C376.335 583.9 375.89 584.441 375.34 584.86C374.706 585.271 373.966 585.489 373.21 585.489C372.454 585.489 371.715 585.271 371.08 584.86C370.527 584.444 370.082 583.903 369.78 583.28C369.463 582.627 369.247 581.929 369.14 581.21C369.038 580.518 368.991 579.819 369 579.12V579.12ZM370.67 579.12C370.67 579.52 370.67 580.01 370.75 580.56C370.801 581.108 370.915 581.648 371.09 582.17C371.249 582.662 371.515 583.113 371.87 583.49C372.242 583.845 372.736 584.042 373.25 584.042C373.764 584.042 374.258 583.845 374.63 583.49C374.982 583.111 375.248 582.661 375.41 582.17C375.581 581.647 375.695 581.107 375.75 580.56C375.75 580.01 375.82 579.56 375.82 579.12C375.82 578.68 375.82 578.52 375.82 578.12C375.799 577.758 375.759 577.398 375.7 577.04C375.631 576.682 375.541 576.328 375.43 575.98C375.319 575.654 375.165 575.344 374.97 575.06C374.782 574.796 374.54 574.574 374.26 574.41C373.953 574.243 373.609 574.155 373.26 574.155C372.911 574.155 372.567 574.243 372.26 574.41C371.978 574.572 371.736 574.794 371.55 575.06C371.355 575.344 371.201 575.654 371.09 575.98C370.979 576.328 370.889 576.682 370.82 577.04C370.761 577.398 370.721 577.758 370.7 578.12C370.72 578.52 370.71 578.84 370.71 579.12H370.67Z" fill="#999999"/>
<path d="M382.7 574.87L380.44 577L379.44 575.83L382.86 573H384.34V585.32H382.7V574.87Z" fill="#999999"/>
<path d="M393.53 580.51H393.46C393.034 580.706 392.569 580.802 392.1 580.79C391.644 580.786 391.191 580.708 390.76 580.56C390.308 580.41 389.89 580.172 389.53 579.86C389.154 579.518 388.851 579.103 388.64 578.64C388.393 578.09 388.273 577.492 388.29 576.89C388.276 576.279 388.392 575.673 388.63 575.11C388.836 574.616 389.147 574.173 389.54 573.81C389.928 573.458 390.384 573.189 390.88 573.02C391.407 572.837 391.962 572.746 392.52 572.75C393.076 572.745 393.628 572.839 394.15 573.03C394.644 573.204 395.099 573.475 395.487 573.827C395.875 574.179 396.189 574.605 396.41 575.08C396.64 575.596 396.756 576.155 396.75 576.72C396.751 577.055 396.72 577.39 396.66 577.72C396.604 578.027 396.52 578.328 396.41 578.62C396.293 578.907 396.16 579.188 396.01 579.46C395.86 579.74 395.7 580.02 395.51 580.31L392.4 585.24H390.4L393.53 580.51ZM395.07 576.77C395.069 576.429 395.008 576.09 394.89 575.77C394.776 575.466 394.599 575.19 394.37 574.96C394.135 574.735 393.86 574.555 393.56 574.43C393.241 574.308 392.902 574.243 392.56 574.24C392.218 574.244 391.88 574.309 391.56 574.43C391.26 574.555 390.985 574.735 390.75 574.96C390.525 575.193 390.348 575.468 390.23 575.77C389.987 576.435 389.987 577.165 390.23 577.83C390.348 578.132 390.525 578.407 390.75 578.64C390.985 578.865 391.26 579.045 391.56 579.17C391.88 579.291 392.218 579.355 392.56 579.36C392.902 579.357 393.241 579.292 393.56 579.17C393.86 579.045 394.135 578.865 394.37 578.64C394.599 578.41 394.776 578.134 394.89 577.83C395.016 577.491 395.077 577.131 395.07 576.77V576.77Z" fill="#999999"/>
<path d="M402.09 582.92H400.09C400 582.92 399.95 582.92 399.93 582.92C399.921 582.87 399.921 582.82 399.93 582.77V581.47C399.93 581.36 399.99 581.31 400.11 581.31H402.11H402.51V579V577.53C402.51 577.44 402.51 577.39 402.51 577.38C402.51 577.37 402.58 577.38 402.67 577.38H404.92H407V575.2H403.64C403.085 576.046 402.441 576.83 401.72 577.54C401.56 577.72 401.45 577.81 401.37 577.81C401.29 577.81 401.21 577.7 401.05 577.5C400.8 577.149 400.489 576.848 400.13 576.61C401.402 575.505 402.425 574.141 403.13 572.61C403.323 572.23 403.464 571.827 403.55 571.41C404.25 571.55 404.77 571.67 405.13 571.77C405.33 571.84 405.43 571.93 405.43 572.05C405.404 572.175 405.333 572.285 405.23 572.36C405.051 572.53 404.909 572.734 404.81 572.96L404.48 573.66H411.26H413.51C413.559 573.644 413.611 573.644 413.66 573.66C413.669 573.709 413.669 573.76 413.66 573.81V575.02C413.66 575.107 413.66 575.157 413.66 575.17C413.615 575.185 413.565 575.185 413.52 575.17H411.27H408.74V577.35H410.5H412.74C412.85 577.35 412.91 577.41 412.91 577.53V578.76C412.91 578.88 412.85 578.94 412.74 578.94H410.5H408.74V581.34H412.22H414.27C414.39 581.34 414.44 581.39 414.44 581.5V582.8C414.44 582.88 414.44 582.93 414.44 582.95C414.391 582.966 414.339 582.966 414.29 582.95H412.24H408.76V583.75V586.42C408.76 586.51 408.76 586.56 408.76 586.58C408.76 586.6 408.7 586.58 408.62 586.58H407.16C407.07 586.58 407.01 586.58 407 586.58C406.984 586.531 406.984 586.479 407 586.43V583.76V582.96L402.09 582.92ZM404.22 581.34H407V578.94H404.23L404.22 581.34Z" fill="#999999"/>
<path d="M426.32 574.53H421.32L421.27 577.6L421.62 577.5L422.08 577.41H422.54H422.92C423.462 577.402 423.999 577.504 424.5 577.71C424.953 577.9 425.362 578.183 425.7 578.54C426.047 578.911 426.312 579.351 426.48 579.83C426.666 580.364 426.757 580.925 426.75 581.49C426.758 582.065 426.642 582.634 426.41 583.16C426.186 583.649 425.867 584.088 425.47 584.45C425.073 584.813 424.607 585.092 424.1 585.27C423.561 585.465 422.993 585.563 422.42 585.56C421.619 585.569 420.833 585.343 420.16 584.91C419.481 584.48 418.969 583.831 418.71 583.07L420.38 582.49C420.544 582.981 420.854 583.411 421.27 583.72C421.617 583.929 422.008 584.056 422.412 584.091C422.816 584.126 423.222 584.067 423.6 583.92C423.889 583.815 424.152 583.647 424.37 583.43C424.596 583.202 424.773 582.929 424.89 582.63C425.019 582.292 425.083 581.932 425.08 581.57C425.105 581.195 425.043 580.82 424.899 580.473C424.755 580.126 424.533 579.817 424.25 579.57C423.635 579.099 422.873 578.862 422.1 578.9C421.699 578.91 421.3 578.964 420.91 579.06C420.442 579.166 419.989 579.327 419.56 579.54L419.7 573.05H426.31L426.32 574.53Z" fill="#999999"/>
<path d="M437.17 584.54C437.75 584.59 438.37 584.62 439.03 584.62C439.109 584.632 439.189 584.625 439.265 584.6C439.341 584.575 439.41 584.533 439.466 584.476C439.523 584.42 439.565 584.351 439.59 584.275C439.615 584.199 439.622 584.119 439.61 584.04V581.18H433.75C433.633 582.222 433.338 583.237 432.88 584.18C432.474 584.937 431.973 585.639 431.39 586.27C431.22 586.46 431.11 586.55 431.05 586.55C430.99 586.55 430.84 586.47 430.67 586.29C430.333 585.956 429.931 585.694 429.49 585.52C430.136 584.936 430.696 584.263 431.15 583.52C431.579 582.753 431.857 581.911 431.97 581.04C432.145 579.734 432.222 578.417 432.2 577.1V574.7V572.47C432.2 572.38 432.2 572.32 432.2 572.3C432.2 572.28 432.26 572.3 432.34 572.3H434.53H439.08H441.24C441.33 572.3 441.39 572.3 441.4 572.3C441.416 572.352 441.416 572.408 441.4 572.46V574.69V581.14V584.41C441.425 584.687 441.391 584.966 441.301 585.23C441.212 585.493 441.068 585.735 440.88 585.94C440.609 586.161 440.278 586.297 439.93 586.33C439.343 586.399 438.751 586.426 438.16 586.41C437.88 586.41 437.72 586.41 437.67 586.34C437.598 586.207 437.557 586.06 437.55 585.91C437.509 585.434 437.38 584.969 437.17 584.54ZM433.92 579.54H439.61V577.47H434C433.967 578.437 433.94 579.14 433.92 579.58V579.54ZM439.61 573.89H434V575.89H439.63L439.61 573.89Z" fill="#999999"/>
<path d="M447.81 582.27C447.954 582.771 448.226 583.226 448.6 583.59C449.02 583.911 449.543 584.067 450.07 584.03C450.381 584.03 450.69 583.972 450.98 583.86C451.254 583.754 451.508 583.602 451.73 583.41C451.95 583.215 452.127 582.977 452.25 582.71C452.381 582.425 452.446 582.114 452.44 581.8C452.459 581.367 452.348 580.939 452.12 580.57C451.915 580.265 451.627 580.026 451.29 579.88C450.94 579.716 450.565 579.611 450.18 579.57C449.782 579.522 449.381 579.499 448.98 579.5V578C449.503 578.012 450.026 577.969 450.54 577.87C450.895 577.814 451.235 577.688 451.54 577.5C451.76 577.349 451.93 577.137 452.03 576.89C452.124 576.627 452.172 576.349 452.17 576.07C452.188 575.792 452.145 575.513 452.043 575.254C451.941 574.995 451.783 574.761 451.58 574.57C451.162 574.232 450.637 574.055 450.1 574.07C449.659 574.067 449.229 574.204 448.87 574.46C448.512 574.716 448.226 575.061 448.04 575.46L446.34 574.89C446.619 574.152 447.146 573.533 447.83 573.14C448.511 572.759 449.28 572.566 450.06 572.58C450.547 572.575 451.033 572.642 451.5 572.78C451.939 572.904 452.35 573.111 452.71 573.39C453.063 573.674 453.344 574.037 453.53 574.45C453.747 574.913 453.853 575.419 453.84 575.93C453.844 576.558 453.64 577.17 453.26 577.67C452.867 578.154 452.332 578.504 451.73 578.67C452.085 578.735 452.425 578.867 452.73 579.06C453.029 579.238 453.291 579.472 453.5 579.75C453.704 580.034 453.862 580.348 453.97 580.68C454.072 581.034 454.122 581.401 454.12 581.77C454.133 582.31 454.016 582.845 453.78 583.33C453.566 583.762 453.259 584.142 452.88 584.44C452.49 584.745 452.046 584.973 451.57 585.11C451.068 585.263 450.545 585.341 450.02 585.34C449.149 585.357 448.291 585.132 447.54 584.69C446.806 584.238 446.273 583.523 446.05 582.69L447.81 582.27Z" fill="#999999"/>
<path d="M459.11 574.87L456.84 577L455.84 575.83L459.3 573H460.78V585.32H459.11V574.87Z" fill="#999999"/>
<path d="M467.91 586.31H466.44C466.415 586.319 466.388 586.321 466.361 586.316C466.335 586.31 466.311 586.297 466.292 586.278C466.273 586.259 466.26 586.235 466.254 586.209C466.249 586.182 466.251 586.155 466.26 586.13V580.3V577.13V572.84C466.26 572.75 466.26 572.7 466.26 572.67C466.31 572.66 466.36 572.66 466.41 572.67H468.67H474.29H476.56C476.65 572.67 476.7 572.67 476.71 572.67C476.726 572.719 476.726 572.771 476.71 572.82V576.62V580.26V586.03C476.71 586.12 476.71 586.17 476.71 586.19C476.66 586.199 476.61 586.199 476.56 586.19H475.1C475.01 586.19 474.96 586.19 474.94 586.19C474.931 586.14 474.931 586.089 474.94 586.04V585.24H468.06V586.12C468.06 586.21 468.06 586.26 468.06 586.28L467.91 586.31ZM468.08 574.31V578.05H475V574.31H468.08ZM468.08 583.62H475V579.62H468.12L468.08 583.62Z" fill="#999999"/>
<path d="M486.27 584.61C486.279 584.635 486.281 584.662 486.276 584.689C486.27 584.715 486.257 584.739 486.238 584.758C486.219 584.777 486.195 584.79 486.169 584.796C486.142 584.801 486.115 584.799 486.09 584.79H484.91C484.8 584.79 484.75 584.73 484.75 584.61V583.88H483.23V585.18C483.23 585.3 483.18 585.36 483.07 585.36H481.85C481.801 585.376 481.749 585.376 481.7 585.36C481.691 585.31 481.691 585.26 481.7 585.21V580.21V576.64V572.7C481.7 572.607 481.7 572.557 481.7 572.55C481.749 572.534 481.801 572.534 481.85 572.55H483.25H484.67H486.08C486.173 572.55 486.223 572.55 486.23 572.55C486.245 572.599 486.245 572.651 486.23 572.7V576.01V579.77L486.27 584.61ZM484.75 574H483.23V577.4H484.75V574ZM483.23 582.44H484.75V578.89H483.23V582.44ZM489.11 578.07H486.91C486.81 578.07 486.75 578.07 486.74 578.07C486.724 578.021 486.724 577.969 486.74 577.92V576.78C486.722 576.732 486.722 576.679 486.74 576.63C486.793 576.62 486.847 576.62 486.9 576.63H489.1H490.28V574.9H489.51H487.44C487.385 574.917 487.325 574.917 487.27 574.9C487.254 574.851 487.254 574.799 487.27 574.75V573.6C487.27 573.51 487.27 573.46 487.27 573.43H487.43H489.5H490.27C490.263 572.808 490.223 572.188 490.15 571.57C490.7 571.57 491.27 571.63 491.84 571.7C492.02 571.7 492.11 571.76 492.11 571.86C492.087 571.977 492.05 572.092 492 572.2C491.924 572.605 491.897 573.018 491.92 573.43H493H495.08C495.17 573.43 495.23 573.43 495.24 573.43C495.256 573.482 495.256 573.538 495.24 573.59V574.74C495.24 574.83 495.24 574.88 495.24 574.9H495.08H493H491.9V576.59H493.64H495.84C495.895 576.573 495.955 576.573 496.01 576.59C496.025 576.636 496.025 576.685 496.01 576.73V577.87C496.01 577.96 496.01 578.02 496.01 578.04C496.01 578.06 495.94 578.04 495.85 578.04H493.65L489.11 578.07ZM489.17 581.15H486.99C486.89 581.15 486.83 581.15 486.82 581.15C486.805 581.105 486.805 581.055 486.82 581.01V579.86C486.82 579.77 486.82 579.72 486.82 579.71C486.82 579.7 486.89 579.71 486.98 579.71H489.16H492.39C492.39 579.25 492.39 578.77 492.28 578.27C492.947 578.31 493.497 578.36 493.93 578.42C494.11 578.42 494.21 578.51 494.21 578.6C494.202 578.698 494.175 578.793 494.13 578.88C494.053 579.15 494.026 579.431 494.05 579.71H495.69C495.745 579.693 495.805 579.693 495.86 579.71C495.869 579.76 495.869 579.81 495.86 579.86V581C495.876 581.049 495.876 581.101 495.86 581.15C495.86 581.15 495.79 581.15 495.7 581.15H495.48H494.06V584.8C494.086 585.061 494.048 585.324 493.948 585.566C493.849 585.808 493.692 586.023 493.49 586.19C492.823 586.492 492.089 586.616 491.36 586.55C491.197 586.57 491.031 586.545 490.88 586.48C490.808 586.346 490.757 586.2 490.73 586.05C490.639 585.627 490.473 585.224 490.24 584.86C490.75 584.86 491.24 584.93 491.85 584.93C491.922 584.941 491.995 584.936 492.064 584.914C492.134 584.892 492.197 584.855 492.249 584.804C492.302 584.754 492.342 584.692 492.366 584.624C492.39 584.555 492.399 584.482 492.39 584.41V581.15H489.17ZM489.24 581.63C489.796 582.213 490.298 582.846 490.74 583.52C490.777 583.555 490.802 583.6 490.81 583.65C490.81 583.65 490.76 583.76 490.66 583.83L489.66 584.52C489.604 584.564 489.539 584.594 489.47 584.61C489.47 584.61 489.38 584.61 489.33 584.5C488.908 583.793 488.426 583.124 487.89 582.5C487.84 582.44 487.81 582.4 487.81 582.37C487.81 582.34 487.87 582.27 487.97 582.21L488.89 581.63C488.946 581.59 489.011 581.565 489.08 581.56C489.135 581.555 489.191 581.565 489.24 581.59V581.63Z" fill="#999999"/>
<path d="M499.67 582.72C499.67 582.63 499.74 582.58 499.8 582.58C499.872 582.59 499.943 582.61 500.01 582.64L500.96 583C501.1 583 501.17 583.11 501.17 583.16C501.175 583.193 501.175 583.227 501.17 583.26C500.775 584.377 500.194 585.418 499.45 586.34C499.403 586.42 499.353 586.46 499.3 586.46C499.224 586.452 499.152 586.425 499.09 586.38L498.09 585.81C497.96 585.73 497.9 585.67 497.9 585.62C497.908 585.57 497.933 585.524 497.97 585.49C498.7 584.677 499.276 583.739 499.67 582.72V582.72ZM503.87 571.53C504.476 571.54 505.08 571.586 505.68 571.67C505.85 571.67 505.93 571.73 505.93 571.83C505.928 571.939 505.907 572.047 505.87 572.15C505.761 572.527 505.721 572.919 505.75 573.31V573.43H509.46H511.59C511.68 573.43 511.73 573.43 511.75 573.43C511.758 573.483 511.758 573.537 511.75 573.59V574.9C511.75 575.01 511.69 575.06 511.57 575.06H509.44H505.73V576.53H507.91H510.19C510.31 576.53 510.37 576.53 510.37 576.69V578.17V580.45V581.9C510.37 581.99 510.37 582.04 510.37 582.06C510.37 582.08 510.3 582.06 510.22 582.06H507.94H502.5H500.22C500.13 582.06 500.08 582.06 500.06 582.06C500.051 582.007 500.051 581.953 500.06 581.9V580.45V578.17V576.69C500.06 576.58 500.12 576.53 500.24 576.53H502.52H504V573.68C504 572.961 503.957 572.243 503.87 571.53ZM501.8 578.06V580.43H508.62V578.06H501.8ZM503.73 582.9H503.83C503.93 582.9 503.99 582.96 504.01 583.09C504.244 584.059 504.394 585.046 504.46 586.04V586.1C504.46 586.22 504.38 586.28 504.23 586.29L503.01 586.35H502.9C502.877 586.353 502.853 586.351 502.831 586.344C502.809 586.337 502.789 586.324 502.772 586.308C502.756 586.291 502.743 586.271 502.736 586.249C502.729 586.227 502.727 586.203 502.73 586.18C502.711 585.174 502.611 584.17 502.43 583.18C502.43 583.18 502.43 583.12 502.43 583.1C502.43 583.08 502.51 582.97 502.68 582.95L503.73 582.9ZM507.18 582.9C507.613 583.836 507.948 584.815 508.18 585.82C508.182 585.857 508.182 585.893 508.18 585.93C508.18 586.003 508.11 586.053 507.97 586.08L506.8 586.33H506.63C506.56 586.33 506.51 586.28 506.49 586.18C506.326 585.152 506.047 584.146 505.66 583.18C505.65 583.144 505.65 583.106 505.66 583.07C505.66 583.07 505.74 582.98 505.9 582.95L506.9 582.71H507.04C507.08 582.73 507.13 582.79 507.18 582.9ZM510.54 582.57C511.226 583.501 511.803 584.508 512.26 585.57C512.265 585.613 512.265 585.657 512.26 585.7C512.26 585.75 512.2 585.81 512.07 585.87L510.98 586.32C510.916 586.347 510.849 586.364 510.78 586.37C510.78 586.37 510.71 586.37 510.68 586.26C510.268 585.176 509.735 584.143 509.09 583.18C509.074 583.166 509.062 583.149 509.053 583.13C509.045 583.111 509.04 583.091 509.04 583.07C509.04 583.07 509.11 582.97 509.24 582.91L510.14 582.55L510.34 582.49C510.43 582.46 510.48 582.5 510.54 582.57V582.57Z" fill="#999999"/>
<path d="M523.53 575.23C523.312 577.688 522.633 580.083 521.53 582.29C521.289 582.835 520.899 583.301 520.406 583.635C519.913 583.969 519.335 584.158 518.74 584.18C518.312 584.169 517.895 584.048 517.527 583.829C517.159 583.61 516.854 583.301 516.64 582.93C516.07 582.037 515.79 580.989 515.84 579.93C515.841 579.13 516.005 578.338 516.323 577.604C516.641 576.869 517.106 576.208 517.69 575.66C518.388 574.964 519.221 574.419 520.138 574.058C521.054 573.697 522.035 573.527 523.02 573.56C523.904 573.508 524.789 573.644 525.617 573.959C526.444 574.275 527.195 574.762 527.82 575.39C528.304 575.907 528.681 576.513 528.93 577.176C529.178 577.838 529.294 578.543 529.27 579.25C529.27 582.223 527.583 584.223 524.21 585.25C524.131 585.263 524.05 585.263 523.97 585.25C523.81 585.25 523.66 585.14 523.51 584.92C523.205 584.506 522.813 584.164 522.36 583.92C523.715 583.683 524.986 583.101 526.05 582.23C526.475 581.815 526.808 581.314 527.025 580.76C527.242 580.207 527.339 579.614 527.31 579.02C527.321 578.505 527.225 577.993 527.029 577.516C526.832 577.04 526.54 576.609 526.17 576.25C525.838 575.921 525.442 575.663 525.007 575.491C524.573 575.319 524.107 575.237 523.64 575.25L523.53 575.23ZM521.62 575.32C520.553 575.51 519.573 576.031 518.82 576.81C518.039 577.619 517.583 578.687 517.54 579.81C517.513 580.442 517.655 581.07 517.95 581.63C518.16 581.98 518.4 582.16 518.65 582.16C519.1 582.16 519.51 581.82 519.89 581.16C520.353 580.265 520.718 579.323 520.98 578.35C521.273 577.358 521.487 576.345 521.62 575.32V575.32Z" fill="#999999"/>
<path d="M540.9 578.66C540.867 579.481 540.76 580.298 540.58 581.1C540.441 581.706 540.222 582.291 539.93 582.84C539.565 583.54 539.096 584.18 538.54 584.74C538.097 585.199 537.596 585.599 537.05 585.93C536.908 586.04 536.738 586.109 536.56 586.13C536.494 586.13 536.428 586.115 536.368 586.088C536.308 586.06 536.254 586.02 536.21 585.97C535.794 585.575 535.295 585.278 534.75 585.1C535.499 584.719 536.198 584.245 536.83 583.69C537.302 583.253 537.7 582.743 538.01 582.18C538.313 581.654 538.532 581.084 538.66 580.49C538.768 579.886 538.832 579.274 538.85 578.66H535.73C535.21 578.66 534.39 578.69 533.27 578.75C533.15 578.75 533.08 578.66 533.06 578.44C532.969 577.922 532.926 577.396 532.93 576.87C533.54 576.87 534.47 576.95 535.72 576.95H543.08C544.25 576.95 545.32 576.95 546.28 576.85C546.4 576.85 546.46 576.96 546.46 577.18C546.46 577.29 546.46 577.5 546.46 577.81C546.46 578.12 546.46 578.33 546.46 578.44C546.46 578.55 546.38 578.72 546.21 578.72C545.08 578.72 544.04 578.66 543.1 578.66H540.9ZM534.9 573.06C535.9 573.11 536.76 573.14 537.62 573.14H540.62C541.75 573.14 542.67 573.14 543.39 573.07C543.52 573.07 543.59 573.18 543.59 573.39C543.59 573.6 543.59 573.78 543.59 573.98C543.59 574.18 543.59 574.38 543.59 574.58C543.59 574.78 543.51 574.89 543.37 574.89C542.5 574.89 541.58 574.89 540.62 574.89H537.62L535.29 574.96C535.12 574.96 535.03 574.86 535.01 574.68C534.99 574.5 535.01 574.27 535.01 573.91C535.01 573.55 534.94 573.22 534.93 573.06H534.9ZM543.74 572.52L544.67 571.99H544.76C544.788 571.992 544.815 572.001 544.839 572.014C544.863 572.028 544.884 572.047 544.9 572.07C545.471 572.62 545.944 573.262 546.3 573.97C546.309 574.003 546.309 574.037 546.3 574.07C546.296 574.104 546.284 574.136 546.265 574.164C546.245 574.191 546.22 574.214 546.19 574.23L545.45 574.67H545.34C545.307 574.67 545.274 574.659 545.247 574.639C545.22 574.619 545.2 574.592 545.19 574.56C544.826 573.81 544.347 573.122 543.77 572.52H543.74ZM545.34 571.58L546.23 571.07H546.33C546.385 571.084 546.434 571.116 546.47 571.16C547.036 571.684 547.507 572.304 547.86 572.99C547.869 573.03 547.869 573.071 547.86 573.11C547.858 573.147 547.847 573.183 547.828 573.214C547.809 573.246 547.782 573.272 547.75 573.29L547.06 573.73C547.017 573.742 546.972 573.742 546.93 573.73C546.87 573.73 546.82 573.69 546.78 573.61C546.417 572.865 545.942 572.18 545.37 571.58H545.34Z" fill="#999999"/>
<path d="M549.82 578.08C550.994 578.232 552.177 578.298 553.36 578.28H558.64H560.64H562.41H562.49C562.63 578.28 562.7 578.36 562.7 578.52C562.7 578.77 562.7 579.03 562.7 579.29C562.7 579.55 562.7 579.81 562.7 580.06C562.7 580.31 562.63 580.31 562.47 580.31H562.41H558.75H552.85L550.44 580.51C550.344 580.513 550.25 580.478 550.179 580.412C550.108 580.347 550.065 580.256 550.06 580.16C549.931 579.473 549.851 578.778 549.82 578.08V578.08Z" fill="#999999"/>
<path d="M575 580.35C575.645 580.848 576.247 581.4 576.8 582C576.829 582.03 576.853 582.066 576.868 582.106C576.883 582.145 576.891 582.188 576.89 582.23C576.887 582.309 576.855 582.383 576.8 582.44C576.495 582.801 576.161 583.135 575.8 583.44C575.743 583.486 575.673 583.514 575.6 583.52C575.531 583.507 575.468 583.472 575.42 583.42C574.928 582.853 574.397 582.322 573.83 581.83C572.32 583.47 570.553 584.855 568.6 585.93C568.475 586.006 568.335 586.054 568.19 586.07C568.074 586.059 567.965 586.009 567.88 585.93C567.416 585.557 566.887 585.272 566.32 585.09C567.534 584.485 568.694 583.779 569.79 582.98C570.708 582.274 571.567 581.494 572.36 580.65C571.625 580.058 570.835 579.539 570 579.1C570.65 578.39 571 578 571.08 577.94C571.104 577.906 571.136 577.878 571.172 577.857C571.208 577.836 571.248 577.824 571.29 577.82C571.348 577.832 571.402 577.856 571.45 577.89C572.188 578.274 572.897 578.712 573.57 579.2C574.333 578.198 574.977 577.111 575.49 575.96L571.42 576.04C570.403 577.407 569.224 578.646 567.91 579.73C567.816 579.809 567.701 579.857 567.58 579.87C567.531 579.871 567.483 579.862 567.438 579.843C567.393 579.824 567.353 579.796 567.32 579.76C566.893 579.454 566.429 579.202 565.94 579.01C566.995 578.188 567.97 577.267 568.85 576.26C569.494 575.509 570.076 574.706 570.59 573.86C570.983 573.242 571.279 572.567 571.47 571.86C572.132 572.071 572.774 572.338 573.39 572.66C573.443 572.682 573.489 572.719 573.521 572.767C573.553 572.816 573.57 572.872 573.57 572.93C573.566 572.996 573.545 573.059 573.51 573.115C573.475 573.171 573.427 573.217 573.37 573.25C573.233 573.341 573.117 573.46 573.03 573.6C572.9 573.82 572.73 574.1 572.52 574.42L575.41 574.35C575.727 574.351 576.039 574.264 576.31 574.1C576.391 574.038 576.488 574 576.59 573.99C576.697 574.003 576.799 574.049 576.88 574.12C577.303 574.394 577.68 574.731 578 575.12C578.041 575.158 578.074 575.205 578.096 575.256C578.118 575.308 578.13 575.364 578.13 575.42C578.123 575.481 578.104 575.541 578.073 575.594C578.042 575.648 578 575.694 577.95 575.73C577.751 575.905 577.585 576.115 577.46 576.35C576.758 577.752 575.935 579.091 575 580.35V580.35Z" fill="#999999"/>
</svg>
